SplineFontDB: 3.0
FontName: VT323-Regular
FullName: VT323
FamilyName: VT323
Weight: Medium
Copyright: Copyright (c) 2011, Peter Hull (peter.hull@oikoi.com), with Reserved Font Name "VT323".
Version: 001.002
ItalicAngle: 0
UnderlinePosition: -204
UnderlineWidth: 102
Ascent: 1638
Descent: 410
sfntRevision: 0x00010041
LayerCount: 2
Layer: 0 1 "Back"  1
Layer: 1 1 "Fore"  0
XUID: [1021 320 1925929653 8161750]
FSType: 0
OS2Version: 4
OS2_WeightWidthSlopeOnly: 0
OS2_UseTypoMetrics: 1
CreationTime: 1342029834
ModificationTime: 1342030902
PfmFamily: 17
TTFWeight: 400
TTFWidth: 5
LineGap: 0
VLineGap: 0
Panose: 2 0 6 9 0 0 0 0 0 0
OS2TypoAscent: 1638
OS2TypoAOffset: 0
OS2TypoDescent: -409
OS2TypoDOffset: 0
OS2TypoLinegap: 0
OS2WinAscent: 1638
OS2WinAOffset: 0
OS2WinDescent: 409
OS2WinDOffset: 0
HheadAscent: 1638
HheadAOffset: 0
HheadDescent: -409
HheadDOffset: 0
OS2SubXSize: 1331
OS2SubYSize: 1433
OS2SubXOff: 0
OS2SubYOff: 286
OS2SupXSize: 1331
OS2SupYSize: 1433
OS2SupXOff: 0
OS2SupYOff: 983
OS2StrikeYSize: 102
OS2StrikeYPos: 530
OS2Vendor: 'PfEd'
OS2CodePages: 00000001.00400000
OS2UnicodeRanges: 00000003.00005840.00000000.00000000
DEI: 91125
ShortTable: cvt  9
  -68
  -68
  785
  1126
  162
  203
  138
  68
  1297
EndShort
ShortTable: maxp 16
  1
  0
  213
  360
  6
  0
  0
  2
  1
  2
  22
  0
  256
  0
  0
  0
EndShort
LangName: 1033 "" "" "" "FontForge 2.0 : VT323 : 7-11-2012" "" "Version 001.002" "" "" "" "" "" "" "" "" "http://scripts.sil.org/OFL" 
Encoding: UnicodeBmp
UnicodeInterp: none
NameList: Adobe Glyph List
DisplaySize: -24
AntiAlias: 1
FitToEm: 1
BeginChars: 65539 213

StartChar: .notdef
Encoding: 65536 -1 0
Width: 851
Flags: W
LayerCount: 2
Fore
SplineSet
68 0 m 1,0,-1
 68 1365 l 1,1,-1
 612 1365 l 1,2,-1
 612 0 l 1,3,-1
 68 0 l 1,0,-1
136 68 m 1,4,-1
 544 68 l 1,5,-1
 544 1297 l 1,6,-1
 136 1297 l 1,7,-1
 136 68 l 1,4,-1
EndSplineSet
EndChar

StartChar: exclam
Encoding: 33 33 4
Width: 851
Flags: W
LayerCount: 2
Fore
SplineSet
396 96 m 2,0,-1
 398 102 l 1,1,-1
 483 102 l 2,2,3
 568 102 568 102 570 100 c 0,4,5
 575 91 575 91 577.5 41.5 c 128,-1,6
 580 -8 580 -8 576 -33 c 0,7,8
 575 -36 575 -36 574 -43.5 c 128,-1,9
 573 -51 573 -51 573 -53 c 0,10,11
 571 -64 571 -64 569 -66 c 128,-1,12
 567 -68 567 -68 482 -68 c 2,13,-1
 397 -67 l 1,14,-1
 395 -59 l 2,15,16
 388 -33 388 -33 388.5 22.5 c 128,-1,17
 389 78 389 78 396 96 c 2,0,-1
396 1120 m 2,18,-1
 398 1126 l 1,19,-1
 483 1126 l 2,20,21
 568 1126 568 1126 570 1124 c 0,22,23
 571 1123 571 1123 573 1112 c 0,24,25
 586 1040 586 1040 573 969 c 0,26,27
 571 955 571 955 573 943 c 0,28,29
 578 917 578 917 578 870.5 c 128,-1,30
 578 824 578 824 573 798 c 0,31,32
 571 785 571 785 573 772 c 0,33,34
 578 746 578 746 578 699 c 128,-1,35
 578 652 578 652 573 627 c 0,36,37
 571 614 571 614 573 602 c 0,38,39
 579 573 579 573 578 515.5 c 128,-1,40
 577 458 577 458 570 447 c 0,41,42
 568 445 568 445 572 435 c 1,43,44
 579 409 579 409 578 346 c 128,-1,45
 577 283 577 283 569 275 c 0,46,47
 568 274 568 274 482 274 c 2,48,-1
 397 274 l 1,49,-1
 395 282 l 2,50,51
 388 308 388 308 388 362 c 128,-1,52
 388 416 388 416 395 436 c 0,53,54
 397 444 397 444 395 453 c 0,55,56
 388 480 388 480 388 532.5 c 128,-1,57
 388 585 388 585 395 606 c 0,58,59
 397 614 397 614 395 624 c 0,60,61
 388 651 388 651 388 703.5 c 128,-1,62
 388 756 388 756 395 777 c 0,63,64
 397 785 397 785 395 794 c 0,65,66
 388 821 388 821 388 874 c 128,-1,67
 388 927 388 927 395 948 c 0,68,69
 397 956 397 956 395 965 c 0,70,71
 388 992 388 992 388.5 1046.5 c 128,-1,72
 389 1101 389 1101 396 1120 c 2,18,-1
EndSplineSet
EndChar

StartChar: quotedbl
Encoding: 34 34 5
Width: 851
Flags: W
LayerCount: 2
Fore
SplineSet
566 1291 m 1,0,-1
 569 1297 l 1,1,-1
 654 1297 l 2,2,3
 739 1297 739 1297 741 1295 c 0,4,5
 746 1286 746 1286 748.5 1236.5 c 128,-1,6
 751 1187 751 1187 747 1162 c 0,7,8
 746 1159 746 1159 745 1151.5 c 128,-1,9
 744 1144 744 1144 744 1142 c 0,10,11
 741 1123 741 1123 743 1114 c 0,12,13
 750 1083 750 1083 748.5 1024 c 128,-1,14
 747 965 747 965 740 958 c 0,15,16
 738 956 738 956 653 956 c 2,17,-1
 568 957 l 1,18,-1
 566 965 l 2,19,20
 559 990 559 990 559 1044 c 128,-1,21
 559 1098 559 1098 566 1118 c 0,22,23
 568 1126 568 1126 566 1136 c 0,24,25
 559 1164 559 1164 559 1218 c 128,-1,26
 559 1272 559 1272 566 1291 c 1,0,-1
225 1291 m 1,27,-1
 228 1297 l 1,28,-1
 313 1297 l 2,29,30
 397 1297 397 1297 399 1295 c 0,31,32
 404 1286 404 1286 407 1236.5 c 128,-1,33
 410 1187 410 1187 406 1162 c 0,34,35
 406 1161 406 1161 405 1156.5 c 128,-1,36
 404 1152 404 1152 403 1148.5 c 128,-1,37
 402 1145 402 1145 402 1142 c 0,38,39
 400 1126 400 1126 402 1114 c 0,40,41
 409 1083 409 1083 407.5 1024 c 128,-1,42
 406 965 406 965 399 958 c 0,43,44
 397 956 397 956 311 956 c 1,45,-1
 226 957 l 1,46,-1
 224 965 l 2,47,48
 217 991 217 991 217.5 1044.5 c 128,-1,49
 218 1098 218 1098 225 1118 c 0,50,51
 227 1126 227 1126 225 1136 c 0,52,53
 218 1164 218 1164 218 1218 c 128,-1,54
 218 1272 218 1272 225 1291 c 1,27,-1
EndSplineSet
EndChar

StartChar: numbersign
Encoding: 35 35 6
Width: 851
Flags: W
LayerCount: 2
Fore
SplineSet
225 949 m 1,0,-1
 228 956 l 1,1,-1
 313 956 l 2,2,3
 396 956 396 956 399 953 c 1,4,5
 405 943 405 943 407 894.5 c 128,-1,6
 409 846 409 846 405 818 c 0,7,8
 400 789 400 789 399 787 c 1,9,-1
 406 786 l 2,10,11
 413 786 413 786 426.5 785.5 c 128,-1,12
 440 785 440 785 455 785 c 2,13,-1
 511 785 l 1,14,-1
 509 794 l 2,15,16
 502 822 502 822 502 876 c 128,-1,17
 502 930 502 930 509 949 c 1,18,-1
 512 956 l 1,19,-1
 597 956 l 2,20,21
 681 956 681 956 684 953 c 1,22,23
 690 943 690 943 692 894.5 c 128,-1,24
 694 846 694 846 690 818 c 0,25,26
 685 789 685 789 684 787 c 1,27,-1
 691 786 l 2,28,29
 698 786 698 786 711 785.5 c 128,-1,30
 724 785 724 785 739 785 c 0,31,32
 796 785 796 785 798 783 c 0,33,34
 804 773 804 773 806 724 c 128,-1,35
 808 675 808 675 803 647 c 0,36,37
 802 642 802 642 801.5 638 c 128,-1,38
 801 634 801 634 800.5 631.5 c 128,-1,39
 800 629 800 629 799.5 626.5 c 128,-1,40
 799 624 799 624 799 622.5 c 128,-1,41
 799 621 799 621 799 620 c 128,-1,42
 799 619 799 619 798 618 c 1,43,-1
 798 617 l 1,44,45
 795 614 795 614 739 614 c 0,46,47
 724 614 724 614 711 613.5 c 128,-1,48
 698 613 698 613 691 612 c 1,49,-1
 684 612 l 1,50,51
 691 601 691 601 692 543.5 c 128,-1,52
 693 486 693 486 687 457 c 0,53,54
 685 444 685 444 687 431 c 1,55,56
 694 401 694 401 693 343.5 c 128,-1,57
 692 286 692 286 684 275 c 1,58,-1
 691 274 l 2,59,60
 698 274 698 274 711 273.5 c 128,-1,61
 724 273 724 273 739 273 c 0,62,63
 796 273 796 273 798 271 c 0,64,65
 804 261 804 261 806 212 c 128,-1,66
 808 163 808 163 803 135 c 0,67,68
 802 130 802 130 801.5 126 c 128,-1,69
 801 122 801 122 800.5 119.5 c 128,-1,70
 800 117 800 117 799.5 114.5 c 128,-1,71
 799 112 799 112 799 110.5 c 128,-1,72
 799 109 799 109 799 108 c 128,-1,73
 799 107 799 107 798 106 c 1,74,-1
 798 105 l 1,75,76
 795 102 795 102 740 102 c 2,77,-1
 683 102 l 1,78,-1
 686 93 l 1,79,80
 693 67 693 67 692 4.5 c 128,-1,81
 691 -58 691 -58 683 -66 c 0,82,83
 681 -68 681 -68 596 -68 c 2,84,-1
 511 -67 l 1,85,-1
 509 -59 l 2,86,87
 502 -34 502 -34 502 20 c 128,-1,88
 502 74 502 74 509 94 c 2,89,-1
 512 102 l 1,90,-1
 455 102 l 1,91,-1
 399 102 l 1,92,-1
 401 93 l 1,93,94
 408 67 408 67 407.5 4.5 c 128,-1,95
 407 -58 407 -58 399 -66 c 0,96,97
 397 -68 397 -68 311 -68 c 1,98,-1
 226 -67 l 1,99,-1
 224 -59 l 2,100,101
 217 -33 217 -33 217.5 21 c 128,-1,102
 218 75 218 75 225 95 c 1,103,-1
 227 102 l 1,104,-1
 170 103 l 1,105,-1
 113 104 l 1,106,-1
 111 112 l 2,107,108
 104 138 104 138 104 193.5 c 128,-1,109
 104 249 104 249 111 267 c 1,110,-1
 114 273 l 1,111,-1
 170 273 l 1,112,-1
 227 273 l 1,113,-1
 225 282 l 2,114,115
 218 309 218 309 218 362 c 128,-1,116
 218 415 218 415 225 436 c 0,117,118
 227 444 227 444 225 453 c 0,119,120
 218 480 218 480 218 533 c 128,-1,121
 218 586 218 586 225 607 c 2,122,-1
 227 614 l 1,123,-1
 170 615 l 1,124,-1
 113 616 l 1,125,-1
 111 624 l 2,126,127
 104 650 104 650 104 705.5 c 128,-1,128
 104 761 104 761 111 779 c 1,129,-1
 114 785 l 1,130,-1
 170 785 l 1,131,-1
 227 785 l 1,132,-1
 225 794 l 2,133,134
 218 822 218 822 218 876 c 128,-1,135
 218 930 218 930 225 949 c 1,0,-1
509 606 m 2,136,-1
 512 614 l 1,137,-1
 455 614 l 2,138,139
 446 614 446 614 437.5 614 c 128,-1,140
 429 614 429 614 422 613.5 c 128,-1,141
 415 613 415 613 409.5 613 c 128,-1,142
 404 613 404 613 402 612 c 1,143,-1
 399 612 l 1,144,145
 406 601 406 601 407 543.5 c 128,-1,146
 408 486 408 486 402 457 c 0,147,148
 400 444 400 444 402 431 c 1,149,150
 409 401 409 401 408 343.5 c 128,-1,151
 407 286 407 286 399 275 c 1,152,-1
 406 274 l 2,153,154
 413 274 413 274 426.5 273.5 c 128,-1,155
 440 273 440 273 455 273 c 2,156,-1
 511 273 l 1,157,-1
 509 282 l 2,158,159
 502 309 502 309 502 362 c 128,-1,160
 502 415 502 415 509 436 c 0,161,162
 511 444 511 444 509 453 c 0,163,164
 502 480 502 480 502 532.5 c 128,-1,165
 502 585 502 585 509 606 c 2,136,-1
EndSplineSet
EndChar

StartChar: dollar
Encoding: 36 36 7
Width: 851
Flags: W
LayerCount: 2
Fore
SplineSet
396 1120 m 2,0,-1
 398 1126 l 1,1,-1
 455 1126 l 2,2,3
 511 1126 511 1126 513 1124 c 0,4,5
 519 1114 519 1114 521 1065 c 128,-1,6
 523 1016 523 1016 519 988 c 0,7,8
 514 960 514 960 513 958 c 1,9,-1
 524 958 l 1,10,11
 535 957 535 957 554.5 956.5 c 128,-1,12
 574 956 574 956 597 956 c 0,13,14
 681 956 681 956 684 953 c 1,15,16
 690 943 690 943 692 894.5 c 128,-1,17
 694 846 694 846 690 818 c 0,18,19
 685 789 685 789 684 787 c 0,20,21
 682 785 682 785 597 785 c 0,22,23
 574 785 574 785 554.5 784.5 c 128,-1,24
 535 784 535 784 524 784 c 2,25,-1
 513 783 l 1,26,27
 522 767 522 767 522 701 c 0,28,29
 522 633 522 633 513 617 c 1,30,-1
 517 616 l 2,31,32
 521 616 521 616 529 615.5 c 128,-1,33
 537 615 537 615 547 614.5 c 128,-1,34
 557 614 557 614 570.5 614 c 128,-1,35
 584 614 584 614 597 614 c 0,36,37
 682 614 682 614 684 612 c 0,38,39
 690 602 690 602 692 553 c 128,-1,40
 694 504 694 504 690 476 c 0,41,42
 685 448 685 448 684 446 c 1,43,-1
 691 446 l 1,44,45
 698 445 698 445 711 444.5 c 128,-1,46
 724 444 724 444 739 444 c 0,47,48
 795 444 795 444 798 441 c 1,49,50
 804 431 804 431 806 382.5 c 128,-1,51
 808 334 808 334 803 306 c 0,52,53
 801 296 801 296 800 288.5 c 128,-1,54
 799 281 799 281 798.5 278.5 c 128,-1,55
 798 276 798 276 798 275 c 0,56,57
 796 273 796 273 739 273 c 0,58,59
 724 273 724 273 711 272.5 c 128,-1,60
 698 272 698 272 691 272 c 2,61,-1
 684 271 l 1,62,63
 692 257 692 257 692 189 c 0,64,65
 692 119 692 119 684 105 c 1,66,67
 681 102 681 102 597 102 c 0,68,69
 574 102 574 102 554.5 101.5 c 128,-1,70
 535 101 535 101 524 100 c 1,71,-1
 513 100 l 1,72,73
 521 86 521 86 521 14 c 128,-1,74
 521 -58 521 -58 513 -66 c 0,75,76
 511 -68 511 -68 454 -68 c 2,77,-1
 397 -67 l 1,78,-1
 395 -59 l 2,79,80
 388 -34 388 -34 388 20.5 c 128,-1,81
 388 75 388 75 395 95 c 1,82,-1
 398 102 l 1,83,-1
 312 103 l 1,84,-1
 226 104 l 1,85,-1
 224 112 l 2,86,87
 217 138 217 138 217.5 193.5 c 128,-1,88
 218 249 218 249 225 267 c 1,89,-1
 228 273 l 1,90,-1
 313 273 l 1,91,-1
 398 273 l 1,92,-1
 395 282 l 1,93,94
 388 309 388 309 388 362 c 128,-1,95
 388 415 388 415 395 436 c 2,96,-1
 398 444 l 1,97,-1
 312 444 l 1,98,-1
 226 445 l 1,99,-1
 224 453 l 2,100,101
 217 479 217 479 217.5 533 c 128,-1,102
 218 587 218 587 225 607 c 1,103,-1
 227 614 l 1,104,-1
 170 615 l 1,105,-1
 113 616 l 1,106,-1
 111 624 l 2,107,108
 104 650 104 650 104 705.5 c 128,-1,109
 104 761 104 761 111 779 c 1,110,-1
 114 785 l 1,111,-1
 170 785 l 1,112,-1
 227 785 l 1,113,-1
 225 794 l 2,114,115
 218 822 218 822 218 876 c 128,-1,116
 218 930 218 930 225 949 c 1,117,-1
 228 956 l 1,118,-1
 313 956 l 1,119,-1
 398 956 l 1,120,-1
 395 965 l 1,121,122
 388 992 388 992 388.5 1046.5 c 128,-1,123
 389 1101 389 1101 396 1120 c 2,0,-1
395 777 m 2,124,-1
 398 785 l 1,125,-1
 341 785 l 2,126,127
 326 785 326 785 313 784.5 c 128,-1,128
 300 784 300 784 293 784 c 2,129,-1
 286 783 l 1,130,131
 294 769 294 769 294 701 c 0,132,133
 294 631 294 631 286 617 c 1,134,-1
 288 616 l 1,135,136
 291 616 291 616 296 615.5 c 128,-1,137
 301 615 301 615 308 614.5 c 128,-1,138
 315 614 315 614 323.5 614 c 128,-1,139
 332 614 332 614 341 614 c 2,140,-1
 398 614 l 1,141,-1
 395 624 l 1,142,143
 388 651 388 651 388 703.5 c 128,-1,144
 388 756 388 756 395 777 c 2,124,-1
623 436 m 1,145,-1
 625 444 l 1,146,-1
 569 444 l 2,147,148
 560 444 560 444 551 444 c 128,-1,149
 542 444 542 444 535.5 443.5 c 128,-1,150
 529 443 529 443 523.5 442.5 c 128,-1,151
 518 442 518 442 516 442 c 2,152,-1
 513 441 l 1,153,154
 522 425 522 425 522 360 c 0,155,156
 522 291 522 291 513 275 c 1,157,-1
 520 274 l 2,158,159
 527 274 527 274 540 273.5 c 128,-1,160
 553 273 553 273 568 273 c 2,161,-1
 625 273 l 1,162,-1
 623 282 l 2,163,164
 616 309 616 309 616 362 c 128,-1,165
 616 415 616 415 623 436 c 1,145,-1
EndSplineSet
EndChar

StartChar: percent
Encoding: 37 37 8
Width: 851
Flags: W
LayerCount: 2
Fore
SplineSet
574 437 m 1,0,-1
 577 444 l 1,1,-1
 662 444 l 2,2,3
 746 444 746 444 749 441 c 1,4,5
 754 432 754 432 756.5 382.5 c 128,-1,6
 759 333 759 333 755 308 c 0,7,8
 754 306 754 306 753 298 c 128,-1,9
 752 290 752 290 752 289 c 0,10,11
 750 277 750 277 749 276 c 1,12,-1
 773 273 l 1,13,-1
 776 273 l 2,14,15
 804 273 804 273 806 271 c 0,16,17
 811 262 811 262 813.5 212.5 c 128,-1,18
 816 163 816 163 812 138 c 0,19,20
 811 136 811 136 810 128 c 128,-1,21
 809 120 809 120 809 118 c 0,22,23
 807 106 807 106 806 105 c 0,24,25
 803 102 803 102 776 102 c 0,26,27
 747 102 747 102 749 100 c 0,28,29
 757 86 757 86 756.5 14 c 128,-1,30
 756 -58 756 -58 748 -66 c 0,31,32
 746 -68 746 -68 661 -68 c 2,33,-1
 576 -67 l 1,34,-1
 574 -59 l 2,35,36
 567 -34 567 -34 567 20 c 128,-1,37
 567 74 567 74 574 94 c 2,38,-1
 577 102 l 1,39,-1
 548 103 l 1,40,-1
 519 104 l 1,41,-1
 517 112 l 1,42,43
 504 158 504 158 512 234 c 0,44,45
 515 264 515 264 519 268.5 c 128,-1,46
 523 273 523 273 548 273 c 2,47,-1
 576 273 l 1,48,-1
 574 282 l 2,49,50
 567 310 567 310 567 364 c 128,-1,51
 567 418 567 418 574 437 c 1,0,-1
688 265 m 1,52,-1
 690 273 l 1,53,-1
 662 273 l 2,54,55
 633 273 633 273 635 271 c 0,56,57
 643 257 643 257 643 189 c 0,58,59
 643 119 643 119 635 105 c 1,60,-1
 659 102 l 1,61,-1
 662 102 l 1,62,-1
 690 102 l 1,63,-1
 688 112 l 1,64,65
 681 139 681 139 681 191.5 c 128,-1,66
 681 244 681 244 688 265 c 1,52,-1
574 1120 m 1,67,-1
 577 1126 l 1,68,-1
 634 1126 l 2,69,70
 690 1126 690 1126 692 1124 c 0,71,72
 698 1114 698 1114 700 1065 c 128,-1,73
 702 1016 702 1016 698 988 c 0,74,75
 693 960 693 960 692 958 c 0,76,77
 690 956 690 956 662 956 c 0,78,79
 635 956 635 956 635 953 c 1,80,81
 643 939 643 939 643 872 c 0,82,83
 643 801 643 801 635 787 c 0,84,85
 633 785 633 785 605 785 c 0,86,87
 576 785 576 785 578 783 c 0,88,89
 587 767 587 767 587 701 c 0,90,91
 587 633 587 633 578 617 c 1,92,93
 575 614 575 614 548 614 c 0,94,95
 519 614 519 614 521 612 c 0,96,97
 530 596 530 596 530 530 c 0,98,99
 530 462 530 462 521 446 c 0,100,101
 519 444 519 444 491 444 c 0,102,103
 464 444 464 444 464 441 c 1,104,105
 473 425 473 425 473 360 c 0,106,107
 473 291 473 291 464 275 c 0,108,109
 462 273 462 273 434 273 c 0,110,111
 405 273 405 273 407 271 c 0,112,113
 416 255 416 255 416 189 c 0,114,115
 416 121 416 121 407 105 c 1,116,117
 404 102 404 102 377 102 c 0,118,119
 348 102 348 102 350 100 c 0,120,121
 358 86 358 86 358 14 c 128,-1,122
 358 -58 358 -58 350 -66 c 0,123,124
 348 -68 348 -68 291 -68 c 2,125,-1
 234 -67 l 1,126,-1
 232 -59 l 1,127,128
 220 -16 220 -16 228 64 c 0,129,130
 231 94 231 94 235 98 c 128,-1,131
 239 102 239 102 264 102 c 2,132,-1
 292 102 l 1,133,-1
 289 112 l 1,134,135
 277 156 277 156 285 234 c 0,136,137
 288 264 288 264 292 268.5 c 128,-1,138
 296 273 296 273 321 273 c 2,139,-1
 349 273 l 1,140,-1
 346 282 l 1,141,142
 333 329 333 329 341 405 c 0,143,144
 344 435 344 435 348 439.5 c 128,-1,145
 352 444 352 444 377 444 c 2,146,-1
 406 444 l 1,147,-1
 403 453 l 1,148,149
 390 500 390 500 398 576 c 0,150,151
 401 606 401 606 405 610 c 128,-1,152
 409 614 409 614 434 614 c 2,153,-1
 463 614 l 1,154,-1
 460 624 l 1,155,156
 447 671 447 671 455 746 c 0,157,158
 458 776 458 776 462 780.5 c 128,-1,159
 466 785 466 785 491 785 c 2,160,-1
 519 785 l 1,161,-1
 517 794 l 1,162,163
 504 841 504 841 512 917 c 0,164,165
 515 947 515 947 519 951.5 c 128,-1,166
 523 956 523 956 548 956 c 2,167,-1
 576 956 l 1,168,-1
 574 965 l 2,169,170
 567 993 567 993 567 1047 c 128,-1,171
 567 1101 567 1101 574 1120 c 1,67,-1
176 1120 m 1,172,-1
 179 1126 l 1,173,-1
 264 1126 l 2,174,175
 348 1126 348 1126 350 1124 c 0,176,177
 355 1115 355 1115 358 1065.5 c 128,-1,178
 361 1016 361 1016 357 991 c 0,179,180
 356 989 356 989 355 981.5 c 128,-1,181
 354 974 354 974 354 972 c 0,182,183
 352 959 352 959 351 958 c 0,184,185
 349 956 349 956 377 956 c 0,186,187
 404 956 404 956 407 953 c 1,188,189
 412 944 412 944 415 894.5 c 128,-1,190
 418 845 418 845 414 820 c 0,191,192
 413 818 413 818 412 810 c 128,-1,193
 411 802 411 802 411 801 c 0,194,195
 409 789 409 789 408 788 c 0,196,197
 405 785 405 785 377 785 c 0,198,199
 348 785 348 785 350 783 c 0,200,201
 358 770 358 770 358 697.5 c 128,-1,202
 358 625 358 625 350 617 c 0,203,204
 348 615 348 615 263 615 c 2,205,-1
 178 616 l 1,206,-1
 175 624 l 1,207,208
 168 650 168 650 168.5 703.5 c 128,-1,209
 169 757 169 757 176 777 c 1,210,-1
 178 785 l 1,211,-1
 150 786 l 1,212,-1
 121 786 l 1,213,-1
 119 794 l 1,214,215
 106 840 106 840 114 917 c 0,216,217
 117 947 117 947 121 951.5 c 128,-1,218
 125 956 125 956 150 956 c 2,219,-1
 178 956 l 1,220,-1
 176 965 l 2,221,222
 169 993 169 993 169 1047 c 128,-1,223
 169 1101 169 1101 176 1120 c 1,172,-1
289 948 m 2,224,-1
 292 956 l 1,225,-1
 264 956 l 2,226,227
 237 956 237 956 237 953 c 1,228,229
 245 939 245 939 245 872 c 0,230,231
 245 801 245 801 237 787 c 0,232,233
 235 785 235 785 264 785 c 2,234,-1
 292 785 l 1,235,-1
 289 794 l 1,236,237
 282 821 282 821 282 874 c 128,-1,238
 282 927 282 927 289 948 c 2,224,-1
EndSplineSet
EndChar

StartChar: ampersand
Encoding: 38 38 9
Width: 851
Flags: W
LayerCount: 2
Fore
SplineSet
686 779 m 1,0,-1
 689 785 l 1,1,-1
 745 785 l 2,2,3
 802 785 802 785 804 783 c 0,4,5
 809 774 809 774 811.5 724.5 c 128,-1,6
 814 675 814 675 810 650 c 0,7,8
 810 649 810 649 809 644.5 c 128,-1,9
 808 640 808 640 807 636.5 c 128,-1,10
 806 633 806 633 806 630 c 0,11,12
 804 614 804 614 806 602 c 0,13,14
 813 571 813 571 811.5 512 c 128,-1,15
 810 453 810 453 803 446 c 0,16,17
 801 444 801 444 744 444 c 1,18,-1
 688 445 l 1,19,-1
 685 453 l 1,20,21
 678 479 678 479 678.5 532.5 c 128,-1,22
 679 586 679 586 686 606 c 0,23,24
 688 614 688 614 686 624 c 0,25,26
 679 652 679 652 679 706 c 128,-1,27
 679 760 679 760 686 779 c 1,0,-1
288 1120 m 2,28,-1
 290 1126 l 1,29,-1
 433 1126 l 2,30,31
 574 1126 574 1126 576 1124 c 0,32,33
 582 1114 582 1114 584 1065 c 128,-1,34
 586 1016 586 1016 582 988 c 0,35,36
 577 960 577 960 576 958 c 0,37,38
 574 956 574 956 603 956 c 0,39,40
 630 956 630 956 633 953 c 1,41,42
 639 943 639 943 641 894.5 c 128,-1,43
 643 846 643 846 639 818 c 0,44,45
 634 789 634 789 632 787 c 0,46,47
 631 786 631 786 573 786 c 2,48,-1
 517 786 l 1,49,-1
 515 794 l 2,50,51
 508 820 508 820 508 874 c 128,-1,52
 508 928 508 928 515 948 c 2,53,-1
 518 956 l 1,54,-1
 432 956 l 2,55,56
 419 956 419 956 405.5 956 c 128,-1,57
 392 956 392 956 382 955.5 c 128,-1,58
 372 955 372 955 364 954.5 c 128,-1,59
 356 954 356 954 352 954 c 2,60,-1
 348 953 l 1,61,62
 357 937 357 937 357 872 c 0,63,64
 357 803 357 803 348 787 c 1,65,-1
 359 786 l 2,66,67
 370 786 370 786 390 785.5 c 128,-1,68
 410 785 410 785 433 785 c 2,69,-1
 518 785 l 1,70,-1
 520 779 l 2,71,72
 527 759 527 759 527 694 c 128,-1,73
 527 629 527 629 519 617 c 1,74,-1
 543 614 l 1,75,-1
 546 614 l 2,76,77
 574 614 574 614 576 612 c 0,78,79
 582 602 582 602 584 553 c 128,-1,80
 586 504 586 504 582 476 c 0,81,82
 577 448 577 448 576 446 c 1,83,-1
 583 446 l 1,84,85
 590 445 590 445 603.5 444.5 c 128,-1,86
 617 444 617 444 632 444 c 2,87,-1
 689 444 l 1,88,-1
 691 437 l 1,89,90
 698 417 698 417 698 352 c 128,-1,91
 698 287 698 287 690 275 c 0,92,93
 688 273 688 273 717 273 c 0,94,95
 745 273 745 273 747 271 c 0,96,97
 753 261 753 261 755 212 c 128,-1,98
 757 163 757 163 753 135 c 0,99,100
 748 107 748 107 747 105 c 1,101,-1
 771 102 l 1,102,-1
 774 102 l 2,103,104
 802 102 802 102 804 100 c 0,105,106
 809 91 809 91 811.5 41.5 c 128,-1,107
 814 -8 814 -8 810 -33 c 0,108,109
 809 -36 809 -36 808 -43.5 c 128,-1,110
 807 -51 807 -51 807 -53 c 0,111,112
 805 -64 805 -64 803 -66 c 128,-1,113
 801 -68 801 -68 716 -68 c 2,114,-1
 631 -67 l 1,115,-1
 629 -59 l 2,116,117
 622 -34 622 -34 622 20 c 128,-1,118
 622 74 622 74 629 94 c 0,119,120
 631 102 631 102 629 112 c 0,121,122
 622 139 622 139 622 191.5 c 128,-1,123
 622 244 622 244 629 265 c 1,124,-1
 631 273 l 1,125,-1
 603 273 l 2,126,127
 574 273 574 273 576 271 c 0,128,129
 585 255 585 255 585 189 c 0,130,131
 585 121 585 121 576 105 c 1,132,133
 573 102 573 102 546 102 c 0,134,135
 517 102 517 102 519 100 c 0,136,137
 527 86 527 86 527 14 c 128,-1,138
 527 -58 527 -58 519 -66 c 0,139,140
 517 -68 517 -68 374 -68 c 1,141,-1
 232 -67 l 1,142,-1
 230 -59 l 2,143,144
 223 -33 223 -33 223.5 21 c 128,-1,145
 224 75 224 75 231 95 c 1,146,-1
 233 102 l 1,147,-1
 176 103 l 1,148,-1
 119 104 l 1,149,-1
 117 112 l 2,150,151
 110 138 110 138 110 191.5 c 128,-1,152
 110 245 110 245 117 265 c 0,153,154
 119 273 119 273 117 282 c 0,155,156
 104 329 104 329 112 405 c 0,157,158
 115 435 115 435 119 439.5 c 128,-1,159
 123 444 123 444 148 444 c 2,160,-1
 176 444 l 1,161,-1
 174 453 l 2,162,163
 167 481 167 481 167 535 c 128,-1,164
 167 589 167 589 174 608 c 1,165,-1
 177 614 l 1,166,-1
 233 614 l 1,167,-1
 290 614 l 1,168,-1
 287 624 l 1,169,170
 280 651 280 651 280.5 703.5 c 128,-1,171
 281 756 281 756 288 777 c 1,172,-1
 290 785 l 1,173,-1
 261 786 l 1,174,-1
 232 786 l 1,175,-1
 230 794 l 1,176,177
 218 837 218 837 226 917 c 0,178,179
 229 947 229 947 233 951.5 c 128,-1,180
 237 956 237 956 262 956 c 2,181,-1
 290 956 l 1,182,-1
 287 965 l 1,183,184
 280 992 280 992 280.5 1046.5 c 128,-1,185
 281 1101 281 1101 288 1120 c 2,28,-1
458 607 m 1,186,-1
 461 614 l 1,187,-1
 404 614 l 2,188,189
 395 614 395 614 386.5 614 c 128,-1,190
 378 614 378 614 371 613.5 c 128,-1,191
 364 613 364 613 358.5 613 c 128,-1,192
 353 613 353 613 350 612 c 1,193,-1
 348 612 l 1,194,195
 357 596 357 596 357 530 c 0,196,197
 357 462 357 462 348 446 c 0,198,199
 346 444 346 444 319 444 c 128,-1,200
 292 444 292 444 292 441 c 1,201,202
 299 430 299 430 299.5 372.5 c 128,-1,203
 300 315 300 315 294 286 c 0,204,205
 292 273 292 273 294 260 c 1,206,207
 301 230 301 230 300 173 c 128,-1,208
 299 116 299 116 292 105 c 1,209,-1
 296 104 l 2,210,211
 300 104 300 104 307.5 103.5 c 128,-1,212
 315 103 315 103 325 102.5 c 128,-1,213
 335 102 335 102 348.5 102 c 128,-1,214
 362 102 362 102 375 102 c 2,215,-1
 461 102 l 1,216,-1
 458 112 l 1,217,218
 445 159 445 159 453 234 c 0,219,220
 456 264 456 264 460 268.5 c 128,-1,221
 464 273 464 273 489 273 c 2,222,-1
 517 273 l 1,223,-1
 515 282 l 2,224,225
 508 309 508 309 508 362 c 128,-1,226
 508 415 508 415 515 436 c 1,227,-1
 518 443 l 1,228,-1
 489 444 l 1,229,-1
 460 445 l 1,230,-1
 458 453 l 2,231,232
 451 478 451 478 451 532 c 128,-1,233
 451 586 451 586 458 607 c 1,186,-1
EndSplineSet
EndChar

StartChar: quotesingle
Encoding: 39 39 10
Width: 851
Flags: W
LayerCount: 2
Fore
SplineSet
396 1291 m 2,0,-1
 398 1297 l 1,1,-1
 483 1297 l 2,2,3
 568 1297 568 1297 570 1295 c 0,4,5
 575 1286 575 1286 577.5 1236.5 c 128,-1,6
 580 1187 580 1187 576 1162 c 0,7,8
 575 1160 575 1160 574 1152 c 128,-1,9
 573 1144 573 1144 573 1142 c 0,10,11
 571 1130 571 1130 570 1129 c 0,12,13
 567 1126 567 1126 512 1126 c 0,14,15
 503 1126 503 1126 494.5 1126 c 128,-1,16
 486 1126 486 1126 479 1125.5 c 128,-1,17
 472 1125 472 1125 466.5 1125 c 128,-1,18
 461 1125 461 1125 458 1124 c 1,19,-1
 456 1124 l 1,20,21
 464 1110 464 1110 464 1038 c 128,-1,22
 464 966 464 966 456 958 c 0,23,24
 454 956 454 956 368 956 c 1,25,-1
 283 957 l 1,26,-1
 281 965 l 2,27,28
 274 991 274 991 274.5 1046.5 c 128,-1,29
 275 1102 275 1102 282 1120 c 2,30,-1
 284 1126 l 1,31,-1
 341 1126 l 1,32,-1
 398 1126 l 1,33,-1
 395 1136 l 1,34,35
 388 1163 388 1163 388.5 1217.5 c 128,-1,36
 389 1272 389 1272 396 1291 c 2,0,-1
EndSplineSet
EndChar

StartChar: parenleft
Encoding: 40 40 11
Width: 851
Flags: W
LayerCount: 2
Fore
SplineSet
514 -75 m 2,0,-1
 517 -68 l 1,1,-1
 574 -68 l 2,2,3
 629 -68 629 -68 632 -71 c 1,4,5
 638 -81 638 -81 640 -129.5 c 128,-1,6
 642 -178 642 -178 638 -206 c 0,7,8
 633 -235 633 -235 631 -237 c 0,9,10
 630 -238 630 -238 572 -238 c 2,11,-1
 516 -238 l 1,12,-1
 514 -230 l 2,13,14
 507 -204 507 -204 507 -148.5 c 128,-1,15
 507 -93 507 -93 514 -75 c 2,0,-1
401 1120 m 2,16,-1
 403 1126 l 1,17,-1
 460 1126 l 1,18,-1
 517 1126 l 1,19,-1
 519 1120 l 2,20,21
 526 1100 526 1100 526 1035 c 128,-1,22
 526 970 526 970 518 958 c 0,23,24
 516 956 516 956 488 956 c 0,25,26
 461 956 461 956 461 953 c 1,27,28
 468 942 468 942 469 884.5 c 128,-1,29
 470 827 470 827 464 798 c 0,30,31
 462 785 462 785 464 772 c 0,32,33
 469 746 469 746 469 699 c 128,-1,34
 469 652 469 652 464 627 c 0,35,36
 462 614 462 614 464 602 c 0,37,38
 469 576 469 576 469 529 c 128,-1,39
 469 482 469 482 464 457 c 0,40,41
 462 444 462 444 464 431 c 0,42,43
 470 402 470 402 469.5 344.5 c 128,-1,44
 469 287 469 287 462 276 c 0,45,46
 461 275 461 275 461.5 271.5 c 128,-1,47
 462 268 462 268 463 264 c 0,48,49
 470 239 470 239 469 178 c 128,-1,50
 468 117 468 117 461 105 c 1,51,-1
 485 102 l 1,52,-1
 488 102 l 2,53,54
 516 102 516 102 518 100 c 0,55,56
 522 94 522 94 525 62.5 c 128,-1,57
 528 31 528 31 527 6 c 0,58,59
 525 -59 525 -59 518 -66 c 0,60,61
 516 -68 516 -68 459 -68 c 2,62,-1
 402 -67 l 1,63,-1
 400 -59 l 2,64,65
 393 -34 393 -34 393 20 c 128,-1,66
 393 74 393 74 400 94 c 2,67,-1
 403 102 l 1,68,-1
 374 103 l 1,69,-1
 345 104 l 1,70,-1
 343 112 l 2,71,72
 336 138 336 138 336 191.5 c 128,-1,73
 336 245 336 245 343 265 c 2,74,-1
 346 273 l 1,75,-1
 317 274 l 1,76,-1
 288 274 l 1,77,-1
 286 282 l 2,78,79
 279 308 279 308 279.5 362 c 128,-1,80
 280 416 280 416 287 436 c 0,81,82
 289 444 289 444 287 453 c 0,83,84
 280 480 280 480 280 532.5 c 128,-1,85
 280 585 280 585 287 606 c 0,86,87
 289 614 289 614 287 624 c 0,88,89
 274 671 274 671 282 746 c 0,90,91
 285 776 285 776 289 780.5 c 128,-1,92
 293 785 293 785 318 785 c 2,93,-1
 346 785 l 1,94,-1
 343 794 l 1,95,96
 330 841 330 841 338 917 c 0,97,98
 341 947 341 947 345 951.5 c 128,-1,99
 349 956 349 956 374 956 c 2,100,-1
 403 956 l 1,101,-1
 400 965 l 1,102,103
 393 992 393 992 393.5 1046.5 c 128,-1,104
 394 1101 394 1101 401 1120 c 2,16,-1
514 1291 m 1,105,-1
 517 1297 l 1,106,-1
 574 1297 l 2,107,108
 630 1297 630 1297 632 1295 c 0,109,110
 638 1285 638 1285 640 1236 c 128,-1,111
 642 1187 642 1187 638 1159 c 0,112,113
 633 1131 633 1131 631 1129 c 128,-1,114
 629 1127 629 1127 572 1127 c 1,115,-1
 516 1128 l 1,116,-1
 514 1136 l 2,117,118
 507 1162 507 1162 507 1217.5 c 128,-1,119
 507 1273 507 1273 514 1291 c 1,105,-1
EndSplineSet
EndChar

StartChar: parenright
Encoding: 41 41 12
Width: 851
Flags: W
LayerCount: 2
Fore
SplineSet
282 -75 m 1,0,-1
 284 -68 l 1,1,-1
 341 -68 l 1,2,-1
 398 -68 l 1,3,-1
 401 -75 l 2,4,5
 409 -95 409 -95 408 -162 c 128,-1,6
 407 -229 407 -229 399 -237 c 0,7,8
 398 -238 398 -238 340 -238 c 2,9,-1
 283 -238 l 1,10,-1
 281 -230 l 2,11,12
 274 -204 274 -204 274.5 -148.5 c 128,-1,13
 275 -93 275 -93 282 -75 c 1,0,-1
396 1120 m 2,14,-1
 398 1126 l 1,15,-1
 455 1126 l 2,16,17
 511 1126 511 1126 513 1124 c 0,18,19
 519 1114 519 1114 521 1065 c 128,-1,20
 523 1016 523 1016 519 988 c 0,21,22
 514 960 514 960 513 958 c 0,23,24
 511 956 511 956 540 956 c 0,25,26
 567 956 567 956 570 953 c 1,27,28
 576 943 576 943 578 894.5 c 128,-1,29
 580 846 580 846 576 818 c 0,30,31
 571 789 571 789 570 787 c 0,32,33
 568 785 568 785 597 785 c 0,34,35
 625 785 625 785 627 783 c 0,36,37
 628 782 628 782 630 771 c 0,38,39
 643 702 643 702 629 627 c 0,40,41
 627 617 627 617 630 602 c 0,42,43
 635 576 635 576 635 529 c 128,-1,44
 635 482 635 482 630 457 c 0,45,46
 628 444 628 444 630 431 c 1,47,48
 637 401 637 401 636 343.5 c 128,-1,49
 635 286 635 286 627 275 c 0,50,51
 625 273 625 273 597 273 c 2,52,-1
 569 273 l 1,53,-1
 572 264 l 1,54,55
 579 239 579 239 578 178 c 128,-1,56
 577 117 577 117 570 105 c 1,57,58
 567 102 567 102 540 102 c 0,59,60
 511 102 511 102 513 100 c 0,61,62
 521 86 521 86 521 14 c 128,-1,63
 521 -58 521 -58 513 -66 c 0,64,65
 511 -68 511 -68 454 -68 c 2,66,-1
 397 -67 l 1,67,-1
 395 -59 l 1,68,69
 382 -13 382 -13 390 64 c 0,70,71
 393 94 393 94 397 98 c 128,-1,72
 401 102 401 102 426 102 c 2,73,-1
 455 102 l 1,74,-1
 452 112 l 1,75,76
 445 139 445 139 445 191.5 c 128,-1,77
 445 244 445 244 452 265 c 0,78,79
 454 273 454 273 452 282 c 0,80,81
 445 309 445 309 445 362 c 128,-1,82
 445 415 445 415 452 436 c 0,83,84
 454 444 454 444 452 453 c 0,85,86
 445 480 445 480 445 532.5 c 128,-1,87
 445 585 445 585 452 606 c 0,88,89
 454 614 454 614 452 624 c 0,90,91
 445 651 445 651 445 703.5 c 128,-1,92
 445 756 445 756 452 777 c 0,93,94
 454 785 454 785 452 794 c 0,95,96
 445 821 445 821 445 874 c 128,-1,97
 445 927 445 927 452 948 c 1,98,-1
 455 955 l 1,99,-1
 426 956 l 1,100,-1
 397 957 l 1,101,-1
 395 965 l 2,102,103
 388 991 388 991 388.5 1046.5 c 128,-1,104
 389 1102 389 1102 396 1120 c 2,14,-1
282 1291 m 2,105,-1
 284 1297 l 1,106,-1
 341 1297 l 2,107,108
 397 1297 397 1297 399 1295 c 0,109,110
 405 1285 405 1285 407 1236 c 128,-1,111
 409 1187 409 1187 405 1159 c 0,112,113
 400 1130 400 1130 399 1129 c 0,114,115
 397 1127 397 1127 340 1127 c 2,116,-1
 283 1128 l 1,117,-1
 281 1136 l 2,118,119
 274 1162 274 1162 274.5 1217.5 c 128,-1,120
 275 1273 275 1273 282 1291 c 2,105,-1
EndSplineSet
EndChar

StartChar: asterisk
Encoding: 42 42 13
Width: 851
Flags: W
LayerCount: 2
Fore
SplineSet
566 437 m 2,0,-1
 569 444 l 1,1,-1
 654 444 l 2,2,3
 738 444 738 444 741 441 c 1,4,5
 746 432 746 432 748.5 382.5 c 128,-1,6
 751 333 751 333 747 308 c 0,7,8
 746 305 746 305 745 298 c 128,-1,9
 744 291 744 291 744 289 c 0,10,11
 742 277 742 277 740 275 c 0,12,13
 739 274 739 274 653 274 c 2,14,-1
 568 274 l 1,15,-1
 566 282 l 2,16,17
 559 308 559 308 559 363.5 c 128,-1,18
 559 419 559 419 566 437 c 2,0,-1
168 437 m 2,19,-1
 171 444 l 1,20,-1
 256 444 l 1,21,-1
 341 444 l 1,22,-1
 344 437 l 2,23,24
 352 417 352 417 351 350 c 128,-1,25
 350 283 350 283 342 275 c 0,26,27
 341 274 341 274 255 274 c 2,28,-1
 170 274 l 1,29,-1
 167 282 l 1,30,31
 160 308 160 308 160.5 363.5 c 128,-1,32
 161 419 161 419 168 437 c 2,19,-1
566 779 m 1,33,-1
 569 785 l 1,34,-1
 654 785 l 2,35,36
 739 785 739 785 741 783 c 0,37,38
 746 774 746 774 748.5 724.5 c 128,-1,39
 751 675 751 675 747 650 c 0,40,41
 746 647 746 647 745 639.5 c 128,-1,42
 744 632 744 632 744 630 c 0,43,44
 742 619 742 619 740 617 c 128,-1,45
 738 615 738 615 653 615 c 2,46,-1
 568 616 l 1,47,-1
 566 624 l 2,48,49
 559 650 559 650 559 705.5 c 128,-1,50
 559 761 559 761 566 779 c 1,33,-1
168 779 m 1,51,-1
 171 785 l 1,52,-1
 256 785 l 2,53,54
 340 785 340 785 342 783 c 0,55,56
 347 774 347 774 350 724.5 c 128,-1,57
 353 675 353 675 349 650 c 0,58,59
 348 647 348 647 347 639.5 c 128,-1,60
 346 632 346 632 346 630 c 0,61,62
 344 619 344 619 342 617 c 128,-1,63
 340 615 340 615 255 615 c 2,64,-1
 170 616 l 1,65,-1
 167 624 l 1,66,67
 160 650 160 650 160.5 705.5 c 128,-1,68
 161 761 161 761 168 779 c 1,51,-1
396 949 m 1,69,-1
 398 956 l 1,70,-1
 455 956 l 2,71,72
 510 956 510 956 513 953 c 0,73,74
 514 952 514 952 516 941 c 0,75,76
 529 870 529 870 516 798 c 0,77,78
 514 784 514 784 516 772 c 0,79,80
 523 742 523 742 522 685 c 128,-1,81
 521 628 521 628 513 617 c 1,82,-1
 537 614 l 1,83,-1
 540 614 l 2,84,85
 543 614 543 614 549 614 c 0,86,87
 564 614 564 614 567 613.5 c 128,-1,88
 570 613 570 613 572 608 c 0,89,90
 577 595 577 595 578.5 547 c 128,-1,91
 580 499 580 499 576 478 c 0,92,93
 576 476 576 476 575.5 473 c 128,-1,94
 575 470 575 470 574 466 c 128,-1,95
 573 462 573 462 573 460 c 0,96,97
 571 447 571 447 570 446 c 0,98,99
 568 444 568 444 540 444 c 0,100,101
 513 444 513 444 513 441 c 1,102,103
 520 430 520 430 521 372.5 c 128,-1,104
 522 315 522 315 516 286 c 0,105,106
 514 273 514 273 516 260 c 0,107,108
 523 229 523 229 521.5 170.5 c 128,-1,109
 520 112 520 112 513 105 c 0,110,111
 511 103 511 103 454 103 c 2,112,-1
 397 104 l 1,113,-1
 395 112 l 2,114,115
 388 138 388 138 388 191.5 c 128,-1,116
 388 245 388 245 395 265 c 0,117,118
 397 273 397 273 395 282 c 0,119,120
 388 309 388 309 388 362 c 128,-1,121
 388 415 388 415 395 436 c 1,122,-1
 398 443 l 1,123,-1
 369 444 l 1,124,-1
 340 445 l 1,125,-1
 338 453 l 1,126,127
 325 499 325 499 333 576 c 0,128,129
 336 606 336 606 340 610 c 128,-1,130
 344 614 344 614 369 614 c 2,131,-1
 398 614 l 1,132,-1
 395 624 l 1,133,134
 388 651 388 651 388 703.5 c 128,-1,135
 388 756 388 756 395 777 c 0,136,137
 397 785 397 785 395 794 c 0,138,139
 388 821 388 821 388.5 875.5 c 128,-1,140
 389 930 389 930 396 949 c 1,69,-1
EndSplineSet
EndChar

StartChar: plus
Encoding: 43 43 14
Width: 851
Flags: W
LayerCount: 2
Fore
SplineSet
396 949 m 1,0,-1
 398 956 l 1,1,-1
 483 956 l 2,2,3
 567 956 567 956 570 953 c 0,4,5
 571 952 571 952 573 941 c 0,6,7
 586 870 586 870 573 798 c 0,8,9
 571 784 571 784 573 772 c 0,10,11
 580 742 580 742 579 685 c 128,-1,12
 578 628 578 628 570 617 c 0,13,14
 569 616 569 616 583.5 615.5 c 128,-1,15
 598 615 598 615 625.5 614.5 c 128,-1,16
 653 614 653 614 682 614 c 0,17,18
 796 614 796 614 798 612 c 0,19,20
 804 602 804 602 806 553 c 128,-1,21
 808 504 808 504 803 476 c 0,22,23
 802 471 802 471 801.5 467 c 128,-1,24
 801 463 801 463 800.5 460.5 c 128,-1,25
 800 458 800 458 799.5 455.5 c 128,-1,26
 799 453 799 453 799 451.5 c 128,-1,27
 799 450 799 450 799 449 c 128,-1,28
 799 448 799 448 798 447 c 1,29,-1
 798 446 l 1,30,31
 796 444 796 444 683 444 c 2,32,-1
 569 444 l 1,33,-1
 572 435 l 2,34,35
 579 411 579 411 578 349.5 c 128,-1,36
 577 288 577 288 570 276 c 0,37,38
 568 274 568 274 572 264 c 1,39,40
 579 238 579 238 578 175.5 c 128,-1,41
 577 113 577 113 569 105 c 0,42,43
 567 103 567 103 482 103 c 2,44,-1
 397 104 l 1,45,-1
 395 112 l 2,46,47
 388 138 388 138 388 191.5 c 128,-1,48
 388 245 388 245 395 265 c 0,49,50
 397 273 397 273 395 282 c 0,51,52
 388 309 388 309 388 362 c 128,-1,53
 388 415 388 415 395 436 c 2,54,-1
 398 444 l 1,55,-1
 284 444 l 1,56,-1
 170 445 l 1,57,-1
 167 453 l 1,58,59
 160 479 160 479 160.5 534.5 c 128,-1,60
 161 590 161 590 168 608 c 1,61,-1
 171 614 l 1,62,-1
 284 614 l 1,63,-1
 398 614 l 1,64,-1
 395 624 l 1,65,66
 388 651 388 651 388 703.5 c 128,-1,67
 388 756 388 756 395 777 c 0,68,69
 397 785 397 785 395 794 c 0,70,71
 388 821 388 821 388.5 875.5 c 128,-1,72
 389 930 389 930 396 949 c 1,0,-1
EndSplineSet
EndChar

StartChar: comma
Encoding: 44 44 15
Width: 851
Flags: W
LayerCount: 2
Fore
SplineSet
453 267 m 2,0,-1
 455 273 l 1,1,-1
 569 273 l 2,2,3
 682 273 682 273 684 271 c 0,4,5
 689 262 689 262 691.5 212.5 c 128,-1,6
 694 163 694 163 690 138 c 0,7,8
 689 135 689 135 688 127.5 c 128,-1,9
 687 120 687 120 687 118 c 0,10,11
 684 99 684 99 686 90 c 0,12,13
 693 60 693 60 692 2.5 c 128,-1,14
 691 -55 691 -55 684 -66 c 0,15,16
 682 -68 682 -68 625 -68 c 0,17,18
 619 -68 619 -68 612.5 -68 c 128,-1,19
 606 -68 606 -68 600.5 -68.5 c 128,-1,20
 595 -69 595 -69 590 -69 c 128,-1,21
 585 -69 585 -69 581.5 -69.5 c 128,-1,22
 578 -70 578 -70 575 -70 c 128,-1,23
 572 -70 572 -70 571 -70 c 2,24,-1
 570 -71 l 1,25,26
 579 -87 579 -87 579 -152 c 0,27,28
 579 -221 579 -221 570 -237 c 0,29,30
 568 -239 568 -239 512 -239 c 0,31,32
 503 -239 503 -239 494.5 -239 c 128,-1,33
 486 -239 486 -239 479 -239.5 c 128,-1,34
 472 -240 472 -240 466.5 -240 c 128,-1,35
 461 -240 461 -240 458 -240 c 1,36,-1
 456 -241 l 1,37,38
 464 -254 464 -254 464 -326.5 c 128,-1,39
 464 -399 464 -399 456 -407 c 0,40,41
 454 -409 454 -409 340 -409 c 2,42,-1
 226 -408 l 1,43,-1
 224 -400 l 2,44,45
 217 -374 217 -374 217.5 -318.5 c 128,-1,46
 218 -263 218 -263 225 -245 c 1,47,-1
 228 -239 l 1,48,-1
 284 -239 l 1,49,-1
 341 -239 l 1,50,-1
 338 -230 l 1,51,52
 331 -203 331 -203 331.5 -148.5 c 128,-1,53
 332 -94 332 -94 339 -75 c 1,54,-1
 341 -68 l 1,55,-1
 398 -68 l 1,56,-1
 455 -68 l 1,57,-1
 452 -59 l 1,58,59
 445 -32 445 -32 445 20.5 c 128,-1,60
 445 73 445 73 452 94 c 0,61,62
 454 102 454 102 452 112 c 0,63,64
 445 139 445 139 445.5 193.5 c 128,-1,65
 446 248 446 248 453 267 c 2,0,-1
EndSplineSet
EndChar

StartChar: hyphen
Encoding: 45 45 16
Width: 851
Flags: W
LayerCount: 2
Fore
SplineSet
225 608 m 1,0,-1
 228 614 l 1,1,-1
 483 614 l 2,2,3
 739 614 739 614 741 612 c 0,4,5
 746 603 746 603 748.5 553.5 c 128,-1,6
 751 504 751 504 747 479 c 0,7,8
 746 476 746 476 745 468.5 c 128,-1,9
 744 461 744 461 744 459 c 0,10,11
 742 448 742 448 740 446 c 128,-1,12
 738 444 738 444 482 444 c 2,13,-1
 226 445 l 1,14,-1
 224 453 l 2,15,16
 217 479 217 479 217.5 534.5 c 128,-1,17
 218 590 218 590 225 608 c 1,0,-1
EndSplineSet
EndChar

StartChar: period
Encoding: 46 46 17
Width: 851
Flags: W
LayerCount: 2
Fore
SplineSet
339 267 m 2,0,-1
 341 273 l 1,1,-1
 455 273 l 2,2,3
 568 273 568 273 570 271 c 0,4,5
 575 262 575 262 577.5 212.5 c 128,-1,6
 580 163 580 163 576 138 c 0,7,8
 575 135 575 135 574 127.5 c 128,-1,9
 573 120 573 120 573 118 c 0,10,11
 571 102 571 102 573 90 c 0,12,13
 580 59 580 59 578.5 0.5 c 128,-1,14
 577 -58 577 -58 569 -66 c 0,15,16
 567 -68 567 -68 454 -68 c 2,17,-1
 340 -67 l 1,18,-1
 338 -59 l 2,19,20
 331 -34 331 -34 331 20 c 128,-1,21
 331 74 331 74 338 94 c 0,22,23
 341 104 341 104 339 112 c 0,24,25
 332 140 332 140 332 194 c 128,-1,26
 332 248 332 248 339 267 c 2,0,-1
EndSplineSet
EndChar

StartChar: slash
Encoding: 47 47 18
Width: 851
Flags: W
LayerCount: 2
Fore
SplineSet
631 1291 m 1,0,-1
 634 1297 l 1,1,-1
 719 1297 l 2,2,3
 804 1297 804 1297 806 1295 c 0,4,5
 812 1285 812 1285 814 1236 c 128,-1,6
 816 1187 816 1187 811 1159 c 0,7,8
 810 1154 810 1154 809.5 1150 c 128,-1,9
 809 1146 809 1146 808.5 1143.5 c 128,-1,10
 808 1141 808 1141 807.5 1138.5 c 128,-1,11
 807 1136 807 1136 807 1134.5 c 128,-1,12
 807 1133 807 1133 807 1132 c 128,-1,13
 807 1131 807 1131 806 1130 c 1,14,-1
 806 1129 l 1,15,16
 803 1126 803 1126 776 1126 c 0,17,18
 747 1126 747 1126 749 1124 c 0,19,20
 757 1110 757 1110 757 1042 c 0,21,22
 757 972 757 972 749 958 c 0,23,24
 747 956 747 956 719 956 c 0,25,26
 692 956 692 956 692 953 c 1,27,28
 700 939 700 939 700 872 c 0,29,30
 700 801 700 801 692 787 c 0,31,32
 690 785 690 785 662 785 c 0,33,34
 633 785 633 785 635 783 c 0,35,36
 643 769 643 769 643 701 c 0,37,38
 643 631 643 631 635 617 c 1,39,40
 632 614 632 614 605 614 c 0,41,42
 576 614 576 614 578 612 c 0,43,44
 587 596 587 596 587 530 c 0,45,46
 587 462 587 462 578 446 c 0,47,48
 576 444 576 444 548 444 c 0,49,50
 521 444 521 444 521 441 c 1,51,52
 530 425 530 425 530 360 c 0,53,54
 530 291 530 291 521 275 c 0,55,56
 519 273 519 273 491 273 c 0,57,58
 462 273 462 273 464 271 c 0,59,60
 473 255 473 255 473 189 c 0,61,62
 473 121 473 121 464 105 c 1,63,64
 461 102 461 102 434 102 c 0,65,66
 405 102 405 102 407 100 c 0,67,68
 416 84 416 84 416 18 c 0,69,70
 416 -50 416 -50 407 -66 c 0,71,72
 405 -68 405 -68 377 -68 c 0,73,74
 350 -68 350 -68 350 -71 c 1,75,76
 358 -84 358 -84 358 -156.5 c 128,-1,77
 358 -229 358 -229 350 -237 c 0,78,79
 349 -238 349 -238 263 -238 c 2,80,-1
 178 -238 l 1,81,-1
 175 -230 l 1,82,83
 163 -187 163 -187 171 -107 c 0,84,85
 174 -77 174 -77 178 -72.5 c 128,-1,86
 182 -68 182 -68 207 -68 c 2,87,-1
 235 -68 l 1,88,-1
 233 -59 l 1,89,90
 220 -12 220 -12 228 64 c 0,91,92
 231 94 231 94 235 98 c 128,-1,93
 239 102 239 102 264 102 c 2,94,-1
 292 102 l 1,95,-1
 289 112 l 1,96,97
 277 156 277 156 285 234 c 0,98,99
 288 264 288 264 292 268.5 c 128,-1,100
 296 273 296 273 321 273 c 2,101,-1
 349 273 l 1,102,-1
 346 282 l 1,103,104
 333 329 333 329 341 405 c 0,105,106
 344 435 344 435 348 439.5 c 128,-1,107
 352 444 352 444 377 444 c 2,108,-1
 406 444 l 1,109,-1
 403 453 l 1,110,111
 390 500 390 500 398 576 c 0,112,113
 401 606 401 606 405 610 c 128,-1,114
 409 614 409 614 434 614 c 2,115,-1
 463 614 l 1,116,-1
 460 624 l 1,117,118
 447 671 447 671 455 746 c 0,119,120
 458 776 458 776 462 780.5 c 128,-1,121
 466 785 466 785 491 785 c 2,122,-1
 519 785 l 1,123,-1
 517 794 l 1,124,125
 504 841 504 841 512 917 c 0,126,127
 515 947 515 947 519 951.5 c 128,-1,128
 523 956 523 956 548 956 c 2,129,-1
 576 956 l 1,130,-1
 574 965 l 1,131,132
 561 1012 561 1012 569 1088 c 0,133,134
 572 1118 572 1118 576 1122 c 128,-1,135
 580 1126 580 1126 605 1126 c 2,136,-1
 633 1126 l 1,137,-1
 631 1136 l 1,138,139
 624 1164 624 1164 624 1218 c 128,-1,140
 624 1272 624 1272 631 1291 c 1,0,-1
EndSplineSet
EndChar

StartChar: zero
Encoding: 48 48 19
Width: 851
Flags: W
LayerCount: 2
Fore
SplineSet
344 96 m 2,0,-1
 346 102 l 1,1,-1
 460 102 l 1,2,-1
 574 102 l 1,3,-1
 576 96 l 1,4,5
 584 76 584 76 583 9 c 128,-1,6
 582 -58 582 -58 574 -66 c 0,7,8
 572 -68 572 -68 459 -68 c 2,9,-1
 345 -67 l 1,10,-1
 343 -59 l 2,11,12
 336 -33 336 -33 336.5 22.5 c 128,-1,13
 337 78 337 78 344 96 c 2,0,-1
571 949 m 1,14,-1
 574 956 l 1,15,-1
 631 956 l 2,16,17
 686 956 686 956 689 953 c 1,18,19
 695 943 695 943 697 894.5 c 128,-1,20
 699 846 699 846 695 818 c 0,21,22
 690 789 690 789 689 787 c 0,23,24
 687 785 687 785 716 785 c 0,25,26
 744 785 744 785 746 783 c 0,27,28
 751 774 751 774 753.5 724.5 c 128,-1,29
 756 675 756 675 752 650 c 0,30,31
 751 647 751 647 750 639.5 c 128,-1,32
 749 632 749 632 749 630 c 0,33,34
 746 611 746 611 748 602 c 0,35,36
 754 575 754 575 753.5 529 c 128,-1,37
 753 483 753 483 748 457 c 0,38,39
 746 444 746 444 748 431 c 1,40,41
 755 401 755 401 754 343.5 c 128,-1,42
 753 286 753 286 746 275 c 0,43,44
 744 273 744 273 716 273 c 2,45,-1
 688 273 l 1,46,-1
 691 264 l 1,47,48
 698 238 698 238 697 175.5 c 128,-1,49
 696 113 696 113 688 105 c 0,50,51
 686 103 686 103 629 103 c 1,52,-1
 573 104 l 1,53,-1
 571 112 l 2,54,55
 564 138 564 138 564 191.5 c 128,-1,56
 564 245 564 245 571 265 c 0,57,58
 573 273 573 273 571 282 c 0,59,60
 564 309 564 309 564 362 c 128,-1,61
 564 415 564 415 571 436 c 0,62,63
 573 444 573 444 571 453 c 0,64,65
 564 480 564 480 564 532.5 c 128,-1,66
 564 585 564 585 571 606 c 0,67,68
 573 614 573 614 571 624 c 0,69,70
 564 651 564 651 564 703.5 c 128,-1,71
 564 756 564 756 571 777 c 0,72,73
 573 785 573 785 571 794 c 0,74,75
 564 822 564 822 564 876 c 128,-1,76
 564 930 564 930 571 949 c 1,14,-1
230 949 m 1,77,-1
 233 956 l 1,78,-1
 289 956 l 1,79,-1
 346 956 l 1,80,-1
 349 949 l 2,81,82
 356 933 356 933 356 879.5 c 128,-1,83
 356 826 356 826 350 798 c 0,84,85
 348 788 348 788 348 785 c 128,-1,86
 348 782 348 782 350 772 c 0,87,88
 355 746 355 746 355 699 c 128,-1,89
 355 652 355 652 350 627 c 0,90,91
 348 614 348 614 350 602 c 0,92,93
 355 576 355 576 355 529 c 128,-1,94
 355 482 355 482 350 457 c 0,95,96
 348 444 348 444 350 431 c 0,97,98
 356 402 356 402 355.5 344.5 c 128,-1,99
 355 287 355 287 348 276 c 0,100,101
 347 275 347 275 347.5 271.5 c 128,-1,102
 348 268 348 268 349 264 c 0,103,104
 357 239 357 239 356 176 c 128,-1,105
 355 113 355 113 347 105 c 0,106,107
 345 103 345 103 288 103 c 2,108,-1
 231 104 l 1,109,-1
 229 112 l 2,110,111
 222 138 222 138 222.5 191.5 c 128,-1,112
 223 245 223 245 230 265 c 1,113,-1
 232 273 l 1,114,-1
 203 274 l 1,115,-1
 175 274 l 1,116,-1
 172 282 l 1,117,118
 165 308 165 308 165.5 362 c 128,-1,119
 166 416 166 416 173 436 c 0,120,121
 175 444 175 444 173 453 c 0,122,123
 166 480 166 480 166 532.5 c 128,-1,124
 166 585 166 585 173 606 c 0,125,126
 175 614 175 614 173 624 c 0,127,128
 160 671 160 671 168 746 c 0,129,130
 171 776 171 776 175 780.5 c 128,-1,131
 179 785 179 785 204 785 c 2,132,-1
 232 785 l 1,133,-1
 230 794 l 2,134,135
 223 822 223 822 223 876 c 128,-1,136
 223 930 223 930 230 949 c 1,77,-1
344 1120 m 2,137,-1
 346 1126 l 1,138,-1
 460 1126 l 2,139,140
 573 1126 573 1126 575 1124 c 0,141,142
 580 1115 580 1115 582.5 1065.5 c 128,-1,143
 585 1016 585 1016 581 991 c 0,144,145
 580 988 580 988 579 980.5 c 128,-1,146
 578 973 578 973 578 971 c 0,147,148
 576 960 576 960 574 958 c 128,-1,149
 572 956 572 956 459 956 c 2,150,-1
 345 957 l 1,151,-1
 343 965 l 2,152,153
 336 991 336 991 336.5 1046.5 c 128,-1,154
 337 1102 337 1102 344 1120 c 2,137,-1
EndSplineSet
EndChar

StartChar: one
Encoding: 49 49 20
Width: 851
Flags: W
LayerCount: 2
Fore
SplineSet
396 1120 m 2,0,-1
 398 1126 l 1,1,-1
 483 1126 l 2,2,3
 568 1126 568 1126 570 1124 c 0,4,5
 571 1123 571 1123 573 1112 c 0,6,7
 586 1040 586 1040 573 969 c 0,8,9
 571 955 571 955 573 943 c 0,10,11
 578 917 578 917 578 870.5 c 128,-1,12
 578 824 578 824 573 798 c 0,13,14
 571 785 571 785 573 772 c 0,15,16
 578 746 578 746 578 699 c 128,-1,17
 578 652 578 652 573 627 c 0,18,19
 571 614 571 614 573 602 c 0,20,21
 579 573 579 573 578 515.5 c 128,-1,22
 577 458 577 458 570 447 c 0,23,24
 568 445 568 445 572 435 c 1,25,26
 579 411 579 411 578 349.5 c 128,-1,27
 577 288 577 288 570 276 c 0,28,29
 568 274 568 274 572 264 c 1,30,31
 579 239 579 239 578 178 c 128,-1,32
 577 117 577 117 570 105 c 1,33,-1
 574 104 l 2,34,35
 578 104 578 104 586 103.5 c 128,-1,36
 594 103 594 103 604 102.5 c 128,-1,37
 614 102 614 102 627.5 102 c 128,-1,38
 641 102 641 102 654 102 c 0,39,40
 739 102 739 102 741 100 c 0,41,42
 747 90 747 90 749 41 c 128,-1,43
 751 -8 751 -8 747 -36 c 0,44,45
 742 -64 742 -64 740 -66 c 128,-1,46
 738 -68 738 -68 482 -68 c 2,47,-1
 226 -67 l 1,48,-1
 224 -59 l 2,49,50
 217 -33 217 -33 217.5 22.5 c 128,-1,51
 218 78 218 78 225 96 c 1,52,-1
 228 102 l 1,53,-1
 313 102 l 1,54,-1
 398 102 l 1,55,-1
 395 112 l 1,56,57
 388 139 388 139 388 191.5 c 128,-1,58
 388 244 388 244 395 265 c 0,59,60
 397 273 397 273 395 282 c 0,61,62
 388 309 388 309 388 362 c 128,-1,63
 388 415 388 415 395 436 c 0,64,65
 397 444 397 444 395 453 c 0,66,67
 388 480 388 480 388 532.5 c 128,-1,68
 388 585 388 585 395 606 c 0,69,70
 397 614 397 614 395 624 c 0,71,72
 388 651 388 651 388 703.5 c 128,-1,73
 388 756 388 756 395 777 c 2,74,-1
 398 785 l 1,75,-1
 341 786 l 1,76,-1
 283 786 l 1,77,-1
 281 794 l 2,78,79
 274 820 274 820 274.5 875.5 c 128,-1,80
 275 931 275 931 282 949 c 1,81,-1
 284 956 l 1,82,-1
 341 956 l 1,83,-1
 398 956 l 1,84,-1
 395 965 l 1,85,86
 388 992 388 992 388.5 1046.5 c 128,-1,87
 389 1101 389 1101 396 1120 c 2,0,-1
EndSplineSet
EndChar

StartChar: two
Encoding: 50 50 21
Width: 851
Flags: W
LayerCount: 2
Fore
SplineSet
230 1120 m 1,0,-1
 233 1126 l 1,1,-1
 432 1126 l 2,2,3
 630 1126 630 1126 632 1124 c 0,4,5
 638 1114 638 1114 640 1065 c 128,-1,6
 642 1016 642 1016 638 988 c 0,7,8
 633 960 633 960 632 958 c 1,9,-1
 639 958 l 1,10,11
 646 957 646 957 659 956.5 c 128,-1,12
 672 956 672 956 687 956 c 0,13,14
 743 956 743 956 746 953 c 0,15,16
 747 952 747 952 749 941 c 0,17,18
 762 872 762 872 748 798 c 0,19,20
 746 784 746 784 748 772 c 0,21,22
 755 742 755 742 754 685 c 128,-1,23
 753 628 753 628 746 617 c 0,24,25
 743 614 743 614 716 614 c 0,26,27
 687 614 687 614 689 612 c 0,28,29
 697 598 697 598 697 530 c 0,30,31
 697 460 697 460 689 446 c 0,32,33
 687 444 687 444 630 444 c 0,34,35
 624 444 624 444 617.5 444 c 128,-1,36
 611 444 611 444 605.5 443.5 c 128,-1,37
 600 443 600 443 595 443 c 128,-1,38
 590 443 590 443 586.5 442.5 c 128,-1,39
 583 442 583 442 580 442 c 128,-1,40
 577 442 577 442 576 442 c 2,41,-1
 575 441 l 1,42,43
 584 425 584 425 584 360 c 0,44,45
 584 291 584 291 575 275 c 0,46,47
 573 273 573 273 517 273 c 0,48,49
 508 273 508 273 499.5 273 c 128,-1,50
 491 273 491 273 484 272.5 c 128,-1,51
 477 272 477 272 471.5 272 c 128,-1,52
 466 272 466 272 463 272 c 1,53,-1
 461 271 l 1,54,55
 470 255 470 255 470 189 c 0,56,57
 470 121 470 121 461 105 c 0,58,59
 460 104 460 104 478.5 103.5 c 128,-1,60
 497 103 497 103 531.5 102.5 c 128,-1,61
 566 102 566 102 602 102 c 0,62,63
 744 102 744 102 746 100 c 0,64,65
 751 91 751 91 753.5 41.5 c 128,-1,66
 756 -8 756 -8 752 -33 c 0,67,68
 751 -36 751 -36 750 -43.5 c 128,-1,69
 749 -51 749 -51 749 -53 c 0,70,71
 747 -64 747 -64 745 -66 c 128,-1,72
 743 -68 743 -68 459 -68 c 2,73,-1
 175 -67 l 1,74,-1
 172 -59 l 1,75,76
 165 -33 165 -33 165.5 22.5 c 128,-1,77
 166 78 166 78 173 96 c 1,78,-1
 176 102 l 1,79,-1
 232 102 l 1,80,-1
 289 102 l 1,81,-1
 286 112 l 1,82,83
 279 139 279 139 279.5 193.5 c 128,-1,84
 280 248 280 248 287 267 c 2,85,-1
 289 273 l 1,86,-1
 346 273 l 1,87,-1
 403 273 l 1,88,-1
 400 282 l 1,89,90
 393 309 393 309 393.5 363.5 c 128,-1,91
 394 418 394 418 401 437 c 1,92,-1
 403 444 l 1,93,-1
 460 444 l 1,94,-1
 516 444 l 1,95,-1
 514 453 l 1,96,97
 501 500 501 500 509 576 c 0,98,99
 512 606 512 606 516 610 c 128,-1,100
 520 614 520 614 545 614 c 2,101,-1
 573 614 l 1,102,-1
 571 624 l 1,103,104
 564 651 564 651 564 703.5 c 128,-1,105
 564 756 564 756 571 777 c 0,106,107
 573 785 573 785 571 794 c 0,108,109
 564 821 564 821 564 874 c 128,-1,110
 564 927 564 927 571 948 c 2,111,-1
 574 956 l 1,112,-1
 431 956 l 2,113,114
 395 956 395 956 361 955.5 c 128,-1,115
 327 955 327 955 308.5 954.5 c 128,-1,116
 290 954 290 954 291 953 c 0,117,118
 299 939 299 939 298.5 867 c 128,-1,119
 298 795 298 795 290 787 c 0,120,121
 289 786 289 786 231 786 c 2,122,-1
 175 786 l 1,123,-1
 172 794 l 1,124,125
 160 837 160 837 168 917 c 0,126,127
 171 947 171 947 175 951.5 c 128,-1,128
 179 956 179 956 204 956 c 2,129,-1
 232 956 l 1,130,-1
 230 965 l 2,131,132
 223 993 223 993 223 1047 c 128,-1,133
 223 1101 223 1101 230 1120 c 1,0,-1
EndSplineSet
EndChar

StartChar: three
Encoding: 51 51 22
Width: 851
Flags: W
LayerCount: 2
Fore
SplineSet
282 1120 m 2,0,-1
 284 1126 l 1,1,-1
 483 1126 l 2,2,3
 682 1126 682 1126 684 1124 c 0,4,5
 690 1114 690 1114 692 1065 c 128,-1,6
 694 1016 694 1016 690 988 c 0,7,8
 685 960 685 960 684 958 c 1,9,-1
 691 958 l 1,10,11
 698 957 698 957 711 956.5 c 128,-1,12
 724 956 724 956 739 956 c 0,13,14
 795 956 795 956 798 953 c 0,15,16
 799 952 799 952 801 941 c 0,17,18
 814 872 814 872 800 798 c 0,19,20
 798 784 798 784 800 772 c 0,21,22
 807 742 807 742 806 685 c 128,-1,23
 805 628 805 628 798 617 c 0,24,25
 795 614 795 614 739 614 c 0,26,27
 724 614 724 614 711 613.5 c 128,-1,28
 698 613 698 613 691 612 c 1,29,-1
 684 612 l 1,30,31
 692 598 692 598 692 530 c 0,32,33
 692 460 692 460 684 446 c 1,34,-1
 691 446 l 1,35,36
 698 445 698 445 711 444.5 c 128,-1,37
 724 444 724 444 739 444 c 0,38,39
 795 444 795 444 798 441 c 0,40,41
 799 440 799 440 801 429 c 0,42,43
 814 360 814 360 800 286 c 0,44,45
 798 272 798 272 800 260 c 0,46,47
 807 230 807 230 806 173 c 128,-1,48
 805 116 805 116 798 105 c 0,49,50
 795 102 795 102 739 102 c 0,51,52
 724 102 724 102 711 101.5 c 128,-1,53
 698 101 698 101 691 100 c 1,54,-1
 684 100 l 1,55,56
 692 86 692 86 691.5 14 c 128,-1,57
 691 -58 691 -58 683 -66 c 0,58,59
 681 -68 681 -68 482 -68 c 2,60,-1
 283 -67 l 1,61,-1
 281 -59 l 2,62,63
 274 -33 274 -33 274.5 21 c 128,-1,64
 275 75 275 75 282 95 c 1,65,-1
 284 102 l 1,66,-1
 227 103 l 1,67,-1
 170 104 l 1,68,-1
 167 112 l 1,69,70
 160 138 160 138 160.5 193.5 c 128,-1,71
 161 249 161 249 168 267 c 1,72,-1
 171 273 l 1,73,-1
 256 273 l 2,74,75
 340 273 340 273 342 271 c 0,76,77
 348 261 348 261 350 212 c 128,-1,78
 352 163 352 163 348 135 c 0,79,80
 343 107 343 107 342 105 c 0,81,82
 341 104 341 104 359.5 103.5 c 128,-1,83
 378 103 378 103 412.5 102.5 c 128,-1,84
 447 102 447 102 483 102 c 2,85,-1
 625 102 l 1,86,-1
 623 112 l 1,87,88
 616 139 616 139 616 191.5 c 128,-1,89
 616 244 616 244 623 265 c 0,90,91
 625 273 625 273 623 282 c 0,92,93
 616 309 616 309 616 362 c 128,-1,94
 616 415 616 415 623 436 c 1,95,-1
 625 444 l 1,96,-1
 511 444 l 1,97,-1
 397 445 l 1,98,-1
 395 453 l 2,99,100
 388 479 388 479 388.5 534.5 c 128,-1,101
 389 590 389 590 396 608 c 2,102,-1
 398 614 l 1,103,-1
 512 614 l 1,104,-1
 625 614 l 1,105,-1
 623 624 l 1,106,107
 616 651 616 651 616 703.5 c 128,-1,108
 616 756 616 756 623 777 c 0,109,110
 625 785 625 785 623 794 c 0,111,112
 616 821 616 821 616 874 c 128,-1,113
 616 927 616 927 623 948 c 1,114,-1
 625 956 l 1,115,-1
 483 956 l 2,116,117
 447 956 447 956 412.5 955.5 c 128,-1,118
 378 955 378 955 359.5 954.5 c 128,-1,119
 341 954 341 954 342 953 c 0,120,121
 350 940 350 940 350 867.5 c 128,-1,122
 350 795 350 795 342 787 c 0,123,124
 341 786 341 786 255 786 c 2,125,-1
 170 786 l 1,126,-1
 167 794 l 1,127,128
 160 820 160 820 160.5 875.5 c 128,-1,129
 161 931 161 931 168 949 c 2,130,-1
 171 956 l 1,131,-1
 227 956 l 1,132,-1
 284 956 l 1,133,-1
 281 965 l 1,134,135
 274 992 274 992 274.5 1046.5 c 128,-1,136
 275 1101 275 1101 282 1120 c 2,0,-1
EndSplineSet
EndChar

StartChar: four
Encoding: 52 52 23
Width: 851
Flags: W
LayerCount: 2
Fore
SplineSet
404 1120 m 2,0,-1
 406 1126 l 1,1,-1
 548 1126 l 2,2,3
 690 1126 690 1126 692 1124 c 0,4,5
 693 1123 693 1123 695 1112 c 0,6,7
 708 1043 708 1043 694 969 c 0,8,9
 692 958 692 958 695 943 c 0,10,11
 700 917 700 917 700 870.5 c 128,-1,12
 700 824 700 824 695 798 c 0,13,14
 693 785 693 785 695 772 c 0,15,16
 700 746 700 746 700 699 c 128,-1,17
 700 652 700 652 695 627 c 0,18,19
 693 614 693 614 695 602 c 0,20,21
 702 572 702 572 701 514.5 c 128,-1,22
 700 457 700 457 692 446 c 1,23,-1
 699 446 l 1,24,25
 706 445 706 445 719 444.5 c 128,-1,26
 732 444 732 444 747 444 c 0,27,28
 803 444 803 444 806 441 c 1,29,30
 812 431 812 431 814 382.5 c 128,-1,31
 816 334 816 334 811 306 c 0,32,33
 809 296 809 296 808 288.5 c 128,-1,34
 807 281 807 281 806.5 278.5 c 128,-1,35
 806 276 806 276 806 275 c 0,36,37
 804 273 804 273 748 273 c 2,38,-1
 691 273 l 1,39,-1
 694 264 l 2,40,41
 701 240 701 240 700 178.5 c 128,-1,42
 699 117 699 117 692 105 c 0,43,44
 690 103 690 103 694 94 c 1,45,46
 701 68 701 68 700 5 c 128,-1,47
 699 -58 699 -58 691 -66 c 0,48,49
 689 -68 689 -68 604 -68 c 2,50,-1
 519 -67 l 1,51,-1
 517 -59 l 2,52,53
 510 -34 510 -34 510 20 c 128,-1,54
 510 74 510 74 517 94 c 0,55,56
 519 102 519 102 517 112 c 0,57,58
 510 139 510 139 510 191.5 c 128,-1,59
 510 244 510 244 517 265 c 2,60,-1
 520 273 l 1,61,-1
 320 274 l 1,62,-1
 121 274 l 1,63,-1
 119 282 l 1,64,65
 106 328 106 328 114 405 c 0,66,67
 117 435 117 435 121 439.5 c 128,-1,68
 125 444 125 444 150 444 c 2,69,-1
 178 444 l 1,70,-1
 176 453 l 1,71,72
 163 500 163 500 171 576 c 0,73,74
 174 606 174 606 178 610 c 128,-1,75
 182 614 182 614 207 614 c 2,76,-1
 235 614 l 1,77,-1
 233 624 l 1,78,79
 220 671 220 671 228 746 c 0,80,81
 231 776 231 776 235 780.5 c 128,-1,82
 239 785 239 785 264 785 c 2,83,-1
 292 785 l 1,84,-1
 289 794 l 1,85,86
 282 821 282 821 282.5 875.5 c 128,-1,87
 283 930 283 930 290 949 c 1,88,-1
 292 956 l 1,89,-1
 349 956 l 1,90,-1
 406 956 l 1,91,-1
 409 949 l 1,92,93
 416 929 416 929 415.5 864 c 128,-1,94
 415 799 415 799 407 787 c 0,95,96
 405 785 405 785 377 785 c 0,97,98
 348 785 348 785 350 783 c 0,99,100
 359 767 359 767 359 701 c 0,101,102
 359 633 359 633 350 617 c 1,103,104
 347 614 347 614 321 614 c 0,105,106
 292 614 292 614 294 612 c 0,107,108
 302 598 302 598 302 530 c 0,109,110
 302 460 302 460 294 446 c 1,111,-1
 308 446 l 1,112,113
 323 445 323 445 349 444.5 c 128,-1,114
 375 444 375 444 406 444 c 2,115,-1
 519 444 l 1,116,-1
 517 453 l 2,117,118
 510 480 510 480 510 532.5 c 128,-1,119
 510 585 510 585 517 606 c 0,120,121
 519 614 519 614 517 624 c 0,122,123
 510 651 510 651 510 703.5 c 128,-1,124
 510 756 510 756 517 777 c 0,125,126
 519 785 519 785 517 794 c 0,127,128
 510 821 510 821 510 874 c 128,-1,129
 510 927 510 927 517 948 c 2,130,-1
 520 956 l 1,131,-1
 462 956 l 1,132,-1
 405 957 l 1,133,-1
 403 965 l 2,134,135
 396 991 396 991 396.5 1046.5 c 128,-1,136
 397 1102 397 1102 404 1120 c 2,0,-1
EndSplineSet
EndChar

StartChar: five
Encoding: 53 53 24
Width: 851
Flags: W
LayerCount: 2
Fore
SplineSet
168 267 m 1,0,-1
 171 273 l 1,1,-1
 227 273 l 2,2,3
 284 273 284 273 286 271 c 0,4,5
 292 261 292 261 294 212 c 128,-1,6
 296 163 296 163 292 135 c 0,7,8
 287 107 287 107 285 105 c 128,-1,9
 283 103 283 103 226 103 c 1,10,-1
 170 104 l 1,11,-1
 167 112 l 1,12,13
 160 138 160 138 160.5 193.5 c 128,-1,14
 161 249 161 249 168 267 c 1,0,-1
396 779 m 2,15,-1
 398 785 l 1,16,-1
 512 785 l 2,17,18
 625 785 625 785 627 783 c 0,19,20
 633 773 633 773 635 724 c 128,-1,21
 637 675 637 675 633 647 c 0,22,23
 628 619 628 619 627 617 c 1,24,-1
 630 616 l 2,25,26
 632 616 632 616 637 615.5 c 128,-1,27
 642 615 642 615 649 614.5 c 128,-1,28
 656 614 656 614 664.5 614 c 128,-1,29
 673 614 673 614 682 614 c 0,30,31
 739 614 739 614 741 612 c 0,32,33
 747 602 747 602 749 553 c 128,-1,34
 751 504 751 504 747 476 c 0,35,36
 742 448 742 448 741 446 c 0,37,38
 739 444 739 444 768 444 c 0,39,40
 795 444 795 444 798 441 c 1,41,42
 804 431 804 431 806 382.5 c 128,-1,43
 808 334 808 334 803 306 c 0,44,45
 801 296 801 296 800 288.5 c 128,-1,46
 799 281 799 281 798.5 278.5 c 128,-1,47
 798 276 798 276 798 275 c 0,48,49
 796 273 796 273 768 273 c 0,50,51
 739 273 739 273 741 271 c 0,52,53
 749 257 749 257 749 189 c 0,54,55
 749 119 749 119 741 105 c 1,56,57
 738 102 738 102 682 102 c 0,58,59
 667 102 667 102 654 101.5 c 128,-1,60
 641 101 641 101 634 100 c 1,61,-1
 627 100 l 1,62,63
 635 86 635 86 634.5 14 c 128,-1,64
 634 -58 634 -58 626 -66 c 0,65,66
 624 -68 624 -68 454 -68 c 2,67,-1
 283 -67 l 1,68,-1
 281 -59 l 2,69,70
 274 -33 274 -33 274.5 22.5 c 128,-1,71
 275 78 275 78 282 96 c 2,72,-1
 284 102 l 1,73,-1
 426 102 l 1,74,-1
 568 102 l 1,75,-1
 566 112 l 1,76,77
 553 159 553 159 561 234 c 0,78,79
 564 264 564 264 568 268.5 c 128,-1,80
 572 273 572 273 597 273 c 2,81,-1
 625 273 l 1,82,-1
 623 282 l 2,83,84
 616 309 616 309 616 362 c 128,-1,85
 616 415 616 415 623 436 c 2,86,-1
 625 443 l 1,87,-1
 597 444 l 1,88,-1
 568 445 l 1,89,-1
 566 453 l 2,90,91
 559 478 559 478 559 532 c 128,-1,92
 559 586 559 586 566 607 c 1,93,-1
 569 614 l 1,94,-1
 483 615 l 1,95,-1
 397 616 l 1,96,-1
 395 624 l 2,97,98
 388 650 388 650 388.5 705.5 c 128,-1,99
 389 761 389 761 396 779 c 2,15,-1
168 1120 m 1,100,-1
 171 1126 l 1,101,-1
 455 1126 l 2,102,103
 739 1126 739 1126 741 1124 c 0,104,105
 746 1115 746 1115 748.5 1065.5 c 128,-1,106
 751 1016 751 1016 747 991 c 0,107,108
 746 989 746 989 745 981.5 c 128,-1,109
 744 974 744 974 744 972 c 0,110,111
 742 959 742 959 741 958 c 0,112,113
 739 956 739 956 540 956 c 0,114,115
 489 956 489 956 441 955.5 c 128,-1,116
 393 955 393 955 367 954.5 c 128,-1,117
 341 954 341 954 342 953 c 0,118,119
 349 942 349 942 350 884.5 c 128,-1,120
 351 827 351 827 345 798 c 0,121,122
 343 785 343 785 345 772 c 1,123,124
 352 742 352 742 351 685 c 128,-1,125
 350 628 350 628 342 617 c 1,126,-1
 367 614 l 1,127,-1
 370 614 l 2,128,129
 395 614 395 614 399 610 c 128,-1,130
 403 606 403 606 406 574 c 128,-1,131
 409 542 409 542 406.5 496.5 c 128,-1,132
 404 451 404 451 399 446 c 0,133,134
 397 444 397 444 283 444 c 1,135,-1
 170 445 l 1,136,-1
 167 453 l 1,137,138
 160 479 160 479 160.5 532.5 c 128,-1,139
 161 586 161 586 168 606 c 0,140,141
 170 614 170 614 168 624 c 0,142,143
 161 651 161 651 161 703.5 c 128,-1,144
 161 756 161 756 168 777 c 0,145,146
 170 785 170 785 168 794 c 0,147,148
 161 821 161 821 161 874 c 128,-1,149
 161 927 161 927 168 948 c 0,150,151
 170 956 170 956 168 965 c 0,152,153
 161 993 161 993 161 1047 c 128,-1,154
 161 1101 161 1101 168 1120 c 1,100,-1
EndSplineSet
EndChar

StartChar: six
Encoding: 54 54 25
Width: 851
Flags: W
LayerCount: 2
Fore
SplineSet
401 608 m 2,0,-1
 403 614 l 1,1,-1
 545 614 l 2,2,3
 687 614 687 614 689 612 c 0,4,5
 695 602 695 602 697 553 c 128,-1,6
 699 504 699 504 695 476 c 0,7,8
 690 448 690 448 689 446 c 1,9,-1
 696 446 l 1,10,11
 703 445 703 445 716 444.5 c 128,-1,12
 729 444 729 444 744 444 c 0,13,14
 800 444 800 444 803 441 c 0,15,16
 804 440 804 440 806 429 c 0,17,18
 819 360 819 360 805 286 c 0,19,20
 803 272 803 272 805 260 c 0,21,22
 812 230 812 230 811 173 c 128,-1,23
 810 116 810 116 803 105 c 0,24,25
 800 102 800 102 744 102 c 0,26,27
 729 102 729 102 716 101.5 c 128,-1,28
 703 101 703 101 696 100 c 1,29,-1
 689 100 l 1,30,31
 697 86 697 86 696.5 14 c 128,-1,32
 696 -58 696 -58 688 -66 c 0,33,34
 686 -68 686 -68 544 -68 c 2,35,-1
 402 -67 l 1,36,-1
 400 -59 l 2,37,38
 393 -33 393 -33 393.5 22.5 c 128,-1,39
 394 78 394 78 401 96 c 2,40,-1
 403 102 l 1,41,-1
 517 102 l 1,42,-1
 630 102 l 1,43,-1
 628 112 l 1,44,45
 621 139 621 139 621 191.5 c 128,-1,46
 621 244 621 244 628 265 c 0,47,48
 630 273 630 273 628 282 c 0,49,50
 621 309 621 309 621 362 c 128,-1,51
 621 415 621 415 628 436 c 1,52,-1
 630 444 l 1,53,-1
 516 444 l 1,54,-1
 402 445 l 1,55,-1
 400 453 l 2,56,57
 393 479 393 479 393.5 534.5 c 128,-1,58
 394 590 394 590 401 608 c 2,0,-1
230 949 m 1,59,-1
 233 956 l 1,60,-1
 318 956 l 1,61,-1
 403 956 l 1,62,-1
 406 949 l 1,63,64
 413 929 413 929 412.5 864 c 128,-1,65
 412 799 412 799 404 787 c 0,66,67
 402 785 402 785 374 785 c 0,68,69
 345 785 345 785 347 783 c 0,70,71
 354 772 354 772 355 714 c 128,-1,72
 356 656 356 656 350 627 c 0,73,74
 348 614 348 614 350 602 c 0,75,76
 357 572 357 572 356 514.5 c 128,-1,77
 355 457 355 457 347 446 c 0,78,79
 345 444 345 444 375 444 c 0,80,81
 400 444 400 444 404 439.5 c 128,-1,82
 408 435 408 435 411 403 c 0,83,84
 418 343 418 343 407 286 c 0,85,86
 405 272 405 272 407 260 c 0,87,88
 414 229 414 229 412.5 170.5 c 128,-1,89
 411 112 411 112 404 105 c 0,90,91
 402 103 402 103 316 103 c 1,92,-1
 231 104 l 1,93,-1
 229 112 l 2,94,95
 222 138 222 138 222.5 191.5 c 128,-1,96
 223 245 223 245 230 265 c 1,97,-1
 232 273 l 1,98,-1
 203 274 l 1,99,-1
 175 274 l 1,100,-1
 172 282 l 1,101,102
 165 308 165 308 165.5 362 c 128,-1,103
 166 416 166 416 173 436 c 0,104,105
 175 444 175 444 173 453 c 0,106,107
 166 480 166 480 166 532.5 c 128,-1,108
 166 585 166 585 173 606 c 0,109,110
 175 614 175 614 173 624 c 0,111,112
 160 671 160 671 168 746 c 0,113,114
 171 776 171 776 175 780.5 c 128,-1,115
 179 785 179 785 204 785 c 2,116,-1
 232 785 l 1,117,-1
 230 794 l 2,118,119
 223 822 223 822 223 876 c 128,-1,120
 223 930 223 930 230 949 c 1,59,-1
401 1120 m 2,121,-1
 403 1126 l 1,122,-1
 545 1126 l 2,123,124
 687 1126 687 1126 689 1124 c 0,125,126
 694 1115 694 1115 696.5 1065.5 c 128,-1,127
 699 1016 699 1016 695 991 c 0,128,129
 694 988 694 988 693 980.5 c 128,-1,130
 692 973 692 973 692 971 c 0,131,132
 690 960 690 960 688 958 c 128,-1,133
 686 956 686 956 544 956 c 2,134,-1
 402 957 l 1,135,-1
 400 965 l 2,136,137
 393 991 393 991 393.5 1046.5 c 128,-1,138
 394 1102 394 1102 401 1120 c 2,121,-1
EndSplineSet
EndChar

StartChar: seven
Encoding: 55 55 26
Width: 851
Flags: W
LayerCount: 2
Fore
SplineSet
168 1120 m 1,0,-1
 171 1126 l 1,1,-1
 455 1126 l 2,2,3
 739 1126 739 1126 741 1124 c 0,4,5
 742 1123 742 1123 744 1112 c 0,6,7
 757 1043 757 1043 743 969 c 0,8,9
 741 955 741 955 743 943 c 0,10,11
 750 913 750 913 749 855.5 c 128,-1,12
 748 798 748 798 741 787 c 0,13,14
 739 785 739 785 711 785 c 0,15,16
 682 785 682 785 684 783 c 0,17,18
 692 769 692 769 692 701 c 0,19,20
 692 631 692 631 684 617 c 1,21,22
 681 614 681 614 654 614 c 0,23,24
 625 614 625 614 627 612 c 0,25,26
 635 598 635 598 635 530 c 0,27,28
 635 460 635 460 627 446 c 0,29,30
 625 444 625 444 597 444 c 0,31,32
 570 444 570 444 570 441 c 1,33,34
 579 425 579 425 579 360 c 0,35,36
 579 291 579 291 570 275 c 0,37,38
 568 273 568 273 540 273 c 0,39,40
 511 273 511 273 513 271 c 0,41,42
 522 255 522 255 522 189 c 0,43,44
 522 121 522 121 513 105 c 1,45,46
 510 102 510 102 483 102 c 0,47,48
 454 102 454 102 456 100 c 0,49,50
 464 86 464 86 464 14 c 128,-1,51
 464 -58 464 -58 456 -66 c 0,52,53
 454 -68 454 -68 368 -68 c 1,54,-1
 283 -67 l 1,55,-1
 281 -59 l 1,56,57
 269 -16 269 -16 277 64 c 0,58,59
 280 94 280 94 284 98 c 128,-1,60
 288 102 288 102 313 102 c 2,61,-1
 341 102 l 1,62,-1
 338 112 l 1,63,64
 325 159 325 159 333 234 c 0,65,66
 336 264 336 264 340 268.5 c 128,-1,67
 344 273 344 273 369 273 c 2,68,-1
 398 273 l 1,69,-1
 395 282 l 1,70,71
 382 329 382 329 390 405 c 0,72,73
 393 435 393 435 397 439.5 c 128,-1,74
 401 444 401 444 426 444 c 2,75,-1
 455 444 l 1,76,-1
 452 453 l 1,77,78
 439 500 439 500 447 576 c 0,79,80
 450 606 450 606 454 610 c 128,-1,81
 458 614 458 614 483 614 c 2,82,-1
 511 614 l 1,83,-1
 509 624 l 1,84,85
 496 671 496 671 504 746 c 0,86,87
 507 776 507 776 511 780.5 c 128,-1,88
 515 785 515 785 540 785 c 2,89,-1
 568 785 l 1,90,-1
 566 794 l 2,91,92
 559 821 559 821 559 874 c 128,-1,93
 559 927 559 927 566 948 c 2,94,-1
 569 956 l 1,95,-1
 369 956 l 1,96,-1
 170 957 l 1,97,-1
 167 965 l 1,98,99
 160 991 160 991 160.5 1046.5 c 128,-1,100
 161 1102 161 1102 168 1120 c 1,0,-1
EndSplineSet
EndChar

StartChar: eight
Encoding: 56 56 27
Width: 851
Flags: W
LayerCount: 2
Fore
SplineSet
287 1120 m 2,0,-1
 289 1126 l 1,1,-1
 460 1126 l 2,2,3
 630 1126 630 1126 632 1124 c 0,4,5
 638 1114 638 1114 640 1065 c 128,-1,6
 642 1016 642 1016 638 988 c 0,7,8
 633 960 633 960 632 958 c 1,9,-1
 639 958 l 1,10,11
 646 957 646 957 659 956.5 c 128,-1,12
 672 956 672 956 687 956 c 0,13,14
 743 956 743 956 746 953 c 0,15,16
 747 952 747 952 749 941 c 0,17,18
 762 872 762 872 748 798 c 0,19,20
 746 784 746 784 748 772 c 0,21,22
 755 742 755 742 754 685 c 128,-1,23
 753 628 753 628 746 617 c 0,24,25
 743 614 743 614 716 614 c 0,26,27
 687 614 687 614 689 612 c 0,28,29
 697 598 697 598 697 530 c 0,30,31
 697 460 697 460 689 446 c 0,32,33
 687 444 687 444 716 444 c 0,34,35
 743 444 743 444 746 441 c 0,36,37
 747 440 747 440 749 429 c 0,38,39
 762 360 762 360 748 286 c 0,40,41
 746 272 746 272 748 260 c 0,42,43
 755 230 755 230 754 173 c 128,-1,44
 753 116 753 116 746 105 c 0,45,46
 743 102 743 102 687 102 c 0,47,48
 672 102 672 102 659 101.5 c 128,-1,49
 646 101 646 101 639 100 c 1,50,-1
 632 100 l 1,51,52
 640 86 640 86 639.5 14 c 128,-1,53
 639 -58 639 -58 631 -66 c 0,54,55
 629 -68 629 -68 459 -68 c 2,56,-1
 288 -67 l 1,57,-1
 286 -59 l 2,58,59
 279 -33 279 -33 279.5 21 c 128,-1,60
 280 75 280 75 287 95 c 1,61,-1
 289 102 l 1,62,-1
 232 103 l 1,63,-1
 175 104 l 1,64,-1
 172 112 l 1,65,66
 165 138 165 138 165.5 191.5 c 128,-1,67
 166 245 166 245 173 265 c 0,68,69
 175 273 175 273 173 282 c 0,70,71
 160 329 160 329 168 405 c 0,72,73
 171 435 171 435 175 439.5 c 128,-1,74
 179 444 179 444 204 444 c 2,75,-1
 232 444 l 1,76,-1
 230 453 l 2,77,78
 223 480 223 480 223 532.5 c 128,-1,79
 223 585 223 585 230 606 c 1,80,-1
 232 614 l 1,81,-1
 203 615 l 1,82,-1
 175 616 l 1,83,-1
 172 624 l 1,84,85
 165 650 165 650 165.5 703.5 c 128,-1,86
 166 757 166 757 173 777 c 0,87,88
 175 785 175 785 173 794 c 0,89,90
 166 822 166 822 166 876 c 128,-1,91
 166 930 166 930 173 949 c 1,92,-1
 176 956 l 1,93,-1
 232 956 l 1,94,-1
 289 956 l 1,95,-1
 286 965 l 1,96,97
 279 992 279 992 279.5 1046.5 c 128,-1,98
 280 1101 280 1101 287 1120 c 2,0,-1
571 948 m 2,99,-1
 574 956 l 1,100,-1
 460 956 l 2,101,102
 431 956 431 956 403.5 955.5 c 128,-1,103
 376 955 376 955 361 954.5 c 128,-1,104
 346 954 346 954 347 953 c 0,105,106
 354 942 354 942 355 884.5 c 128,-1,107
 356 827 356 827 350 798 c 0,108,109
 348 785 348 785 350 772 c 1,110,111
 357 742 357 742 356 685 c 128,-1,112
 355 628 355 628 347 617 c 0,113,114
 346 616 346 616 361 615.5 c 128,-1,115
 376 615 376 615 403.5 614.5 c 128,-1,116
 431 614 431 614 460 614 c 2,117,-1
 573 614 l 1,118,-1
 571 624 l 1,119,120
 564 651 564 651 564 703.5 c 128,-1,121
 564 756 564 756 571 777 c 0,122,123
 573 785 573 785 571 794 c 0,124,125
 564 821 564 821 564 874 c 128,-1,126
 564 927 564 927 571 948 c 2,99,-1
571 436 m 2,127,-1
 574 444 l 1,128,-1
 460 444 l 1,129,-1
 347 444 l 1,130,-1
 349 435 l 1,131,132
 355 413 355 413 355.5 363 c 128,-1,133
 356 313 356 313 350 286 c 0,134,135
 348 273 348 273 350 260 c 1,136,137
 357 230 357 230 356 173 c 128,-1,138
 355 116 355 116 347 105 c 0,139,140
 346 104 346 104 361 103.5 c 128,-1,141
 376 103 376 103 403.5 102.5 c 128,-1,142
 431 102 431 102 460 102 c 2,143,-1
 573 102 l 1,144,-1
 571 112 l 1,145,146
 564 139 564 139 564 191.5 c 128,-1,147
 564 244 564 244 571 265 c 0,148,149
 573 273 573 273 571 282 c 0,150,151
 564 309 564 309 564 362 c 128,-1,152
 564 415 564 415 571 436 c 2,127,-1
EndSplineSet
EndChar

StartChar: nine
Encoding: 57 57 28
Width: 851
Flags: W
LayerCount: 2
Fore
SplineSet
282 1120 m 2,0,-1
 284 1126 l 1,1,-1
 455 1126 l 2,2,3
 625 1126 625 1126 627 1124 c 0,4,5
 633 1114 633 1114 635 1065 c 128,-1,6
 637 1016 637 1016 633 988 c 0,7,8
 628 960 628 960 627 958 c 1,9,-1
 634 958 l 1,10,11
 641 957 641 957 654 956.5 c 128,-1,12
 667 956 667 956 682 956 c 0,13,14
 738 956 738 956 741 953 c 1,15,16
 747 943 747 943 749 894.5 c 128,-1,17
 751 846 751 846 747 818 c 0,18,19
 742 789 742 789 741 787 c 0,20,21
 739 785 739 785 768 785 c 0,22,23
 796 785 796 785 798 783 c 0,24,25
 799 782 799 782 801 771 c 0,26,27
 814 702 814 702 800 627 c 0,28,29
 798 614 798 614 800 602 c 0,30,31
 805 576 805 576 805 529 c 128,-1,32
 805 482 805 482 800 457 c 0,33,34
 798 444 798 444 800 431 c 0,35,36
 806 402 806 402 805.5 344 c 128,-1,37
 805 286 805 286 798 275 c 0,38,39
 796 273 796 273 768 273 c 2,40,-1
 740 273 l 1,41,-1
 742 264 l 1,42,43
 749 239 749 239 748.5 178 c 128,-1,44
 748 117 748 117 741 105 c 1,45,46
 738 102 738 102 682 102 c 0,47,48
 667 102 667 102 654 101.5 c 128,-1,49
 641 101 641 101 634 100 c 1,50,-1
 627 100 l 1,51,52
 635 86 635 86 634.5 14 c 128,-1,53
 634 -58 634 -58 626 -66 c 0,54,55
 624 -68 624 -68 454 -68 c 2,56,-1
 283 -67 l 1,57,-1
 281 -59 l 2,58,59
 274 -33 274 -33 274.5 22.5 c 128,-1,60
 275 78 275 78 282 96 c 2,61,-1
 284 102 l 1,62,-1
 426 102 l 1,63,-1
 568 102 l 1,64,-1
 566 112 l 1,65,66
 553 159 553 159 561 234 c 0,67,68
 564 264 564 264 568 268.5 c 128,-1,69
 572 273 572 273 597 273 c 2,70,-1
 625 273 l 1,71,-1
 623 282 l 2,72,73
 616 309 616 309 616 362 c 128,-1,74
 616 415 616 415 623 436 c 0,75,76
 625 444 625 444 623 453 c 0,77,78
 616 480 616 480 616 532.5 c 128,-1,79
 616 585 616 585 623 606 c 1,80,-1
 625 614 l 1,81,-1
 597 615 l 1,82,-1
 568 616 l 1,83,-1
 566 624 l 2,84,85
 559 650 559 650 559 703.5 c 128,-1,86
 559 757 559 757 566 777 c 0,87,88
 568 785 568 785 566 794 c 0,89,90
 559 821 559 821 559 874 c 128,-1,91
 559 927 559 927 566 948 c 2,92,-1
 569 956 l 1,93,-1
 455 956 l 2,94,95
 426 956 426 956 398.5 955.5 c 128,-1,96
 371 955 371 955 356 954.5 c 128,-1,97
 341 954 341 954 342 953 c 0,98,99
 349 942 349 942 350 884.5 c 128,-1,100
 351 827 351 827 345 798 c 0,101,102
 343 785 343 785 345 772 c 1,103,104
 352 742 352 742 351 685 c 128,-1,105
 350 628 350 628 342 617 c 0,106,107
 341 616 341 616 356 615.5 c 128,-1,108
 371 615 371 615 398.5 614.5 c 128,-1,109
 426 614 426 614 455 614 c 2,110,-1
 569 614 l 1,111,-1
 571 608 l 1,112,113
 579 588 579 588 578 521 c 128,-1,114
 577 454 577 454 569 446 c 0,115,116
 567 444 567 444 425 444 c 2,117,-1
 283 445 l 1,118,-1
 281 453 l 2,119,120
 274 479 274 479 274.5 533 c 128,-1,121
 275 587 275 587 282 607 c 1,122,-1
 284 614 l 1,123,-1
 227 615 l 1,124,-1
 170 616 l 1,125,-1
 167 624 l 1,126,127
 160 650 160 650 160.5 703.5 c 128,-1,128
 161 757 161 757 168 777 c 0,129,130
 170 785 170 785 168 794 c 0,131,132
 161 822 161 822 161 876 c 128,-1,133
 161 930 161 930 168 949 c 1,134,-1
 171 956 l 1,135,-1
 227 956 l 1,136,-1
 284 956 l 1,137,-1
 281 965 l 1,138,139
 274 992 274 992 274.5 1046.5 c 128,-1,140
 275 1101 275 1101 282 1120 c 2,0,-1
EndSplineSet
EndChar

StartChar: colon
Encoding: 58 58 29
Width: 851
Flags: W
LayerCount: 2
Fore
SplineSet
339 267 m 2,0,-1
 341 273 l 1,1,-1
 455 273 l 2,2,3
 568 273 568 273 570 271 c 0,4,5
 575 262 575 262 577.5 212.5 c 128,-1,6
 580 163 580 163 576 138 c 0,7,8
 575 135 575 135 574 127.5 c 128,-1,9
 573 120 573 120 573 118 c 0,10,11
 571 102 571 102 573 90 c 0,12,13
 580 59 580 59 578.5 0.5 c 128,-1,14
 577 -58 577 -58 569 -66 c 0,15,16
 567 -68 567 -68 454 -68 c 2,17,-1
 340 -67 l 1,18,-1
 338 -59 l 2,19,20
 331 -34 331 -34 331 20 c 128,-1,21
 331 74 331 74 338 94 c 0,22,23
 341 104 341 104 339 112 c 0,24,25
 332 140 332 140 332 194 c 128,-1,26
 332 248 332 248 339 267 c 2,0,-1
339 949 m 1,27,-1
 341 956 l 1,28,-1
 455 956 l 2,29,30
 567 956 567 956 570 953 c 1,31,32
 575 944 575 944 577.5 894.5 c 128,-1,33
 580 845 580 845 576 820 c 0,34,35
 575 817 575 817 574 810 c 128,-1,36
 573 803 573 803 573 801 c 0,37,38
 571 785 571 785 573 772 c 0,39,40
 580 741 580 741 578.5 683 c 128,-1,41
 577 625 577 625 569 617 c 0,42,43
 567 615 567 615 454 615 c 2,44,-1
 340 616 l 1,45,-1
 338 624 l 2,46,47
 331 650 331 650 331 703.5 c 128,-1,48
 331 757 331 757 338 777 c 1,49,50
 340 787 340 787 339 794 c 0,51,52
 332 822 332 822 332 876 c 128,-1,53
 332 930 332 930 339 949 c 1,27,-1
EndSplineSet
EndChar

StartChar: semicolon
Encoding: 59 59 30
Width: 851
Flags: W
LayerCount: 2
Fore
SplineSet
396 267 m 2,0,-1
 398 273 l 1,1,-1
 512 273 l 2,2,3
 625 273 625 273 627 271 c 0,4,5
 632 262 632 262 634.5 212.5 c 128,-1,6
 637 163 637 163 633 138 c 0,7,8
 632 135 632 135 631 127.5 c 128,-1,9
 630 120 630 120 630 118 c 0,10,11
 628 102 628 102 630 90 c 0,12,13
 637 60 637 60 636 2.5 c 128,-1,14
 635 -55 635 -55 627 -66 c 0,15,16
 625 -68 625 -68 569 -68 c 0,17,18
 560 -68 560 -68 551 -68 c 128,-1,19
 542 -68 542 -68 535.5 -68.5 c 128,-1,20
 529 -69 529 -69 523.5 -69.5 c 128,-1,21
 518 -70 518 -70 516 -70 c 2,22,-1
 513 -71 l 1,23,24
 522 -87 522 -87 522 -152 c 0,25,26
 522 -221 522 -221 513 -237 c 0,27,28
 511 -239 511 -239 455 -239 c 0,29,30
 446 -239 446 -239 437.5 -239 c 128,-1,31
 429 -239 429 -239 422 -239.5 c 128,-1,32
 415 -240 415 -240 409.5 -240 c 128,-1,33
 404 -240 404 -240 402 -240 c 2,34,-1
 399 -241 l 1,35,36
 407 -254 407 -254 407 -326.5 c 128,-1,37
 407 -399 407 -399 399 -407 c 0,38,39
 397 -409 397 -409 283 -409 c 1,40,-1
 170 -408 l 1,41,-1
 167 -400 l 1,42,43
 160 -374 160 -374 160.5 -318.5 c 128,-1,44
 161 -263 161 -263 168 -245 c 1,45,-1
 171 -239 l 1,46,-1
 227 -239 l 1,47,-1
 284 -239 l 1,48,-1
 281 -230 l 1,49,50
 274 -203 274 -203 274.5 -148.5 c 128,-1,51
 275 -94 275 -94 282 -75 c 1,52,-1
 284 -68 l 1,53,-1
 341 -68 l 1,54,-1
 398 -68 l 1,55,-1
 395 -59 l 1,56,57
 388 -32 388 -32 388 20.5 c 128,-1,58
 388 73 388 73 395 94 c 0,59,60
 397 102 397 102 395 112 c 0,61,62
 388 139 388 139 388.5 193.5 c 128,-1,63
 389 248 389 248 396 267 c 2,0,-1
396 949 m 1,64,-1
 398 956 l 1,65,-1
 512 956 l 2,66,67
 624 956 624 956 627 953 c 1,68,69
 632 944 632 944 634.5 894.5 c 128,-1,70
 637 845 637 845 633 820 c 0,71,72
 632 817 632 817 631 810 c 128,-1,73
 630 803 630 803 630 801 c 0,74,75
 628 785 628 785 630 772 c 0,76,77
 637 741 637 741 635.5 683 c 128,-1,78
 634 625 634 625 626 617 c 0,79,80
 624 615 624 615 511 615 c 2,81,-1
 397 616 l 1,82,-1
 395 624 l 2,83,84
 388 650 388 650 388 703.5 c 128,-1,85
 388 757 388 757 395 777 c 0,86,87
 397 785 397 785 395 794 c 0,88,89
 388 821 388 821 388.5 875.5 c 128,-1,90
 389 930 389 930 396 949 c 1,64,-1
EndSplineSet
EndChar

StartChar: less
Encoding: 60 60 31
Width: 851
Flags: W
LayerCount: 2
Fore
SplineSet
566 1120 m 1,0,-1
 569 1126 l 1,1,-1
 654 1126 l 2,2,3
 739 1126 739 1126 741 1124 c 0,4,5
 747 1114 747 1114 749 1065 c 128,-1,6
 751 1016 751 1016 747 988 c 0,7,8
 742 960 742 960 741 958 c 0,9,10
 739 956 739 956 682 956 c 0,11,12
 676 956 676 956 669.5 956 c 128,-1,13
 663 956 663 956 657.5 955.5 c 128,-1,14
 652 955 652 955 647 955 c 128,-1,15
 642 955 642 955 638.5 954.5 c 128,-1,16
 635 954 635 954 632 954 c 128,-1,17
 629 954 629 954 628 954 c 2,18,-1
 627 953 l 1,19,20
 635 939 635 939 635 872 c 0,21,22
 635 801 635 801 627 787 c 0,23,24
 625 785 625 785 569 785 c 0,25,26
 560 785 560 785 551.5 785 c 128,-1,27
 543 785 543 785 536 784.5 c 128,-1,28
 529 784 529 784 523.5 784 c 128,-1,29
 518 784 518 784 516 784 c 2,30,-1
 513 783 l 1,31,32
 522 767 522 767 522 701 c 0,33,34
 522 633 522 633 513 617 c 1,35,36
 510 614 510 614 455 614 c 0,37,38
 446 614 446 614 437.5 614 c 128,-1,39
 429 614 429 614 422 613.5 c 128,-1,40
 415 613 415 613 409.5 613 c 128,-1,41
 404 613 404 613 402 612 c 1,42,-1
 399 612 l 1,43,44
 408 596 408 596 408 530 c 0,45,46
 408 462 408 462 399 446 c 1,47,-1
 406 446 l 1,48,49
 413 445 413 445 426.5 444.5 c 128,-1,50
 440 444 440 444 455 444 c 0,51,52
 510 444 510 444 513 441 c 1,53,54
 519 431 519 431 521 382.5 c 128,-1,55
 523 334 523 334 519 306 c 0,56,57
 514 277 514 277 513 275 c 1,58,-1
 520 274 l 2,59,60
 527 274 527 274 540.5 273.5 c 128,-1,61
 554 273 554 273 569 273 c 0,62,63
 625 273 625 273 627 271 c 0,64,65
 633 261 633 261 635 212 c 128,-1,66
 637 163 637 163 633 135 c 0,67,68
 628 107 628 107 627 105 c 1,69,-1
 630 104 l 2,70,71
 632 104 632 104 637 103.5 c 128,-1,72
 642 103 642 103 649 102.5 c 128,-1,73
 656 102 656 102 664.5 102 c 128,-1,74
 673 102 673 102 682 102 c 0,75,76
 739 102 739 102 741 100 c 0,77,78
 747 90 747 90 749 41 c 128,-1,79
 751 -8 751 -8 747 -36 c 0,80,81
 742 -64 742 -64 740 -66 c 128,-1,82
 738 -68 738 -68 653 -68 c 2,83,-1
 568 -67 l 1,84,-1
 566 -59 l 2,85,86
 559 -34 559 -34 559 20.5 c 128,-1,87
 559 75 559 75 566 95 c 1,88,-1
 569 102 l 1,89,-1
 511 103 l 1,90,-1
 454 104 l 1,91,-1
 452 112 l 2,92,93
 445 138 445 138 445 191.5 c 128,-1,94
 445 245 445 245 452 265 c 2,95,-1
 455 273 l 1,96,-1
 398 274 l 1,97,-1
 340 274 l 1,98,-1
 338 282 l 2,99,100
 331 308 331 308 331 362 c 128,-1,101
 331 416 331 416 338 436 c 2,102,-1
 341 444 l 1,103,-1
 284 444 l 1,104,-1
 226 445 l 1,105,-1
 224 453 l 2,106,107
 217 479 217 479 217.5 534.5 c 128,-1,108
 218 590 218 590 225 608 c 1,109,-1
 228 614 l 1,110,-1
 284 614 l 1,111,-1
 341 614 l 1,112,-1
 338 624 l 1,113,114
 331 651 331 651 331.5 705.5 c 128,-1,115
 332 760 332 760 339 779 c 2,116,-1
 341 785 l 1,117,-1
 398 785 l 1,118,-1
 455 785 l 1,119,-1
 452 794 l 1,120,121
 445 821 445 821 445.5 875.5 c 128,-1,122
 446 930 446 930 453 949 c 1,123,-1
 455 956 l 1,124,-1
 512 956 l 1,125,-1
 568 956 l 1,126,-1
 566 965 l 2,127,128
 559 993 559 993 559 1047 c 128,-1,129
 559 1101 559 1101 566 1120 c 1,0,-1
EndSplineSet
EndChar

StartChar: equal
Encoding: 61 61 32
Width: 851
Flags: W
LayerCount: 2
Fore
SplineSet
225 437 m 2,0,-1
 228 444 l 1,1,-1
 483 444 l 2,2,3
 738 444 738 444 741 441 c 1,4,5
 746 432 746 432 748.5 382.5 c 128,-1,6
 751 333 751 333 747 308 c 0,7,8
 746 305 746 305 745 298 c 128,-1,9
 744 291 744 291 744 289 c 0,10,11
 742 277 742 277 740 275 c 0,12,13
 739 274 739 274 482 274 c 2,14,-1
 226 274 l 1,15,-1
 224 282 l 2,16,17
 217 308 217 308 217.5 363.5 c 128,-1,18
 218 419 218 419 225 437 c 2,0,-1
225 779 m 1,19,-1
 228 785 l 1,20,-1
 483 785 l 2,21,22
 739 785 739 785 741 783 c 0,23,24
 746 774 746 774 748.5 724.5 c 128,-1,25
 751 675 751 675 747 650 c 0,26,27
 746 647 746 647 745 639.5 c 128,-1,28
 744 632 744 632 744 630 c 0,29,30
 742 619 742 619 740 617 c 128,-1,31
 738 615 738 615 482 615 c 2,32,-1
 226 616 l 1,33,-1
 224 624 l 2,34,35
 217 650 217 650 217.5 705.5 c 128,-1,36
 218 761 218 761 225 779 c 1,19,-1
EndSplineSet
EndChar

StartChar: greater
Encoding: 62 62 33
Width: 851
Flags: W
LayerCount: 2
Fore
SplineSet
168 1120 m 1,0,-1
 171 1126 l 1,1,-1
 256 1126 l 2,2,3
 340 1126 340 1126 342 1124 c 0,4,5
 348 1114 348 1114 350 1065 c 128,-1,6
 352 1016 352 1016 348 988 c 0,7,8
 343 960 343 960 342 958 c 1,9,-1
 349 958 l 1,10,11
 356 957 356 957 369.5 956.5 c 128,-1,12
 383 956 383 956 398 956 c 0,13,14
 453 956 453 956 456 953 c 1,15,16
 462 943 462 943 464 894.5 c 128,-1,17
 466 846 466 846 462 818 c 0,18,19
 457 789 457 789 456 787 c 1,20,-1
 463 786 l 2,21,22
 470 786 470 786 483.5 785.5 c 128,-1,23
 497 785 497 785 512 785 c 0,24,25
 568 785 568 785 570 783 c 0,26,27
 576 773 576 773 578 724 c 128,-1,28
 580 675 580 675 576 647 c 0,29,30
 571 619 571 619 570 617 c 1,31,-1
 572 616 l 1,32,33
 575 616 575 616 580 615.5 c 128,-1,34
 585 615 585 615 592 614.5 c 128,-1,35
 599 614 599 614 607.5 614 c 128,-1,36
 616 614 616 614 625 614 c 0,37,38
 682 614 682 614 684 612 c 0,39,40
 690 602 690 602 692 553 c 128,-1,41
 694 504 694 504 690 476 c 0,42,43
 685 448 685 448 684 446 c 0,44,45
 682 444 682 444 625 444 c 0,46,47
 619 444 619 444 612.5 444 c 128,-1,48
 606 444 606 444 600.5 443.5 c 128,-1,49
 595 443 595 443 590 443 c 128,-1,50
 585 443 585 443 581.5 442.5 c 128,-1,51
 578 442 578 442 575 442 c 128,-1,52
 572 442 572 442 571 442 c 2,53,-1
 570 441 l 1,54,55
 579 425 579 425 579 360 c 0,56,57
 579 291 579 291 570 275 c 0,58,59
 568 273 568 273 512 273 c 0,60,61
 503 273 503 273 494.5 273 c 128,-1,62
 486 273 486 273 479 272.5 c 128,-1,63
 472 272 472 272 466.5 272 c 128,-1,64
 461 272 461 272 458 272 c 1,65,-1
 456 271 l 1,66,67
 465 255 465 255 465 189 c 0,68,69
 465 121 465 121 456 105 c 1,70,71
 453 102 453 102 398 102 c 0,72,73
 389 102 389 102 380.5 102 c 128,-1,74
 372 102 372 102 365 101.5 c 128,-1,75
 358 101 358 101 352.5 101 c 128,-1,76
 347 101 347 101 344 100 c 1,77,-1
 342 100 l 1,78,79
 350 86 350 86 350 14 c 128,-1,80
 350 -58 350 -58 342 -66 c 0,81,82
 340 -68 340 -68 255 -68 c 2,83,-1
 170 -67 l 1,84,-1
 167 -59 l 1,85,86
 160 -33 160 -33 160.5 22.5 c 128,-1,87
 161 78 161 78 168 96 c 1,88,-1
 171 102 l 1,89,-1
 227 102 l 1,90,-1
 284 102 l 1,91,-1
 281 112 l 1,92,93
 274 139 274 139 274.5 193.5 c 128,-1,94
 275 248 275 248 282 267 c 2,95,-1
 284 273 l 1,96,-1
 341 273 l 1,97,-1
 398 273 l 1,98,-1
 395 282 l 1,99,100
 388 309 388 309 388.5 363.5 c 128,-1,101
 389 418 389 418 396 437 c 1,102,-1
 398 444 l 1,103,-1
 455 444 l 1,104,-1
 511 444 l 1,105,-1
 509 453 l 2,106,107
 502 480 502 480 502 533 c 128,-1,108
 502 586 502 586 509 607 c 1,109,-1
 512 614 l 1,110,-1
 454 615 l 1,111,-1
 397 616 l 1,112,-1
 395 624 l 2,113,114
 388 650 388 650 388 703.5 c 128,-1,115
 388 757 388 757 395 777 c 2,116,-1
 398 785 l 1,117,-1
 341 786 l 1,118,-1
 283 786 l 1,119,-1
 281 794 l 2,120,121
 274 820 274 820 274.5 874 c 128,-1,122
 275 928 275 928 282 948 c 1,123,-1
 284 956 l 1,124,-1
 227 956 l 1,125,-1
 170 957 l 1,126,-1
 167 965 l 1,127,128
 160 991 160 991 160.5 1046.5 c 128,-1,129
 161 1102 161 1102 168 1120 c 1,0,-1
EndSplineSet
EndChar

StartChar: question
Encoding: 63 63 34
Width: 851
Flags: W
LayerCount: 2
Fore
SplineSet
339 96 m 2,0,-1
 341 102 l 1,1,-1
 427 102 l 2,2,3
 511 102 511 102 513 100 c 0,4,5
 518 91 518 91 520.5 41.5 c 128,-1,6
 523 -8 523 -8 519 -33 c 0,7,8
 518 -36 518 -36 517 -43.5 c 128,-1,9
 516 -51 516 -51 516 -53 c 0,10,11
 514 -64 514 -64 512 -66 c 128,-1,12
 510 -68 510 -68 425 -68 c 2,13,-1
 340 -67 l 1,14,-1
 338 -59 l 2,15,16
 331 -33 331 -33 331.5 22.5 c 128,-1,17
 332 78 332 78 339 96 c 2,0,-1
282 1120 m 2,18,-1
 284 1126 l 1,19,-1
 483 1126 l 2,20,21
 682 1126 682 1126 684 1124 c 0,22,23
 690 1114 690 1114 692 1065 c 128,-1,24
 694 1016 694 1016 690 988 c 0,25,26
 685 960 685 960 684 958 c 0,27,28
 682 956 682 956 711 956 c 0,29,30
 738 956 738 956 741 953 c 0,31,32
 742 952 742 952 744 941 c 0,33,34
 757 872 757 872 743 798 c 0,35,36
 741 784 741 784 743 772 c 0,37,38
 750 742 750 742 749 685 c 128,-1,39
 748 628 748 628 741 617 c 0,40,41
 738 614 738 614 682 614 c 0,42,43
 667 614 667 614 654 613.5 c 128,-1,44
 641 613 641 613 634 612 c 1,45,-1
 627 612 l 1,46,47
 635 598 635 598 635 530 c 0,48,49
 635 460 635 460 627 446 c 0,50,51
 625 444 625 444 569 444 c 0,52,53
 560 444 560 444 551 444 c 128,-1,54
 542 444 542 444 535.5 443.5 c 128,-1,55
 529 443 529 443 523.5 442.5 c 128,-1,56
 518 442 518 442 516 442 c 2,57,-1
 513 441 l 1,58,59
 521 428 521 428 521 355.5 c 128,-1,60
 521 283 521 283 513 275 c 0,61,62
 512 274 512 274 425 274 c 2,63,-1
 340 274 l 1,64,-1
 338 282 l 2,65,66
 331 308 331 308 331.5 363.5 c 128,-1,67
 332 419 332 419 339 437 c 1,68,-1
 341 444 l 1,69,-1
 398 444 l 1,70,-1
 455 444 l 1,71,-1
 452 453 l 1,72,73
 445 480 445 480 445.5 534.5 c 128,-1,74
 446 589 446 589 453 608 c 2,75,-1
 455 614 l 1,76,-1
 512 614 l 1,77,-1
 568 614 l 1,78,-1
 566 624 l 1,79,80
 559 651 559 651 559 703.5 c 128,-1,81
 559 756 559 756 566 777 c 0,82,83
 568 785 568 785 566 794 c 0,84,85
 559 821 559 821 559 874 c 128,-1,86
 559 927 559 927 566 948 c 2,87,-1
 569 956 l 1,88,-1
 455 956 l 2,89,90
 426 956 426 956 398.5 955.5 c 128,-1,91
 371 955 371 955 356 954.5 c 128,-1,92
 341 954 341 954 342 953 c 0,93,94
 350 940 350 940 350 867.5 c 128,-1,95
 350 795 350 795 342 787 c 0,96,97
 341 786 341 786 255 786 c 2,98,-1
 170 786 l 1,99,-1
 167 794 l 1,100,101
 160 820 160 820 160.5 875.5 c 128,-1,102
 161 931 161 931 168 949 c 2,103,-1
 171 956 l 1,104,-1
 227 956 l 1,105,-1
 284 956 l 1,106,-1
 281 965 l 1,107,108
 274 992 274 992 274.5 1046.5 c 128,-1,109
 275 1101 275 1101 282 1120 c 2,18,-1
EndSplineSet
EndChar

StartChar: at
Encoding: 64 64 35
Width: 851
Flags: W
LayerCount: 2
Fore
SplineSet
288 1291 m 2,0,-1
 290 1297 l 1,1,-1
 489 1297 l 2,2,3
 688 1297 688 1297 690 1295 c 0,4,5
 696 1285 696 1285 698 1236 c 128,-1,6
 700 1187 700 1187 696 1159 c 0,7,8
 691 1131 691 1131 690 1129 c 1,9,-1
 714 1126 l 1,10,-1
 717 1126 l 2,11,12
 745 1126 745 1126 747 1124 c 0,13,14
 753 1114 753 1114 755 1065 c 128,-1,15
 757 1016 757 1016 753 988 c 0,16,17
 748 960 748 960 747 958 c 0,18,19
 745 956 745 956 774 956 c 0,20,21
 801 956 801 956 804 953 c 0,22,23
 805 952 805 952 807 941 c 0,24,25
 820 872 820 872 806 798 c 0,26,27
 804 784 804 784 806 772 c 0,28,29
 811 746 811 746 811 699 c 128,-1,30
 811 652 811 652 806 627 c 0,31,32
 804 614 804 614 806 602 c 0,33,34
 812 573 812 573 811.5 515 c 128,-1,35
 811 457 811 457 804 446 c 0,36,37
 802 444 802 444 774 444 c 2,38,-1
 746 444 l 1,39,-1
 748 435 l 1,40,41
 755 409 755 409 754.5 346 c 128,-1,42
 754 283 754 283 746 275 c 0,43,44
 745 274 745 274 602 274 c 2,45,-1
 460 274 l 1,46,-1
 458 282 l 2,47,48
 451 308 451 308 451 362 c 128,-1,49
 451 416 451 416 458 436 c 1,50,-1
 461 443 l 1,51,-1
 432 444 l 1,52,-1
 403 445 l 1,53,-1
 401 453 l 2,54,55
 394 478 394 478 394 532 c 128,-1,56
 394 586 394 586 401 606 c 0,57,58
 403 614 403 614 401 624 c 0,59,60
 394 651 394 651 394 703.5 c 128,-1,61
 394 756 394 756 401 777 c 0,62,63
 403 785 403 785 401 794 c 0,64,65
 394 821 394 821 394.5 875.5 c 128,-1,66
 395 930 395 930 402 949 c 1,67,-1
 404 956 l 1,68,-1
 489 956 l 1,69,-1
 574 956 l 1,70,-1
 572 965 l 2,71,72
 565 992 565 992 565 1044.5 c 128,-1,73
 565 1097 565 1097 572 1118 c 2,74,-1
 575 1126 l 1,75,-1
 461 1126 l 2,76,77
 448 1126 448 1126 435 1126 c 128,-1,78
 422 1126 422 1126 411 1126 c 128,-1,79
 400 1126 400 1126 390 1125.5 c 128,-1,80
 380 1125 380 1125 372.5 1125 c 128,-1,81
 365 1125 365 1125 359 1125 c 128,-1,82
 353 1125 353 1125 350 1124 c 1,83,-1
 348 1124 l 1,84,85
 357 1108 357 1108 357 1042 c 0,86,87
 357 974 357 974 348 958 c 0,88,89
 346 956 346 956 319 956 c 128,-1,90
 292 956 292 956 292 953 c 1,91,92
 299 942 299 942 299.5 884.5 c 128,-1,93
 300 827 300 827 294 798 c 0,94,95
 292 785 292 785 294 772 c 0,96,97
 299 746 299 746 299 699 c 128,-1,98
 299 652 299 652 294 627 c 0,99,100
 292 614 292 614 294 602 c 0,101,102
 300 573 300 573 299.5 515.5 c 128,-1,103
 299 458 299 458 292 447 c 0,104,105
 291 446 291 446 291.5 442.5 c 128,-1,106
 292 439 292 439 293 435 c 0,107,108
 300 410 300 410 299.5 348.5 c 128,-1,109
 299 287 299 287 292 275 c 0,110,111
 290 273 290 273 319 273 c 0,112,113
 340 273 340 273 344 272 c 128,-1,114
 348 271 348 271 350 266 c 0,115,116
 355 253 355 253 356.5 207.5 c 128,-1,117
 358 162 358 162 354 135 c 128,-1,118
 350 108 350 108 348 105 c 0,119,120
 347 104 347 104 373 103.5 c 128,-1,121
 399 103 399 103 447 102.5 c 128,-1,122
 495 102 495 102 546 102 c 0,123,124
 745 102 745 102 747 100 c 0,125,126
 752 91 752 91 754.5 41.5 c 128,-1,127
 757 -8 757 -8 753 -33 c 0,128,129
 752 -36 752 -36 751 -43.5 c 128,-1,130
 750 -51 750 -51 750 -53 c 0,131,132
 748 -64 748 -64 746 -66 c 128,-1,133
 744 -68 744 -68 517 -68 c 2,134,-1
 289 -67 l 1,135,-1
 287 -59 l 2,136,137
 280 -33 280 -33 280.5 21 c 128,-1,138
 281 75 281 75 288 95 c 1,139,-1
 290 102 l 1,140,-1
 233 103 l 1,141,-1
 176 104 l 1,142,-1
 173 112 l 1,143,144
 166 138 166 138 166.5 191.5 c 128,-1,145
 167 245 167 245 174 265 c 1,146,-1
 176 273 l 1,147,-1
 148 274 l 1,148,-1
 119 274 l 1,149,-1
 117 282 l 2,150,151
 110 308 110 308 110 362 c 128,-1,152
 110 416 110 416 117 436 c 0,153,154
 119 444 119 444 117 453 c 0,155,156
 110 480 110 480 110 532.5 c 128,-1,157
 110 585 110 585 117 606 c 0,158,159
 119 614 119 614 117 624 c 0,160,161
 110 651 110 651 110 703.5 c 128,-1,162
 110 756 110 756 117 777 c 0,163,164
 119 785 119 785 117 794 c 0,165,166
 104 841 104 841 112 917 c 0,167,168
 115 947 115 947 119 951.5 c 128,-1,169
 123 956 123 956 148 956 c 2,170,-1
 176 956 l 1,171,-1
 174 965 l 2,172,173
 167 993 167 993 167 1047 c 128,-1,174
 167 1101 167 1101 174 1120 c 1,175,-1
 177 1126 l 1,176,-1
 233 1126 l 1,177,-1
 290 1126 l 1,178,-1
 287 1136 l 1,179,180
 280 1163 280 1163 280.5 1217.5 c 128,-1,181
 281 1272 281 1272 288 1291 c 2,0,-1
629 777 m 1,182,-1
 631 785 l 1,183,-1
 575 785 l 2,184,185
 566 785 566 785 557.5 785 c 128,-1,186
 549 785 549 785 542 784.5 c 128,-1,187
 535 784 535 784 529.5 784 c 128,-1,188
 524 784 524 784 522 784 c 2,189,-1
 519 783 l 1,190,191
 526 772 526 772 527 714 c 128,-1,192
 528 656 528 656 522 627 c 0,193,194
 520 614 520 614 522 602 c 0,195,196
 529 572 529 572 528 514.5 c 128,-1,197
 527 457 527 457 519 446 c 1,198,-1
 526 446 l 1,199,200
 533 445 533 445 546 444.5 c 128,-1,201
 559 444 559 444 574 444 c 2,202,-1
 631 444 l 1,203,-1
 629 453 l 2,204,205
 622 480 622 480 622 532.5 c 128,-1,206
 622 585 622 585 629 606 c 0,207,208
 631 614 631 614 629 624 c 0,209,210
 622 651 622 651 622 703.5 c 128,-1,211
 622 756 622 756 629 777 c 1,182,-1
EndSplineSet
EndChar

StartChar: A
Encoding: 65 65 36
Width: 851
Flags: W
LayerCount: 2
Fore
SplineSet
345 1120 m 2,0,-1
 347 1126 l 1,1,-1
 461 1126 l 2,2,3
 574 1126 574 1126 576 1124 c 0,4,5
 582 1114 582 1114 584 1065 c 128,-1,6
 586 1016 586 1016 582 988 c 0,7,8
 577 960 577 960 576 958 c 0,9,10
 574 956 574 956 603 956 c 0,11,12
 630 956 630 956 633 953 c 1,13,14
 639 943 639 943 641 894.5 c 128,-1,15
 643 846 643 846 639 818 c 0,16,17
 634 789 634 789 633 787 c 0,18,19
 631 785 631 785 660 785 c 0,20,21
 688 785 688 785 690 783 c 0,22,23
 696 773 696 773 698 724 c 128,-1,24
 700 675 700 675 696 647 c 0,25,26
 691 619 691 619 690 617 c 1,27,-1
 714 614 l 1,28,-1
 717 614 l 2,29,30
 745 614 745 614 747 612 c 0,31,32
 748 611 748 611 750 600 c 0,33,34
 763 531 763 531 749 457 c 0,35,36
 747 443 747 443 749 431 c 0,37,38
 756 401 756 401 755 343.5 c 128,-1,39
 754 286 754 286 747 275 c 0,40,41
 745 273 745 273 774 273 c 0,42,43
 802 273 802 273 804 271 c 0,44,45
 805 270 805 270 807 259 c 0,46,47
 820 189 820 189 806 115 c 0,48,49
 804 102 804 102 806 90 c 0,50,51
 813 59 813 59 811.5 0 c 128,-1,52
 810 -59 810 -59 803 -66 c 0,53,54
 801 -68 801 -68 716 -68 c 2,55,-1
 631 -67 l 1,56,-1
 629 -59 l 2,57,58
 622 -34 622 -34 622 20 c 128,-1,59
 622 74 622 74 629 94 c 0,60,61
 631 102 631 102 629 112 c 0,62,63
 622 139 622 139 622 191.5 c 128,-1,64
 622 244 622 244 629 265 c 1,65,-1
 631 273 l 1,66,-1
 461 273 l 2,67,68
 441 273 441 273 422 273 c 128,-1,69
 403 273 403 273 386.5 273 c 128,-1,70
 370 273 370 273 355 272.5 c 128,-1,71
 340 272 340 272 328.5 272 c 128,-1,72
 317 272 317 272 308.5 272 c 128,-1,73
 300 272 300 272 296 272 c 2,74,-1
 292 271 l 1,75,76
 299 260 299 260 299.5 202 c 128,-1,77
 300 144 300 144 294 115 c 0,78,79
 292 102 292 102 294 90 c 0,80,81
 301 59 301 59 299.5 0 c 128,-1,82
 298 -59 298 -59 291 -66 c 0,83,84
 289 -68 289 -68 204 -68 c 2,85,-1
 119 -67 l 1,86,-1
 117 -59 l 2,87,88
 110 -34 110 -34 110 20 c 128,-1,89
 110 74 110 74 117 94 c 0,90,91
 119 102 119 102 117 112 c 0,92,93
 104 159 104 159 112 234 c 0,94,95
 115 264 115 264 119 268.5 c 128,-1,96
 123 273 123 273 148 273 c 2,97,-1
 176 273 l 1,98,-1
 174 282 l 2,99,100
 167 309 167 309 167 362 c 128,-1,101
 167 415 167 415 174 436 c 0,102,103
 176 444 176 444 174 453 c 0,104,105
 161 500 161 500 169 576 c 0,106,107
 172 606 172 606 176 610 c 128,-1,108
 180 614 180 614 205 614 c 2,109,-1
 233 614 l 1,110,-1
 231 624 l 1,111,112
 218 671 218 671 226 746 c 0,113,114
 229 776 229 776 233 780.5 c 128,-1,115
 237 785 237 785 262 785 c 2,116,-1
 290 785 l 1,117,-1
 287 794 l 1,118,119
 275 838 275 838 283 917 c 0,120,121
 286 947 286 947 290 951.5 c 128,-1,122
 294 956 294 956 319 956 c 2,123,-1
 347 956 l 1,124,-1
 344 965 l 1,125,126
 337 992 337 992 337.5 1046.5 c 128,-1,127
 338 1101 338 1101 345 1120 c 2,0,-1
515 777 m 2,128,-1
 518 785 l 1,129,-1
 461 785 l 2,130,131
 452 785 452 785 443.5 785 c 128,-1,132
 435 785 435 785 428 784.5 c 128,-1,133
 421 784 421 784 415.5 784 c 128,-1,134
 410 784 410 784 408 784 c 2,135,-1
 405 783 l 1,136,137
 414 767 414 767 414 701 c 0,138,139
 414 633 414 633 405 617 c 1,140,141
 402 614 402 614 375 614 c 0,142,143
 346 614 346 614 348 612 c 0,144,145
 357 596 357 596 357 530 c 0,146,147
 357 462 357 462 348 446 c 1,148,-1
 362 446 l 1,149,150
 377 445 377 445 403.5 444.5 c 128,-1,151
 430 444 430 444 461 444 c 2,152,-1
 574 444 l 1,153,-1
 572 453 l 2,154,155
 565 480 565 480 565 532.5 c 128,-1,156
 565 585 565 585 572 606 c 2,157,-1
 575 614 l 1,158,-1
 546 615 l 1,159,-1
 517 616 l 1,160,-1
 515 624 l 2,161,162
 508 650 508 650 508 703 c 128,-1,163
 508 756 508 756 515 777 c 2,128,-1
EndSplineSet
EndChar

StartChar: B
Encoding: 66 66 37
Width: 851
Flags: W
LayerCount: 2
Fore
SplineSet
111 1120 m 1,0,-1
 114 1126 l 1,1,-1
 427 1126 l 2,2,3
 739 1126 739 1126 741 1124 c 0,4,5
 747 1114 747 1114 749 1065 c 128,-1,6
 751 1016 751 1016 747 988 c 0,7,8
 742 960 742 960 741 958 c 0,9,10
 739 956 739 956 768 956 c 0,11,12
 795 956 795 956 798 953 c 0,13,14
 799 952 799 952 801 941 c 0,15,16
 814 872 814 872 800 798 c 0,17,18
 798 784 798 784 800 772 c 0,19,20
 807 742 807 742 806 685 c 128,-1,21
 805 628 805 628 798 617 c 0,22,23
 795 614 795 614 739 614 c 0,24,25
 724 614 724 614 711 613.5 c 128,-1,26
 698 613 698 613 691 612 c 1,27,-1
 684 612 l 1,28,29
 692 598 692 598 692 530 c 0,30,31
 692 460 692 460 684 446 c 1,32,-1
 691 446 l 1,33,34
 698 445 698 445 711 444.5 c 128,-1,35
 724 444 724 444 739 444 c 0,36,37
 795 444 795 444 798 441 c 1,38,39
 803 432 803 432 805.5 382.5 c 128,-1,40
 808 333 808 333 804 308 c 0,41,42
 804 307 804 307 802.5 299.5 c 128,-1,43
 801 292 801 292 800 289 c 0,44,45
 798 273 798 273 800 260 c 1,46,47
 807 230 807 230 806 173 c 128,-1,48
 805 116 805 116 798 105 c 0,49,50
 795 102 795 102 768 102 c 0,51,52
 739 102 739 102 741 100 c 0,53,54
 749 86 749 86 748.5 14 c 128,-1,55
 748 -58 748 -58 740 -66 c 0,56,57
 738 -68 738 -68 425 -68 c 1,58,-1
 113 -67 l 1,59,-1
 111 -59 l 2,60,61
 104 -34 104 -34 104 20 c 128,-1,62
 104 74 104 74 111 94 c 0,63,64
 113 102 113 102 111 112 c 0,65,66
 104 139 104 139 104 191.5 c 128,-1,67
 104 244 104 244 111 265 c 0,68,69
 113 273 113 273 111 282 c 0,70,71
 104 309 104 309 104 362 c 128,-1,72
 104 415 104 415 111 436 c 0,73,74
 113 444 113 444 111 453 c 0,75,76
 104 480 104 480 104 532.5 c 128,-1,77
 104 585 104 585 111 606 c 0,78,79
 113 614 113 614 111 624 c 0,80,81
 104 651 104 651 104 703.5 c 128,-1,82
 104 756 104 756 111 777 c 0,83,84
 113 785 113 785 111 794 c 0,85,86
 104 821 104 821 104 874 c 128,-1,87
 104 927 104 927 111 948 c 0,88,89
 113 956 113 956 111 965 c 0,90,91
 104 993 104 993 104 1047 c 128,-1,92
 104 1101 104 1101 111 1120 c 1,0,-1
623 948 m 1,93,-1
 625 956 l 1,94,-1
 455 956 l 2,95,96
 411 956 411 956 370 955.5 c 128,-1,97
 329 955 329 955 307 954.5 c 128,-1,98
 285 954 285 954 286 953 c 0,99,100
 293 942 293 942 293.5 884.5 c 128,-1,101
 294 827 294 827 288 798 c 0,102,103
 286 785 286 785 288 772 c 1,104,105
 295 742 295 742 294 685 c 128,-1,106
 293 628 293 628 286 617 c 0,107,108
 285 616 285 616 307 615.5 c 128,-1,109
 329 615 329 615 370 614.5 c 128,-1,110
 411 614 411 614 455 614 c 2,111,-1
 625 614 l 1,112,-1
 623 624 l 1,113,114
 616 651 616 651 616 703.5 c 128,-1,115
 616 756 616 756 623 777 c 0,116,117
 625 785 625 785 623 794 c 0,118,119
 616 821 616 821 616 874 c 128,-1,120
 616 927 616 927 623 948 c 1,93,-1
623 436 m 1,121,-1
 625 444 l 1,122,-1
 455 444 l 1,123,-1
 285 444 l 1,124,-1
 287 435 l 1,125,126
 294 411 294 411 293.5 349.5 c 128,-1,127
 293 288 293 288 286 276 c 0,128,129
 285 275 285 275 285.5 271.5 c 128,-1,130
 286 268 286 268 287 264 c 0,131,132
 294 239 294 239 293.5 178 c 128,-1,133
 293 117 293 117 286 105 c 0,134,135
 285 104 285 104 307 103.5 c 128,-1,136
 329 103 329 103 370 102.5 c 128,-1,137
 411 102 411 102 455 102 c 2,138,-1
 625 102 l 1,139,-1
 623 112 l 1,140,141
 616 139 616 139 616 191.5 c 128,-1,142
 616 244 616 244 623 265 c 0,143,144
 625 273 625 273 623 282 c 0,145,146
 616 309 616 309 616 362 c 128,-1,147
 616 415 616 415 623 436 c 1,121,-1
EndSplineSet
EndChar

StartChar: C
Encoding: 67 67 38
Width: 851
Flags: W
LayerCount: 2
Fore
SplineSet
288 1120 m 2,0,-1
 290 1126 l 1,1,-1
 489 1126 l 2,2,3
 688 1126 688 1126 690 1124 c 0,4,5
 696 1114 696 1114 698 1065 c 128,-1,6
 700 1016 700 1016 696 988 c 0,7,8
 691 960 691 960 690 958 c 1,9,-1
 697 958 l 1,10,11
 704 957 704 957 717 956.5 c 128,-1,12
 730 956 730 956 745 956 c 0,13,14
 801 956 801 956 804 953 c 1,15,16
 810 943 810 943 812 894.5 c 128,-1,17
 814 846 814 846 810 818 c 0,18,19
 805 789 805 789 803 787 c 0,20,21
 802 786 802 786 716 786 c 2,22,-1
 631 786 l 1,23,-1
 629 794 l 2,24,25
 622 820 622 820 622 874 c 128,-1,26
 622 928 622 928 629 948 c 1,27,-1
 631 956 l 1,28,-1
 489 956 l 2,29,30
 453 956 453 956 418.5 955.5 c 128,-1,31
 384 955 384 955 365.5 954.5 c 128,-1,32
 347 954 347 954 348 953 c 0,33,34
 357 937 357 937 357 872 c 0,35,36
 357 803 357 803 348 787 c 0,37,38
 346 785 346 785 319 785 c 0,39,40
 290 785 290 785 292 783 c 0,41,42
 299 772 299 772 299.5 714 c 128,-1,43
 300 656 300 656 294 627 c 0,44,45
 292 614 292 614 294 602 c 0,46,47
 299 576 299 576 299 529 c 128,-1,48
 299 482 299 482 294 457 c 0,49,50
 292 444 292 444 294 431 c 1,51,52
 301 401 301 401 300 343.5 c 128,-1,53
 299 286 299 286 292 275 c 0,54,55
 290 273 290 273 319 273 c 0,56,57
 346 273 346 273 348 271 c 0,58,59
 354 261 354 261 356 212.5 c 128,-1,60
 358 164 358 164 354 135 c 0,61,62
 350 108 350 108 348 105 c 0,63,64
 347 104 347 104 365.5 103.5 c 128,-1,65
 384 103 384 103 418.5 102.5 c 128,-1,66
 453 102 453 102 489 102 c 2,67,-1
 631 102 l 1,68,-1
 629 112 l 1,69,70
 622 140 622 140 622 194 c 128,-1,71
 622 248 622 248 629 267 c 1,72,-1
 632 273 l 1,73,-1
 717 273 l 2,74,75
 802 273 802 273 804 271 c 0,76,77
 810 261 810 261 812 212 c 128,-1,78
 814 163 814 163 809 135 c 0,79,80
 808 130 808 130 807.5 126 c 128,-1,81
 807 122 807 122 806.5 119.5 c 128,-1,82
 806 117 806 117 805.5 114.5 c 128,-1,83
 805 112 805 112 805 110.5 c 128,-1,84
 805 109 805 109 805 108 c 128,-1,85
 805 107 805 107 804 106 c 1,86,-1
 804 105 l 1,87,88
 801 102 801 102 745 102 c 0,89,90
 730 102 730 102 717 101.5 c 128,-1,91
 704 101 704 101 697 100 c 1,92,-1
 690 100 l 1,93,94
 698 86 698 86 697.5 14 c 128,-1,95
 697 -58 697 -58 689 -66 c 0,96,97
 687 -68 687 -68 488 -68 c 2,98,-1
 289 -67 l 1,99,-1
 287 -59 l 2,100,101
 280 -33 280 -33 280.5 21 c 128,-1,102
 281 75 281 75 288 95 c 1,103,-1
 290 102 l 1,104,-1
 233 103 l 1,105,-1
 176 104 l 1,106,-1
 173 112 l 1,107,108
 166 138 166 138 166.5 191.5 c 128,-1,109
 167 245 167 245 174 265 c 1,110,-1
 176 273 l 1,111,-1
 148 274 l 1,112,-1
 119 274 l 1,113,-1
 117 282 l 2,114,115
 110 308 110 308 110 362 c 128,-1,116
 110 416 110 416 117 436 c 0,117,118
 119 444 119 444 117 453 c 0,119,120
 110 480 110 480 110 532.5 c 128,-1,121
 110 585 110 585 117 606 c 0,122,123
 119 614 119 614 117 624 c 0,124,125
 104 671 104 671 112 746 c 0,126,127
 115 776 115 776 119 780.5 c 128,-1,128
 123 785 123 785 148 785 c 2,129,-1
 176 785 l 1,130,-1
 174 794 l 2,131,132
 167 822 167 822 167 876 c 128,-1,133
 167 930 167 930 174 949 c 1,134,-1
 177 956 l 1,135,-1
 233 956 l 1,136,-1
 290 956 l 1,137,-1
 287 965 l 1,138,139
 280 992 280 992 280.5 1046.5 c 128,-1,140
 281 1101 281 1101 288 1120 c 2,0,-1
EndSplineSet
EndChar

StartChar: D
Encoding: 68 68 39
Width: 851
Flags: W
LayerCount: 2
Fore
SplineSet
111 1120 m 1,0,-1
 114 1126 l 1,1,-1
 370 1126 l 2,2,3
 625 1126 625 1126 627 1124 c 0,4,5
 633 1114 633 1114 635 1065 c 128,-1,6
 637 1016 637 1016 633 988 c 0,7,8
 628 960 628 960 627 958 c 1,9,-1
 634 958 l 1,10,11
 641 957 641 957 654 956.5 c 128,-1,12
 667 956 667 956 682 956 c 0,13,14
 738 956 738 956 741 953 c 1,15,16
 747 943 747 943 749 894.5 c 128,-1,17
 751 846 751 846 747 818 c 0,18,19
 742 789 742 789 741 787 c 0,20,21
 739 785 739 785 768 785 c 0,22,23
 796 785 796 785 798 783 c 0,24,25
 799 782 799 782 801 771 c 0,26,27
 814 702 814 702 800 627 c 0,28,29
 798 614 798 614 800 602 c 0,30,31
 805 576 805 576 805 529 c 128,-1,32
 805 482 805 482 800 457 c 0,33,34
 798 444 798 444 800 431 c 1,35,36
 807 401 807 401 806 343.5 c 128,-1,37
 805 286 805 286 798 275 c 0,38,39
 796 273 796 273 768 273 c 2,40,-1
 740 273 l 1,41,-1
 742 264 l 1,42,43
 749 239 749 239 748.5 178 c 128,-1,44
 748 117 748 117 741 105 c 1,45,46
 738 102 738 102 682 102 c 0,47,48
 667 102 667 102 654 101.5 c 128,-1,49
 641 101 641 101 634 100 c 1,50,-1
 627 100 l 1,51,52
 635 86 635 86 634.5 14 c 128,-1,53
 634 -58 634 -58 626 -66 c 0,54,55
 624 -68 624 -68 368 -68 c 1,56,-1
 113 -67 l 1,57,-1
 111 -59 l 2,58,59
 104 -34 104 -34 104 20 c 128,-1,60
 104 74 104 74 111 94 c 0,61,62
 113 102 113 102 111 112 c 0,63,64
 104 139 104 139 104 191.5 c 128,-1,65
 104 244 104 244 111 265 c 0,66,67
 113 273 113 273 111 282 c 0,68,69
 104 309 104 309 104 362 c 128,-1,70
 104 415 104 415 111 436 c 0,71,72
 113 444 113 444 111 453 c 0,73,74
 104 480 104 480 104 532.5 c 128,-1,75
 104 585 104 585 111 606 c 0,76,77
 113 614 113 614 111 624 c 0,78,79
 104 651 104 651 104 703.5 c 128,-1,80
 104 756 104 756 111 777 c 0,81,82
 113 785 113 785 111 794 c 0,83,84
 104 821 104 821 104 874 c 128,-1,85
 104 927 104 927 111 948 c 0,86,87
 113 956 113 956 111 965 c 0,88,89
 104 993 104 993 104 1047 c 128,-1,90
 104 1101 104 1101 111 1120 c 1,0,-1
566 948 m 2,91,-1
 569 956 l 1,92,-1
 426 956 l 2,93,94
 390 956 390 956 356 955.5 c 128,-1,95
 322 955 322 955 303.5 954.5 c 128,-1,96
 285 954 285 954 286 953 c 0,97,98
 293 942 293 942 293.5 884.5 c 128,-1,99
 294 827 294 827 288 798 c 0,100,101
 286 785 286 785 288 772 c 0,102,103
 294 743 294 743 293.5 685.5 c 128,-1,104
 293 628 293 628 286 617 c 0,105,106
 284 615 284 615 287 606 c 0,107,108
 294 582 294 582 293.5 520.5 c 128,-1,109
 293 459 293 459 286 447 c 0,110,111
 285 446 285 446 285.5 442.5 c 128,-1,112
 286 439 286 439 287 435 c 0,113,114
 294 411 294 411 293.5 349.5 c 128,-1,115
 293 288 293 288 286 276 c 0,116,117
 285 275 285 275 285.5 271.5 c 128,-1,118
 286 268 286 268 287 264 c 0,119,120
 294 239 294 239 293.5 178 c 128,-1,121
 293 117 293 117 286 105 c 0,122,123
 285 104 285 104 303.5 103.5 c 128,-1,124
 322 103 322 103 356 102.5 c 128,-1,125
 390 102 390 102 426 102 c 2,126,-1
 568 102 l 1,127,-1
 566 112 l 1,128,129
 553 159 553 159 561 234 c 0,130,131
 564 264 564 264 568 268.5 c 128,-1,132
 572 273 572 273 597 273 c 2,133,-1
 625 273 l 1,134,-1
 623 282 l 2,135,136
 616 309 616 309 616 362 c 128,-1,137
 616 415 616 415 623 436 c 0,138,139
 625 444 625 444 623 453 c 0,140,141
 616 480 616 480 616 532.5 c 128,-1,142
 616 585 616 585 623 606 c 0,143,144
 625 614 625 614 623 624 c 0,145,146
 616 651 616 651 616 703.5 c 128,-1,147
 616 756 616 756 623 777 c 1,148,-1
 625 785 l 1,149,-1
 597 786 l 1,150,-1
 568 786 l 1,151,-1
 566 794 l 2,152,153
 559 820 559 820 559 873.5 c 128,-1,154
 559 927 559 927 566 948 c 2,91,-1
EndSplineSet
EndChar

StartChar: E
Encoding: 69 69 40
Width: 851
Flags: W
LayerCount: 2
Fore
SplineSet
225 1120 m 1,0,-1
 228 1126 l 1,1,-1
 483 1126 l 2,2,3
 739 1126 739 1126 741 1124 c 0,4,5
 747 1114 747 1114 749 1065 c 128,-1,6
 751 1016 751 1016 747 988 c 0,7,8
 742 960 742 960 741 958 c 0,9,10
 739 956 739 956 569 956 c 0,11,12
 525 956 525 956 484 955.5 c 128,-1,13
 443 955 443 955 420.5 954.5 c 128,-1,14
 398 954 398 954 399 953 c 0,15,16
 406 942 406 942 407 884.5 c 128,-1,17
 408 827 408 827 402 798 c 0,18,19
 400 785 400 785 402 772 c 1,20,21
 409 742 409 742 408 685 c 128,-1,22
 407 628 407 628 399 617 c 0,23,24
 398 616 398 616 420.5 615.5 c 128,-1,25
 443 615 443 615 484 614.5 c 128,-1,26
 525 614 525 614 569 614 c 0,27,28
 739 614 739 614 741 612 c 0,29,30
 747 602 747 602 749 553 c 128,-1,31
 751 504 751 504 747 476 c 0,32,33
 742 448 742 448 741 446 c 0,34,35
 739 444 739 444 569 444 c 2,36,-1
 399 444 l 1,37,-1
 401 435 l 1,38,39
 408 411 408 411 407.5 349.5 c 128,-1,40
 407 288 407 288 400 276 c 0,41,42
 399 275 399 275 399.5 271.5 c 128,-1,43
 400 268 400 268 401 264 c 0,44,45
 408 239 408 239 407 178 c 128,-1,46
 406 117 406 117 399 105 c 0,47,48
 398 104 398 104 420.5 103.5 c 128,-1,49
 443 103 443 103 484 102.5 c 128,-1,50
 525 102 525 102 569 102 c 0,51,52
 739 102 739 102 741 100 c 0,53,54
 746 91 746 91 748.5 41.5 c 128,-1,55
 751 -8 751 -8 747 -33 c 0,56,57
 746 -36 746 -36 745 -43.5 c 128,-1,58
 744 -51 744 -51 744 -53 c 0,59,60
 742 -64 742 -64 740 -66 c 128,-1,61
 738 -68 738 -68 482 -68 c 2,62,-1
 226 -67 l 1,63,-1
 224 -59 l 2,64,65
 217 -33 217 -33 217.5 20.5 c 128,-1,66
 218 74 218 74 225 94 c 0,67,68
 227 102 227 102 225 112 c 0,69,70
 218 139 218 139 218 191.5 c 128,-1,71
 218 244 218 244 225 265 c 0,72,73
 227 273 227 273 225 282 c 0,74,75
 218 309 218 309 218 362 c 128,-1,76
 218 415 218 415 225 436 c 0,77,78
 227 444 227 444 225 453 c 0,79,80
 218 480 218 480 218 532.5 c 128,-1,81
 218 585 218 585 225 606 c 0,82,83
 227 614 227 614 225 624 c 0,84,85
 218 651 218 651 218 703.5 c 128,-1,86
 218 756 218 756 225 777 c 0,87,88
 227 785 227 785 225 794 c 0,89,90
 218 821 218 821 218 874 c 128,-1,91
 218 927 218 927 225 948 c 0,92,93
 227 956 227 956 225 965 c 0,94,95
 218 993 218 993 218 1047 c 128,-1,96
 218 1101 218 1101 225 1120 c 1,0,-1
EndSplineSet
EndChar

StartChar: F
Encoding: 70 70 41
Width: 851
Flags: W
LayerCount: 2
Fore
SplineSet
225 1120 m 1,0,-1
 228 1126 l 1,1,-1
 483 1126 l 2,2,3
 739 1126 739 1126 741 1124 c 0,4,5
 747 1114 747 1114 749 1065 c 128,-1,6
 751 1016 751 1016 747 988 c 0,7,8
 742 960 742 960 741 958 c 0,9,10
 739 956 739 956 569 956 c 0,11,12
 525 956 525 956 484 955.5 c 128,-1,13
 443 955 443 955 420.5 954.5 c 128,-1,14
 398 954 398 954 399 953 c 0,15,16
 406 942 406 942 407 884.5 c 128,-1,17
 408 827 408 827 402 798 c 0,18,19
 400 785 400 785 402 772 c 1,20,21
 409 742 409 742 408 685 c 128,-1,22
 407 628 407 628 399 617 c 0,23,24
 398 616 398 616 420.5 615.5 c 128,-1,25
 443 615 443 615 484 614.5 c 128,-1,26
 525 614 525 614 569 614 c 0,27,28
 739 614 739 614 741 612 c 0,29,30
 747 602 747 602 749 553 c 128,-1,31
 751 504 751 504 747 476 c 0,32,33
 742 448 742 448 741 446 c 0,34,35
 739 444 739 444 569 444 c 2,36,-1
 399 444 l 1,37,-1
 401 435 l 1,38,39
 408 411 408 411 407.5 349.5 c 128,-1,40
 407 288 407 288 400 276 c 0,41,42
 399 275 399 275 399.5 271.5 c 128,-1,43
 400 268 400 268 401 264 c 0,44,45
 408 240 408 240 407.5 178.5 c 128,-1,46
 407 117 407 117 400 105 c 0,47,48
 398 103 398 103 401 94 c 0,49,50
 408 68 408 68 407.5 5 c 128,-1,51
 407 -58 407 -58 399 -66 c 0,52,53
 397 -68 397 -68 311 -68 c 1,54,-1
 226 -67 l 1,55,-1
 224 -59 l 2,56,57
 217 -33 217 -33 217.5 20.5 c 128,-1,58
 218 74 218 74 225 94 c 0,59,60
 227 102 227 102 225 112 c 0,61,62
 218 139 218 139 218 191.5 c 128,-1,63
 218 244 218 244 225 265 c 0,64,65
 227 273 227 273 225 282 c 0,66,67
 218 309 218 309 218 362 c 128,-1,68
 218 415 218 415 225 436 c 0,69,70
 227 444 227 444 225 453 c 0,71,72
 218 480 218 480 218 532.5 c 128,-1,73
 218 585 218 585 225 606 c 0,74,75
 227 614 227 614 225 624 c 0,76,77
 218 651 218 651 218 703.5 c 128,-1,78
 218 756 218 756 225 777 c 0,79,80
 227 785 227 785 225 794 c 0,81,82
 218 821 218 821 218 874 c 128,-1,83
 218 927 218 927 225 948 c 0,84,85
 227 956 227 956 225 965 c 0,86,87
 218 993 218 993 218 1047 c 128,-1,88
 218 1101 218 1101 225 1120 c 1,0,-1
EndSplineSet
EndChar

StartChar: G
Encoding: 71 71 42
Width: 851
Flags: W
LayerCount: 2
Fore
SplineSet
288 1120 m 2,0,-1
 290 1126 l 1,1,-1
 489 1126 l 2,2,3
 688 1126 688 1126 690 1124 c 0,4,5
 696 1114 696 1114 698 1065 c 128,-1,6
 700 1016 700 1016 696 988 c 0,7,8
 691 960 691 960 690 958 c 1,9,-1
 697 958 l 1,10,11
 704 957 704 957 717 956.5 c 128,-1,12
 730 956 730 956 745 956 c 0,13,14
 801 956 801 956 804 953 c 1,15,16
 810 943 810 943 812 894.5 c 128,-1,17
 814 846 814 846 810 818 c 0,18,19
 805 789 805 789 803 787 c 0,20,21
 802 786 802 786 716 786 c 2,22,-1
 631 786 l 1,23,-1
 629 794 l 2,24,25
 622 820 622 820 622 874 c 128,-1,26
 622 928 622 928 629 948 c 1,27,-1
 631 956 l 1,28,-1
 489 956 l 2,29,30
 453 956 453 956 418.5 955.5 c 128,-1,31
 384 955 384 955 365.5 954.5 c 128,-1,32
 347 954 347 954 348 953 c 0,33,34
 357 937 357 937 357 872 c 0,35,36
 357 803 357 803 348 787 c 0,37,38
 346 785 346 785 319 785 c 0,39,40
 290 785 290 785 292 783 c 0,41,42
 299 772 299 772 299.5 714 c 128,-1,43
 300 656 300 656 294 627 c 0,44,45
 292 614 292 614 294 602 c 0,46,47
 299 576 299 576 299 529 c 128,-1,48
 299 482 299 482 294 457 c 0,49,50
 292 444 292 444 294 431 c 1,51,52
 301 401 301 401 300 343.5 c 128,-1,53
 299 286 299 286 292 275 c 0,54,55
 290 273 290 273 319 273 c 0,56,57
 346 273 346 273 348 271 c 0,58,59
 354 261 354 261 356 212.5 c 128,-1,60
 358 164 358 164 354 135 c 0,61,62
 350 108 350 108 348 105 c 0,63,64
 347 104 347 104 365.5 103.5 c 128,-1,65
 384 103 384 103 418.5 102.5 c 128,-1,66
 453 102 453 102 489 102 c 2,67,-1
 631 102 l 1,68,-1
 629 112 l 1,69,70
 622 139 622 139 622 191.5 c 128,-1,71
 622 244 622 244 629 265 c 0,72,73
 631 273 631 273 629 282 c 0,74,75
 622 309 622 309 622 362 c 128,-1,76
 622 415 622 415 629 436 c 1,77,-1
 631 444 l 1,78,-1
 574 444 l 1,79,-1
 517 445 l 1,80,-1
 515 453 l 2,81,82
 508 478 508 478 508 534 c 128,-1,83
 508 590 508 590 515 608 c 1,84,-1
 518 614 l 1,85,-1
 660 614 l 2,86,87
 802 614 802 614 804 612 c 0,88,89
 805 611 805 611 807 600 c 0,90,91
 820 531 820 531 806 457 c 0,92,93
 804 443 804 443 806 431 c 0,94,95
 811 405 811 405 811 358.5 c 128,-1,96
 811 312 811 312 806 286 c 0,97,98
 804 273 804 273 806 260 c 1,99,100
 813 230 813 230 812 173 c 128,-1,101
 811 116 811 116 804 105 c 0,102,103
 801 102 801 102 745 102 c 0,104,105
 730 102 730 102 717 101.5 c 128,-1,106
 704 101 704 101 697 100 c 1,107,-1
 690 100 l 1,108,109
 698 86 698 86 697.5 14 c 128,-1,110
 697 -58 697 -58 689 -66 c 0,111,112
 687 -68 687 -68 488 -68 c 2,113,-1
 289 -67 l 1,114,-1
 287 -59 l 2,115,116
 280 -33 280 -33 280.5 21 c 128,-1,117
 281 75 281 75 288 95 c 1,118,-1
 290 102 l 1,119,-1
 233 103 l 1,120,-1
 176 104 l 1,121,-1
 173 112 l 1,122,123
 166 138 166 138 166.5 191.5 c 128,-1,124
 167 245 167 245 174 265 c 1,125,-1
 176 273 l 1,126,-1
 148 274 l 1,127,-1
 119 274 l 1,128,-1
 117 282 l 2,129,130
 110 308 110 308 110 362 c 128,-1,131
 110 416 110 416 117 436 c 0,132,133
 119 444 119 444 117 453 c 0,134,135
 110 480 110 480 110 532.5 c 128,-1,136
 110 585 110 585 117 606 c 0,137,138
 119 614 119 614 117 624 c 0,139,140
 104 671 104 671 112 746 c 0,141,142
 115 776 115 776 119 780.5 c 128,-1,143
 123 785 123 785 148 785 c 2,144,-1
 176 785 l 1,145,-1
 174 794 l 2,146,147
 167 822 167 822 167 876 c 128,-1,148
 167 930 167 930 174 949 c 1,149,-1
 177 956 l 1,150,-1
 233 956 l 1,151,-1
 290 956 l 1,152,-1
 287 965 l 1,153,154
 280 992 280 992 280.5 1046.5 c 128,-1,155
 281 1101 281 1101 288 1120 c 2,0,-1
EndSplineSet
EndChar

StartChar: H
Encoding: 72 72 43
Width: 851
Flags: W
LayerCount: 2
Fore
SplineSet
111 1120 m 1,0,-1
 114 1126 l 1,1,-1
 199 1126 l 2,2,3
 284 1126 284 1126 286 1124 c 0,4,5
 287 1123 287 1123 289 1112 c 0,6,7
 302 1043 302 1043 288 969 c 0,8,9
 286 955 286 955 288 943 c 0,10,11
 293 917 293 917 293 870.5 c 128,-1,12
 293 824 293 824 288 798 c 0,13,14
 286 785 286 785 288 772 c 1,15,16
 295 742 295 742 294 685 c 128,-1,17
 293 628 293 628 286 617 c 0,18,19
 285 616 285 616 307 615.5 c 128,-1,20
 329 615 329 615 370 614.5 c 128,-1,21
 411 614 411 614 455 614 c 2,22,-1
 625 614 l 1,23,-1
 623 624 l 1,24,25
 616 651 616 651 616 703.5 c 128,-1,26
 616 756 616 756 623 777 c 0,27,28
 625 785 625 785 623 794 c 0,29,30
 616 821 616 821 616 874 c 128,-1,31
 616 927 616 927 623 948 c 0,32,33
 625 956 625 956 623 965 c 0,34,35
 616 993 616 993 616 1047 c 128,-1,36
 616 1101 616 1101 623 1120 c 1,37,-1
 626 1126 l 1,38,-1
 711 1126 l 2,39,40
 796 1126 796 1126 798 1124 c 0,41,42
 799 1123 799 1123 801 1112 c 0,43,44
 814 1043 814 1043 800 969 c 0,45,46
 798 955 798 955 800 943 c 0,47,48
 805 917 805 917 805 870.5 c 128,-1,49
 805 824 805 824 800 798 c 0,50,51
 798 785 798 785 800 772 c 0,52,53
 805 746 805 746 805 699 c 128,-1,54
 805 652 805 652 800 627 c 0,55,56
 798 614 798 614 800 602 c 0,57,58
 806 573 806 573 805.5 515.5 c 128,-1,59
 805 458 805 458 798 447 c 0,60,61
 797 446 797 446 797.5 442.5 c 128,-1,62
 798 439 798 439 799 435 c 0,63,64
 806 411 806 411 805.5 349.5 c 128,-1,65
 805 288 805 288 798 276 c 0,66,67
 797 275 797 275 797.5 271.5 c 128,-1,68
 798 268 798 268 799 264 c 0,69,70
 806 240 806 240 805.5 178.5 c 128,-1,71
 805 117 805 117 798 105 c 0,72,73
 796 103 796 103 799 94 c 0,74,75
 806 68 806 68 805.5 5 c 128,-1,76
 805 -58 805 -58 797 -66 c 0,77,78
 795 -68 795 -68 710 -68 c 2,79,-1
 625 -67 l 1,80,-1
 623 -59 l 2,81,82
 616 -34 616 -34 616 20 c 128,-1,83
 616 74 616 74 623 94 c 0,84,85
 625 102 625 102 623 112 c 0,86,87
 616 139 616 139 616 191.5 c 128,-1,88
 616 244 616 244 623 265 c 0,89,90
 625 273 625 273 623 282 c 0,91,92
 616 309 616 309 616 362 c 128,-1,93
 616 415 616 415 623 436 c 1,94,-1
 625 444 l 1,95,-1
 455 444 l 1,96,-1
 285 444 l 1,97,-1
 287 435 l 1,98,99
 294 411 294 411 293.5 349.5 c 128,-1,100
 293 288 293 288 286 276 c 0,101,102
 285 275 285 275 285.5 271.5 c 128,-1,103
 286 268 286 268 287 264 c 0,104,105
 294 240 294 240 293.5 178.5 c 128,-1,106
 293 117 293 117 286 105 c 0,107,108
 284 103 284 103 287 94 c 0,109,110
 294 68 294 68 293.5 5 c 128,-1,111
 293 -58 293 -58 285 -66 c 0,112,113
 283 -68 283 -68 198 -68 c 2,114,-1
 113 -67 l 1,115,-1
 111 -59 l 2,116,117
 104 -34 104 -34 104 20 c 128,-1,118
 104 74 104 74 111 94 c 0,119,120
 113 102 113 102 111 112 c 0,121,122
 104 139 104 139 104 191.5 c 128,-1,123
 104 244 104 244 111 265 c 0,124,125
 113 273 113 273 111 282 c 0,126,127
 104 309 104 309 104 362 c 128,-1,128
 104 415 104 415 111 436 c 0,129,130
 113 444 113 444 111 453 c 0,131,132
 104 480 104 480 104 532.5 c 128,-1,133
 104 585 104 585 111 606 c 0,134,135
 113 614 113 614 111 624 c 0,136,137
 104 651 104 651 104 703.5 c 128,-1,138
 104 756 104 756 111 777 c 0,139,140
 113 785 113 785 111 794 c 0,141,142
 104 821 104 821 104 874 c 128,-1,143
 104 927 104 927 111 948 c 0,144,145
 113 956 113 956 111 965 c 0,146,147
 104 993 104 993 104 1047 c 128,-1,148
 104 1101 104 1101 111 1120 c 1,0,-1
EndSplineSet
EndChar

StartChar: I
Encoding: 73 73 44
Width: 851
Flags: W
LayerCount: 2
Fore
SplineSet
282 1120 m 2,0,-1
 284 1126 l 1,1,-1
 483 1126 l 2,2,3
 682 1126 682 1126 684 1124 c 0,4,5
 690 1114 690 1114 692 1065 c 128,-1,6
 694 1016 694 1016 690 988 c 0,7,8
 685 960 685 960 684 958 c 0,9,10
 682 956 682 956 625 956 c 0,11,12
 619 956 619 956 612.5 956 c 128,-1,13
 606 956 606 956 600.5 955.5 c 128,-1,14
 595 955 595 955 590 955 c 128,-1,15
 585 955 585 955 581.5 954.5 c 128,-1,16
 578 954 578 954 575 954 c 128,-1,17
 572 954 572 954 571 954 c 2,18,-1
 570 953 l 1,19,20
 577 942 577 942 578 884.5 c 128,-1,21
 579 827 579 827 573 798 c 0,22,23
 571 785 571 785 573 772 c 0,24,25
 579 743 579 743 578 685.5 c 128,-1,26
 577 628 577 628 570 617 c 0,27,28
 568 615 568 615 572 606 c 1,29,30
 579 582 579 582 578 520.5 c 128,-1,31
 577 459 577 459 570 447 c 0,32,33
 568 445 568 445 572 435 c 1,34,35
 579 411 579 411 578 349.5 c 128,-1,36
 577 288 577 288 570 276 c 0,37,38
 568 274 568 274 572 264 c 1,39,40
 579 239 579 239 578 178 c 128,-1,41
 577 117 577 117 570 105 c 1,42,-1
 572 104 l 1,43,44
 575 104 575 104 580 103.5 c 128,-1,45
 585 103 585 103 592 102.5 c 128,-1,46
 599 102 599 102 607.5 102 c 128,-1,47
 616 102 616 102 625 102 c 0,48,49
 682 102 682 102 684 100 c 0,50,51
 690 90 690 90 692 41 c 128,-1,52
 694 -8 694 -8 690 -36 c 0,53,54
 685 -64 685 -64 683 -66 c 128,-1,55
 681 -68 681 -68 482 -68 c 2,56,-1
 283 -67 l 1,57,-1
 281 -59 l 2,58,59
 274 -33 274 -33 274.5 22.5 c 128,-1,60
 275 78 275 78 282 96 c 2,61,-1
 284 102 l 1,62,-1
 341 102 l 1,63,-1
 398 102 l 1,64,-1
 395 112 l 1,65,66
 388 139 388 139 388 191.5 c 128,-1,67
 388 244 388 244 395 265 c 0,68,69
 397 273 397 273 395 282 c 0,70,71
 388 309 388 309 388 362 c 128,-1,72
 388 415 388 415 395 436 c 0,73,74
 397 444 397 444 395 453 c 0,75,76
 388 480 388 480 388 532.5 c 128,-1,77
 388 585 388 585 395 606 c 0,78,79
 397 614 397 614 395 624 c 0,80,81
 388 651 388 651 388 703.5 c 128,-1,82
 388 756 388 756 395 777 c 0,83,84
 397 785 397 785 395 794 c 0,85,86
 388 821 388 821 388 874 c 128,-1,87
 388 927 388 927 395 948 c 2,88,-1
 398 956 l 1,89,-1
 341 956 l 1,90,-1
 283 957 l 1,91,-1
 281 965 l 2,92,93
 274 991 274 991 274.5 1046.5 c 128,-1,94
 275 1102 275 1102 282 1120 c 2,0,-1
EndSplineSet
EndChar

StartChar: J
Encoding: 74 74 45
Width: 851
Flags: W
LayerCount: 2
Fore
SplineSet
396 1120 m 2,0,-1
 398 1126 l 1,1,-1
 569 1126 l 2,2,3
 739 1126 739 1126 741 1124 c 0,4,5
 747 1114 747 1114 749 1065 c 128,-1,6
 751 1016 751 1016 747 988 c 0,7,8
 742 960 742 960 741 958 c 0,9,10
 739 956 739 956 711 956 c 0,11,12
 684 956 684 956 684 953 c 1,13,14
 691 942 691 942 692 884.5 c 128,-1,15
 693 827 693 827 687 798 c 0,16,17
 685 785 685 785 687 772 c 0,18,19
 693 743 693 743 692 685.5 c 128,-1,20
 691 628 691 628 684 617 c 0,21,22
 682 615 682 615 686 606 c 1,23,24
 693 582 693 582 692 520.5 c 128,-1,25
 691 459 691 459 684 447 c 0,26,27
 682 445 682 445 686 435 c 1,28,29
 693 411 693 411 692 349.5 c 128,-1,30
 691 288 691 288 684 276 c 0,31,32
 682 274 682 274 686 264 c 1,33,34
 693 239 693 239 692 178 c 128,-1,35
 691 117 691 117 684 105 c 1,36,37
 681 102 681 102 654 102 c 2,38,-1
 626 102 l 1,39,-1
 629 93 l 1,40,41
 636 67 636 67 635 4.5 c 128,-1,42
 634 -58 634 -58 626 -66 c 0,43,44
 624 -68 624 -68 425 -68 c 2,45,-1
 226 -67 l 1,46,-1
 224 -59 l 2,47,48
 217 -33 217 -33 217.5 21 c 128,-1,49
 218 75 218 75 225 95 c 1,50,-1
 227 102 l 1,51,-1
 170 103 l 1,52,-1
 113 104 l 1,53,-1
 111 112 l 2,54,55
 104 138 104 138 104 193.5 c 128,-1,56
 104 249 104 249 111 267 c 1,57,-1
 114 273 l 1,58,-1
 199 273 l 2,59,60
 284 273 284 273 286 271 c 0,61,62
 291 262 291 262 293.5 212.5 c 128,-1,63
 296 163 296 163 292 138 c 0,64,65
 291 136 291 136 290 128 c 128,-1,66
 289 120 289 120 289 118 c 0,67,68
 287 106 287 106 286 105 c 1,69,-1
 291 104 l 2,70,71
 296 104 296 104 306.5 103.5 c 128,-1,72
 317 103 317 103 330 102.5 c 128,-1,73
 343 102 343 102 361 102 c 128,-1,74
 379 102 379 102 398 102 c 2,75,-1
 511 102 l 1,76,-1
 509 112 l 1,77,78
 502 139 502 139 502 191.5 c 128,-1,79
 502 244 502 244 509 265 c 0,80,81
 511 273 511 273 509 282 c 0,82,83
 502 309 502 309 502 362 c 128,-1,84
 502 415 502 415 509 436 c 0,85,86
 511 444 511 444 509 453 c 0,87,88
 502 480 502 480 502 532.5 c 128,-1,89
 502 585 502 585 509 606 c 0,90,91
 511 614 511 614 509 624 c 0,92,93
 502 651 502 651 502 703.5 c 128,-1,94
 502 756 502 756 509 777 c 0,95,96
 511 785 511 785 509 794 c 0,97,98
 502 821 502 821 502 874 c 128,-1,99
 502 927 502 927 509 948 c 2,100,-1
 512 956 l 1,101,-1
 454 956 l 1,102,-1
 397 957 l 1,103,-1
 395 965 l 2,104,105
 388 991 388 991 388.5 1046.5 c 128,-1,106
 389 1102 389 1102 396 1120 c 2,0,-1
EndSplineSet
EndChar

StartChar: K
Encoding: 75 75 46
Width: 851
Flags: W
LayerCount: 2
Fore
SplineSet
168 1120 m 1,0,-1
 171 1126 l 1,1,-1
 256 1126 l 2,2,3
 340 1126 340 1126 342 1124 c 128,-1,4
 344 1122 344 1122 346 1112 c 0,5,6
 359 1043 359 1043 345 969 c 0,7,8
 343 955 343 955 345 943 c 0,9,10
 350 917 350 917 350 870.5 c 128,-1,11
 350 824 350 824 345 798 c 0,12,13
 343 785 343 785 345 772 c 1,14,15
 352 742 352 742 351 685 c 128,-1,16
 350 628 350 628 342 617 c 1,17,-1
 344 616 l 1,18,19
 347 616 347 616 352.5 615.5 c 128,-1,20
 358 615 358 615 364.5 614.5 c 128,-1,21
 371 614 371 614 380 614 c 128,-1,22
 389 614 389 614 398 614 c 2,23,-1
 455 614 l 1,24,-1
 452 624 l 1,25,26
 445 651 445 651 445.5 705.5 c 128,-1,27
 446 760 446 760 453 779 c 2,28,-1
 455 785 l 1,29,-1
 512 785 l 1,30,-1
 568 785 l 1,31,-1
 566 794 l 1,32,33
 553 841 553 841 561 917 c 0,34,35
 564 947 564 947 568 951.5 c 128,-1,36
 572 956 572 956 597 956 c 2,37,-1
 625 956 l 1,38,-1
 623 965 l 2,39,40
 616 993 616 993 616 1047 c 128,-1,41
 616 1101 616 1101 623 1120 c 1,42,-1
 626 1126 l 1,43,-1
 711 1126 l 2,44,45
 796 1126 796 1126 798 1124 c 0,46,47
 804 1114 804 1114 806 1065 c 128,-1,48
 808 1016 808 1016 803 988 c 0,49,50
 802 983 802 983 801.5 979 c 128,-1,51
 801 975 801 975 800.5 972.5 c 128,-1,52
 800 970 800 970 799.5 967.5 c 128,-1,53
 799 965 799 965 799 963.5 c 128,-1,54
 799 962 799 962 799 961 c 128,-1,55
 799 960 799 960 798 959 c 1,56,-1
 798 958 l 1,57,58
 796 956 796 956 768 956 c 0,59,60
 741 956 741 956 741 953 c 1,61,62
 749 939 749 939 749 872 c 0,63,64
 749 801 749 801 741 787 c 0,65,66
 739 785 739 785 682 785 c 0,67,68
 667 785 667 785 654 784.5 c 128,-1,69
 641 784 641 784 634 784 c 2,70,-1
 627 783 l 1,71,72
 635 769 635 769 635 701 c 0,73,74
 635 631 635 631 627 617 c 1,75,76
 624 614 624 614 569 614 c 0,77,78
 560 614 560 614 551.5 614 c 128,-1,79
 543 614 543 614 536 613.5 c 128,-1,80
 529 613 529 613 523.5 613 c 128,-1,81
 518 613 518 613 516 612 c 1,82,-1
 513 612 l 1,83,84
 522 596 522 596 522 530 c 0,85,86
 522 462 522 462 513 446 c 1,87,-1
 520 446 l 1,88,89
 527 445 527 445 540.5 444.5 c 128,-1,90
 554 444 554 444 569 444 c 0,91,92
 624 444 624 444 627 441 c 1,93,94
 633 431 633 431 635 382.5 c 128,-1,95
 637 334 637 334 633 306 c 0,96,97
 628 277 628 277 627 275 c 1,98,-1
 634 274 l 2,99,100
 641 274 641 274 654 273.5 c 128,-1,101
 667 273 667 273 682 273 c 0,102,103
 739 273 739 273 741 271 c 0,104,105
 746 262 746 262 748.5 212.5 c 128,-1,106
 751 163 751 163 747 138 c 0,107,108
 746 136 746 136 745 128 c 128,-1,109
 744 120 744 120 744 118 c 0,110,111
 742 106 742 106 741 105 c 1,112,-1
 765 102 l 1,113,-1
 768 102 l 2,114,115
 796 102 796 102 798 100 c 0,116,117
 803 91 803 91 805.5 41.5 c 128,-1,118
 808 -8 808 -8 804 -33 c 0,119,120
 803 -36 803 -36 802 -43.5 c 128,-1,121
 801 -51 801 -51 801 -53 c 0,122,123
 799 -64 799 -64 797 -66 c 128,-1,124
 795 -68 795 -68 710 -68 c 2,125,-1
 625 -67 l 1,126,-1
 623 -59 l 2,127,128
 616 -34 616 -34 616 20 c 128,-1,129
 616 74 616 74 623 94 c 1,130,-1
 625 102 l 1,131,-1
 597 103 l 1,132,-1
 568 104 l 1,133,-1
 566 112 l 2,134,135
 559 138 559 138 559 191 c 128,-1,136
 559 244 559 244 566 265 c 2,137,-1
 569 273 l 1,138,-1
 511 274 l 1,139,-1
 454 274 l 1,140,-1
 452 282 l 2,141,142
 445 308 445 308 445 362 c 128,-1,143
 445 416 445 416 452 436 c 2,144,-1
 455 444 l 1,145,-1
 398 444 l 1,146,-1
 342 444 l 1,147,-1
 344 435 l 1,148,149
 351 411 351 411 350.5 349.5 c 128,-1,150
 350 288 350 288 343 276 c 0,151,152
 342 275 342 275 342.5 271.5 c 128,-1,153
 343 268 343 268 344 264 c 0,154,155
 351 240 351 240 350.5 178.5 c 128,-1,156
 350 117 350 117 343 105 c 0,157,158
 341 103 341 103 344 94 c 0,159,160
 351 68 351 68 350.5 5 c 128,-1,161
 350 -58 350 -58 342 -66 c 0,162,163
 340 -68 340 -68 255 -68 c 2,164,-1
 170 -67 l 1,165,-1
 167 -59 l 1,166,167
 160 -33 160 -33 160.5 20.5 c 128,-1,168
 161 74 161 74 168 94 c 0,169,170
 170 102 170 102 168 112 c 0,171,172
 161 139 161 139 161 191.5 c 128,-1,173
 161 244 161 244 168 265 c 0,174,175
 170 273 170 273 168 282 c 0,176,177
 161 309 161 309 161 362 c 128,-1,178
 161 415 161 415 168 436 c 0,179,180
 170 444 170 444 168 453 c 0,181,182
 161 480 161 480 161 532.5 c 128,-1,183
 161 585 161 585 168 606 c 0,184,185
 170 614 170 614 168 624 c 0,186,187
 161 651 161 651 161 703.5 c 128,-1,188
 161 756 161 756 168 777 c 0,189,190
 170 785 170 785 168 794 c 0,191,192
 161 821 161 821 161 874 c 128,-1,193
 161 927 161 927 168 948 c 0,194,195
 170 956 170 956 168 965 c 0,196,197
 161 993 161 993 161 1047 c 128,-1,198
 161 1101 161 1101 168 1120 c 1,0,-1
EndSplineSet
EndChar

StartChar: L
Encoding: 76 76 47
Width: 851
Flags: W
LayerCount: 2
Fore
SplineSet
168 1120 m 1,0,-1
 171 1126 l 1,1,-1
 256 1126 l 2,2,3
 340 1126 340 1126 342 1124 c 128,-1,4
 344 1122 344 1122 346 1112 c 0,5,6
 359 1043 359 1043 345 969 c 0,7,8
 343 955 343 955 345 943 c 0,9,10
 350 917 350 917 350 870.5 c 128,-1,11
 350 824 350 824 345 798 c 0,12,13
 343 785 343 785 345 772 c 0,14,15
 350 746 350 746 350 699 c 128,-1,16
 350 652 350 652 345 627 c 0,17,18
 343 614 343 614 345 602 c 0,19,20
 351 573 351 573 350.5 515.5 c 128,-1,21
 350 458 350 458 343 447 c 0,22,23
 342 446 342 446 342.5 442.5 c 128,-1,24
 343 439 343 439 344 435 c 0,25,26
 351 411 351 411 350.5 349.5 c 128,-1,27
 350 288 350 288 343 276 c 0,28,29
 342 275 342 275 342.5 271.5 c 128,-1,30
 343 268 343 268 344 264 c 0,31,32
 351 239 351 239 350 178 c 128,-1,33
 349 117 349 117 342 105 c 0,34,35
 341 104 341 104 367 103.5 c 128,-1,36
 393 103 393 103 441 102.5 c 128,-1,37
 489 102 489 102 540 102 c 0,38,39
 739 102 739 102 741 100 c 0,40,41
 746 91 746 91 748.5 41.5 c 128,-1,42
 751 -8 751 -8 747 -33 c 0,43,44
 746 -36 746 -36 745 -43.5 c 128,-1,45
 744 -51 744 -51 744 -53 c 0,46,47
 742 -64 742 -64 740 -66 c 128,-1,48
 738 -68 738 -68 454 -68 c 2,49,-1
 170 -67 l 1,50,-1
 167 -59 l 1,51,52
 160 -33 160 -33 160.5 20.5 c 128,-1,53
 161 74 161 74 168 94 c 0,54,55
 170 102 170 102 168 112 c 0,56,57
 161 139 161 139 161 191.5 c 128,-1,58
 161 244 161 244 168 265 c 0,59,60
 170 273 170 273 168 282 c 0,61,62
 161 309 161 309 161 362 c 128,-1,63
 161 415 161 415 168 436 c 0,64,65
 170 444 170 444 168 453 c 0,66,67
 161 480 161 480 161 532.5 c 128,-1,68
 161 585 161 585 168 606 c 0,69,70
 170 614 170 614 168 624 c 0,71,72
 161 651 161 651 161 703.5 c 128,-1,73
 161 756 161 756 168 777 c 0,74,75
 170 785 170 785 168 794 c 0,76,77
 161 821 161 821 161 874 c 128,-1,78
 161 927 161 927 168 948 c 0,79,80
 170 956 170 956 168 965 c 0,81,82
 161 993 161 993 161 1047 c 128,-1,83
 161 1101 161 1101 168 1120 c 1,0,-1
EndSplineSet
EndChar

StartChar: M
Encoding: 77 77 48
Width: 851
Flags: W
LayerCount: 2
Fore
SplineSet
111 1120 m 1,0,-1
 114 1126 l 1,1,-1
 227 1126 l 2,2,3
 340 1126 340 1126 342 1124 c 0,4,5
 348 1114 348 1114 350 1065 c 128,-1,6
 352 1016 352 1016 348 988 c 0,7,8
 343 960 343 960 342 958 c 0,9,10
 340 956 340 956 369 956 c 0,11,12
 396 956 396 956 399 953 c 0,13,14
 401 951 401 951 403 941 c 0,15,16
 416 872 416 872 402 798 c 0,17,18
 400 784 400 784 402 772 c 0,19,20
 409 742 409 742 408 685 c 128,-1,21
 407 628 407 628 399 617 c 1,22,-1
 402 616 l 2,23,24
 404 616 404 616 409.5 615.5 c 128,-1,25
 415 615 415 615 421.5 614.5 c 128,-1,26
 428 614 428 614 437 614 c 128,-1,27
 446 614 446 614 455 614 c 2,28,-1
 511 614 l 1,29,-1
 509 624 l 1,30,31
 502 651 502 651 502 703.5 c 128,-1,32
 502 756 502 756 509 777 c 0,33,34
 511 785 511 785 509 794 c 0,35,36
 496 841 496 841 504 917 c 0,37,38
 507 947 507 947 511 951.5 c 128,-1,39
 515 956 515 956 540 956 c 2,40,-1
 568 956 l 1,41,-1
 566 965 l 2,42,43
 559 993 559 993 559 1047 c 128,-1,44
 559 1101 559 1101 566 1120 c 1,45,-1
 569 1126 l 1,46,-1
 683 1126 l 2,47,48
 796 1126 796 1126 798 1124 c 0,49,50
 799 1123 799 1123 801 1112 c 0,51,52
 814 1043 814 1043 800 969 c 0,53,54
 798 955 798 955 800 943 c 0,55,56
 805 917 805 917 805 870.5 c 128,-1,57
 805 824 805 824 800 798 c 0,58,59
 798 785 798 785 800 772 c 0,60,61
 806 743 806 743 805.5 685.5 c 128,-1,62
 805 628 805 628 798 617 c 0,63,64
 796 615 796 615 799 606 c 0,65,66
 806 582 806 582 805.5 520.5 c 128,-1,67
 805 459 805 459 798 447 c 0,68,69
 797 446 797 446 797.5 442.5 c 128,-1,70
 798 439 798 439 799 435 c 0,71,72
 806 411 806 411 805.5 349.5 c 128,-1,73
 805 288 805 288 798 276 c 0,74,75
 797 275 797 275 797.5 271.5 c 128,-1,76
 798 268 798 268 799 264 c 0,77,78
 806 240 806 240 805.5 178.5 c 128,-1,79
 805 117 805 117 798 105 c 0,80,81
 796 103 796 103 799 94 c 0,82,83
 806 68 806 68 805.5 5 c 128,-1,84
 805 -58 805 -58 797 -66 c 0,85,86
 795 -68 795 -68 710 -68 c 2,87,-1
 625 -67 l 1,88,-1
 623 -59 l 2,89,90
 616 -34 616 -34 616 20 c 128,-1,91
 616 74 616 74 623 94 c 0,92,93
 625 102 625 102 623 112 c 0,94,95
 616 139 616 139 616 191.5 c 128,-1,96
 616 244 616 244 623 265 c 0,97,98
 625 273 625 273 623 282 c 0,99,100
 616 309 616 309 616 362 c 128,-1,101
 616 415 616 415 623 436 c 0,102,103
 625 444 625 444 623 453 c 0,104,105
 616 480 616 480 616 532.5 c 128,-1,106
 616 585 616 585 623 606 c 0,107,108
 625 614 625 614 623 624 c 0,109,110
 616 651 616 651 616 703.5 c 128,-1,111
 616 756 616 756 623 777 c 1,112,-1
 625 785 l 1,113,-1
 597 785 l 2,114,115
 568 785 568 785 570 783 c 0,116,117
 577 772 577 772 578 714 c 128,-1,118
 579 656 579 656 573 627 c 0,119,120
 571 614 571 614 573 602 c 0,121,122
 580 572 580 572 579 514.5 c 128,-1,123
 578 457 578 457 570 446 c 0,124,125
 568 444 568 444 540 444 c 0,126,127
 513 444 513 444 513 441 c 1,128,129
 520 430 520 430 521 372.5 c 128,-1,130
 522 315 522 315 516 286 c 0,131,132
 514 273 514 273 516 260 c 0,133,134
 523 229 523 229 521.5 170.5 c 128,-1,135
 520 112 520 112 513 105 c 0,136,137
 511 103 511 103 454 103 c 2,138,-1
 397 104 l 1,139,-1
 395 112 l 2,140,141
 388 138 388 138 388 191.5 c 128,-1,142
 388 245 388 245 395 265 c 0,143,144
 397 273 397 273 395 282 c 0,145,146
 388 309 388 309 388 362 c 128,-1,147
 388 415 388 415 395 436 c 1,148,-1
 398 443 l 1,149,-1
 369 444 l 1,150,-1
 340 445 l 1,151,-1
 338 453 l 2,152,153
 331 478 331 478 331 532 c 128,-1,154
 331 586 331 586 338 606 c 0,155,156
 341 616 341 616 339 624 c 0,157,158
 332 651 332 651 331.5 703.5 c 128,-1,159
 331 756 331 756 338 777 c 2,160,-1
 341 785 l 1,161,-1
 313 785 l 2,162,163
 284 785 284 785 286 783 c 0,164,165
 294 769 294 769 294 701 c 0,166,167
 294 629 294 629 286 617 c 0,168,169
 284 615 284 615 287 606 c 0,170,171
 294 582 294 582 293.5 520.5 c 128,-1,172
 293 459 293 459 286 447 c 0,173,174
 285 446 285 446 285.5 442.5 c 128,-1,175
 286 439 286 439 287 435 c 0,176,177
 294 411 294 411 293.5 349.5 c 128,-1,178
 293 288 293 288 286 276 c 0,179,180
 285 275 285 275 285.5 271.5 c 128,-1,181
 286 268 286 268 287 264 c 0,182,183
 294 240 294 240 293.5 178.5 c 128,-1,184
 293 117 293 117 286 105 c 0,185,186
 284 103 284 103 287 94 c 0,187,188
 294 68 294 68 293.5 5 c 128,-1,189
 293 -58 293 -58 285 -66 c 0,190,191
 283 -68 283 -68 198 -68 c 2,192,-1
 113 -67 l 1,193,-1
 111 -59 l 2,194,195
 104 -34 104 -34 104 20 c 128,-1,196
 104 74 104 74 111 94 c 0,197,198
 113 102 113 102 111 112 c 0,199,200
 104 139 104 139 104 191.5 c 128,-1,201
 104 244 104 244 111 265 c 0,202,203
 113 273 113 273 111 282 c 0,204,205
 104 309 104 309 104 362 c 128,-1,206
 104 415 104 415 111 436 c 0,207,208
 113 444 113 444 111 453 c 0,209,210
 104 480 104 480 104 532.5 c 128,-1,211
 104 585 104 585 111 606 c 0,212,213
 113 614 113 614 111 624 c 0,214,215
 104 651 104 651 104 703.5 c 128,-1,216
 104 756 104 756 111 777 c 0,217,218
 113 785 113 785 111 794 c 0,219,220
 104 821 104 821 104 874 c 128,-1,221
 104 927 104 927 111 948 c 0,222,223
 113 956 113 956 111 965 c 0,224,225
 104 993 104 993 104 1047 c 128,-1,226
 104 1101 104 1101 111 1120 c 1,0,-1
EndSplineSet
EndChar

StartChar: N
Encoding: 78 78 49
Width: 851
Flags: W
LayerCount: 2
Fore
SplineSet
111 1120 m 1,0,-1
 114 1126 l 1,1,-1
 199 1126 l 2,2,3
 284 1126 284 1126 286 1124 c 0,4,5
 292 1114 292 1114 294 1065 c 128,-1,6
 296 1016 296 1016 291 988 c 0,7,8
 290 983 290 983 289.5 979 c 128,-1,9
 289 975 289 975 288.5 972.5 c 128,-1,10
 288 970 288 970 287.5 967.5 c 128,-1,11
 287 965 287 965 287 963.5 c 128,-1,12
 287 962 287 962 287 961 c 128,-1,13
 287 960 287 960 286 959 c 1,14,-1
 286 958 l 1,15,16
 284 956 284 956 313 956 c 0,17,18
 339 956 339 956 342 953 c 1,19,20
 348 943 348 943 350 894.5 c 128,-1,21
 352 846 352 846 348 818 c 0,22,23
 343 789 343 789 342 787 c 1,24,-1
 349 786 l 2,25,26
 356 786 356 786 369.5 785.5 c 128,-1,27
 383 785 383 785 398 785 c 0,28,29
 454 785 454 785 456 783 c 0,30,31
 462 773 462 773 464 724 c 128,-1,32
 466 675 466 675 462 647 c 0,33,34
 457 619 457 619 456 617 c 1,35,-1
 480 614 l 1,36,-1
 483 614 l 2,37,38
 511 614 511 614 513 612 c 0,39,40
 519 602 519 602 521 553 c 128,-1,41
 523 504 523 504 519 476 c 0,42,43
 514 448 514 448 513 446 c 1,44,-1
 520 446 l 1,45,46
 527 445 527 445 540 444.5 c 128,-1,47
 553 444 553 444 568 444 c 2,48,-1
 625 444 l 1,49,-1
 623 453 l 2,50,51
 616 480 616 480 616 532.5 c 128,-1,52
 616 585 616 585 623 606 c 0,53,54
 625 614 625 614 623 624 c 0,55,56
 616 651 616 651 616 703.5 c 128,-1,57
 616 756 616 756 623 777 c 0,58,59
 625 785 625 785 623 794 c 0,60,61
 616 821 616 821 616 874 c 128,-1,62
 616 927 616 927 623 948 c 0,63,64
 625 956 625 956 623 965 c 0,65,66
 616 993 616 993 616 1047 c 128,-1,67
 616 1101 616 1101 623 1120 c 1,68,-1
 626 1126 l 1,69,-1
 711 1126 l 2,70,71
 796 1126 796 1126 798 1124 c 0,72,73
 799 1123 799 1123 801 1112 c 0,74,75
 814 1043 814 1043 800 969 c 0,76,77
 798 955 798 955 800 943 c 0,78,79
 805 917 805 917 805 870.5 c 128,-1,80
 805 824 805 824 800 798 c 0,81,82
 798 785 798 785 800 772 c 0,83,84
 805 746 805 746 805 699 c 128,-1,85
 805 652 805 652 800 627 c 0,86,87
 798 614 798 614 800 602 c 0,88,89
 806 573 806 573 805.5 515.5 c 128,-1,90
 805 458 805 458 798 447 c 0,91,92
 797 446 797 446 797.5 442.5 c 128,-1,93
 798 439 798 439 799 435 c 0,94,95
 806 411 806 411 805.5 349.5 c 128,-1,96
 805 288 805 288 798 276 c 0,97,98
 797 275 797 275 797.5 271.5 c 128,-1,99
 798 268 798 268 799 264 c 0,100,101
 806 240 806 240 805.5 178.5 c 128,-1,102
 805 117 805 117 798 105 c 0,103,104
 796 103 796 103 799 94 c 0,105,106
 806 68 806 68 805.5 5 c 128,-1,107
 805 -58 805 -58 797 -66 c 0,108,109
 795 -68 795 -68 710 -68 c 2,110,-1
 625 -67 l 1,111,-1
 623 -59 l 2,112,113
 616 -34 616 -34 616 20.5 c 128,-1,114
 616 75 616 75 623 95 c 1,115,-1
 625 102 l 1,116,-1
 568 103 l 1,117,-1
 511 104 l 1,118,-1
 509 112 l 2,119,120
 502 138 502 138 502 191.5 c 128,-1,121
 502 245 502 245 509 265 c 2,122,-1
 512 273 l 1,123,-1
 483 274 l 1,124,-1
 454 274 l 1,125,-1
 452 282 l 2,126,127
 445 308 445 308 445 361.5 c 128,-1,128
 445 415 445 415 452 436 c 2,129,-1
 455 444 l 1,130,-1
 398 444 l 1,131,-1
 340 445 l 1,132,-1
 338 453 l 2,133,134
 331 478 331 478 331 532 c 128,-1,135
 331 586 331 586 338 606 c 2,136,-1
 341 614 l 1,137,-1
 313 614 l 1,138,-1
 285 614 l 1,139,-1
 287 605 l 1,140,141
 294 581 294 581 293.5 520 c 128,-1,142
 293 459 293 459 286 447 c 0,143,144
 285 446 285 446 285.5 442.5 c 128,-1,145
 286 439 286 439 287 435 c 0,146,147
 294 411 294 411 293.5 349.5 c 128,-1,148
 293 288 293 288 286 276 c 0,149,150
 285 275 285 275 285.5 271.5 c 128,-1,151
 286 268 286 268 287 264 c 0,152,153
 294 240 294 240 293.5 178.5 c 128,-1,154
 293 117 293 117 286 105 c 0,155,156
 284 103 284 103 287 94 c 0,157,158
 294 68 294 68 293.5 5 c 128,-1,159
 293 -58 293 -58 285 -66 c 0,160,161
 283 -68 283 -68 198 -68 c 2,162,-1
 113 -67 l 1,163,-1
 111 -59 l 2,164,165
 104 -34 104 -34 104 20 c 128,-1,166
 104 74 104 74 111 94 c 0,167,168
 113 102 113 102 111 112 c 0,169,170
 104 139 104 139 104 191.5 c 128,-1,171
 104 244 104 244 111 265 c 0,172,173
 113 273 113 273 111 282 c 0,174,175
 104 309 104 309 104 362 c 128,-1,176
 104 415 104 415 111 436 c 0,177,178
 113 444 113 444 111 453 c 0,179,180
 104 480 104 480 104 532.5 c 128,-1,181
 104 585 104 585 111 606 c 0,182,183
 113 614 113 614 111 624 c 0,184,185
 104 651 104 651 104 703.5 c 128,-1,186
 104 756 104 756 111 777 c 0,187,188
 113 785 113 785 111 794 c 0,189,190
 104 821 104 821 104 874 c 128,-1,191
 104 927 104 927 111 948 c 0,192,193
 113 956 113 956 111 965 c 0,194,195
 104 993 104 993 104 1047 c 128,-1,196
 104 1101 104 1101 111 1120 c 1,0,-1
EndSplineSet
EndChar

StartChar: O
Encoding: 79 79 50
Width: 851
Flags: W
LayerCount: 2
Fore
SplineSet
288 1120 m 2,0,-1
 290 1126 l 1,1,-1
 461 1126 l 2,2,3
 631 1126 631 1126 633 1124 c 0,4,5
 639 1114 639 1114 641 1065 c 128,-1,6
 643 1016 643 1016 639 988 c 0,7,8
 634 960 634 960 633 958 c 1,9,-1
 640 958 l 1,10,11
 647 957 647 957 660 956.5 c 128,-1,12
 673 956 673 956 688 956 c 0,13,14
 744 956 744 956 747 953 c 1,15,16
 753 943 753 943 755 894.5 c 128,-1,17
 757 846 757 846 753 818 c 0,18,19
 748 789 748 789 747 787 c 0,20,21
 745 785 745 785 774 785 c 0,22,23
 802 785 802 785 804 783 c 0,24,25
 805 782 805 782 807 771 c 0,26,27
 820 702 820 702 806 627 c 0,28,29
 804 614 804 614 806 602 c 0,30,31
 811 576 811 576 811 529 c 128,-1,32
 811 482 811 482 806 457 c 0,33,34
 804 444 804 444 806 431 c 1,35,36
 813 401 813 401 812 343.5 c 128,-1,37
 811 286 811 286 804 275 c 0,38,39
 802 273 802 273 774 273 c 2,40,-1
 746 273 l 1,41,-1
 748 264 l 1,42,43
 755 239 755 239 754.5 178 c 128,-1,44
 754 117 754 117 747 105 c 1,45,46
 744 102 744 102 688 102 c 0,47,48
 673 102 673 102 660 101.5 c 128,-1,49
 647 101 647 101 640 100 c 1,50,-1
 633 100 l 1,51,52
 641 86 641 86 640.5 14 c 128,-1,53
 640 -58 640 -58 632 -66 c 0,54,55
 630 -68 630 -68 460 -68 c 2,56,-1
 289 -67 l 1,57,-1
 287 -59 l 2,58,59
 280 -33 280 -33 280.5 21 c 128,-1,60
 281 75 281 75 288 95 c 1,61,-1
 290 102 l 1,62,-1
 233 103 l 1,63,-1
 176 104 l 1,64,-1
 173 112 l 1,65,66
 166 138 166 138 166.5 191.5 c 128,-1,67
 167 245 167 245 174 265 c 1,68,-1
 176 273 l 1,69,-1
 148 274 l 1,70,-1
 119 274 l 1,71,-1
 117 282 l 2,72,73
 110 308 110 308 110 362 c 128,-1,74
 110 416 110 416 117 436 c 0,75,76
 119 444 119 444 117 453 c 0,77,78
 110 480 110 480 110 532.5 c 128,-1,79
 110 585 110 585 117 606 c 0,80,81
 119 614 119 614 117 624 c 0,82,83
 104 671 104 671 112 746 c 0,84,85
 115 776 115 776 119 780.5 c 128,-1,86
 123 785 123 785 148 785 c 2,87,-1
 176 785 l 1,88,-1
 174 794 l 2,89,90
 167 822 167 822 167 876 c 128,-1,91
 167 930 167 930 174 949 c 1,92,-1
 177 956 l 1,93,-1
 233 956 l 1,94,-1
 290 956 l 1,95,-1
 287 965 l 1,96,97
 280 992 280 992 280.5 1046.5 c 128,-1,98
 281 1101 281 1101 288 1120 c 2,0,-1
572 948 m 2,99,-1
 575 956 l 1,100,-1
 461 956 l 2,101,102
 432 956 432 956 404.5 955.5 c 128,-1,103
 377 955 377 955 362 954.5 c 128,-1,104
 347 954 347 954 348 953 c 0,105,106
 357 937 357 937 357 872 c 0,107,108
 357 803 357 803 348 787 c 0,109,110
 346 785 346 785 319 785 c 0,111,112
 290 785 290 785 292 783 c 0,113,114
 299 772 299 772 299.5 714 c 128,-1,115
 300 656 300 656 294 627 c 0,116,117
 292 614 292 614 294 602 c 0,118,119
 299 576 299 576 299 529 c 128,-1,120
 299 482 299 482 294 457 c 0,121,122
 292 444 292 444 294 431 c 1,123,124
 301 401 301 401 300 343.5 c 128,-1,125
 299 286 299 286 292 275 c 0,126,127
 290 273 290 273 319 273 c 0,128,129
 346 273 346 273 348 271 c 0,130,131
 354 261 354 261 356 212.5 c 128,-1,132
 358 164 358 164 354 135 c 0,133,134
 350 108 350 108 348 105 c 0,135,136
 347 104 347 104 362 103.5 c 128,-1,137
 377 103 377 103 404.5 102.5 c 128,-1,138
 432 102 432 102 461 102 c 2,139,-1
 574 102 l 1,140,-1
 572 112 l 1,141,142
 559 159 559 159 567 234 c 0,143,144
 570 264 570 264 574 268.5 c 128,-1,145
 578 273 578 273 603 273 c 2,146,-1
 631 273 l 1,147,-1
 629 282 l 2,148,149
 622 309 622 309 622 362 c 128,-1,150
 622 415 622 415 629 436 c 0,151,152
 631 444 631 444 629 453 c 0,153,154
 622 480 622 480 622 532.5 c 128,-1,155
 622 585 622 585 629 606 c 0,156,157
 631 614 631 614 629 624 c 0,158,159
 622 651 622 651 622 703.5 c 128,-1,160
 622 756 622 756 629 777 c 1,161,-1
 631 785 l 1,162,-1
 603 786 l 1,163,-1
 574 786 l 1,164,-1
 572 794 l 2,165,166
 565 820 565 820 565 873.5 c 128,-1,167
 565 927 565 927 572 948 c 2,99,-1
EndSplineSet
EndChar

StartChar: P
Encoding: 80 80 51
Width: 851
Flags: W
LayerCount: 2
Fore
SplineSet
168 1120 m 1,0,-1
 171 1126 l 1,1,-1
 427 1126 l 2,2,3
 682 1126 682 1126 684 1124 c 0,4,5
 690 1114 690 1114 692 1065 c 128,-1,6
 694 1016 694 1016 690 988 c 0,7,8
 685 960 685 960 684 958 c 1,9,-1
 691 958 l 1,10,11
 698 957 698 957 711 956.5 c 128,-1,12
 724 956 724 956 739 956 c 0,13,14
 795 956 795 956 798 953 c 0,15,16
 799 952 799 952 801 941 c 0,17,18
 814 872 814 872 800 798 c 0,19,20
 798 784 798 784 800 772 c 0,21,22
 807 742 807 742 806 685 c 128,-1,23
 805 628 805 628 798 617 c 0,24,25
 795 614 795 614 739 614 c 0,26,27
 724 614 724 614 711 613.5 c 128,-1,28
 698 613 698 613 691 612 c 1,29,-1
 684 612 l 1,30,31
 692 598 692 598 692 530 c 0,32,33
 692 460 692 460 684 446 c 0,34,35
 682 444 682 444 512 444 c 2,36,-1
 342 444 l 1,37,-1
 344 435 l 1,38,39
 351 411 351 411 350.5 349.5 c 128,-1,40
 350 288 350 288 343 276 c 0,41,42
 342 275 342 275 342.5 271.5 c 128,-1,43
 343 268 343 268 344 264 c 0,44,45
 351 240 351 240 350.5 178.5 c 128,-1,46
 350 117 350 117 343 105 c 0,47,48
 341 103 341 103 344 94 c 0,49,50
 351 68 351 68 350.5 5 c 128,-1,51
 350 -58 350 -58 342 -66 c 0,52,53
 340 -68 340 -68 255 -68 c 2,54,-1
 170 -67 l 1,55,-1
 167 -59 l 1,56,57
 160 -33 160 -33 160.5 20.5 c 128,-1,58
 161 74 161 74 168 94 c 0,59,60
 170 102 170 102 168 112 c 0,61,62
 161 139 161 139 161 191.5 c 128,-1,63
 161 244 161 244 168 265 c 0,64,65
 170 273 170 273 168 282 c 0,66,67
 161 309 161 309 161 362 c 128,-1,68
 161 415 161 415 168 436 c 0,69,70
 170 444 170 444 168 453 c 0,71,72
 161 480 161 480 161 532.5 c 128,-1,73
 161 585 161 585 168 606 c 0,74,75
 170 614 170 614 168 624 c 0,76,77
 161 651 161 651 161 703.5 c 128,-1,78
 161 756 161 756 168 777 c 0,79,80
 170 785 170 785 168 794 c 0,81,82
 161 821 161 821 161 874 c 128,-1,83
 161 927 161 927 168 948 c 0,84,85
 170 956 170 956 168 965 c 0,86,87
 161 993 161 993 161 1047 c 128,-1,88
 161 1101 161 1101 168 1120 c 1,0,-1
623 948 m 1,89,-1
 625 956 l 1,90,-1
 483 956 l 2,91,92
 447 956 447 956 412.5 955.5 c 128,-1,93
 378 955 378 955 359.5 954.5 c 128,-1,94
 341 954 341 954 342 953 c 0,95,96
 349 942 349 942 350 884.5 c 128,-1,97
 351 827 351 827 345 798 c 0,98,99
 343 785 343 785 345 772 c 1,100,101
 352 742 352 742 351 685 c 128,-1,102
 350 628 350 628 342 617 c 0,103,104
 341 616 341 616 359.5 615.5 c 128,-1,105
 378 615 378 615 412.5 614.5 c 128,-1,106
 447 614 447 614 483 614 c 2,107,-1
 625 614 l 1,108,-1
 623 624 l 1,109,110
 616 651 616 651 616 703.5 c 128,-1,111
 616 756 616 756 623 777 c 0,112,113
 625 785 625 785 623 794 c 0,114,115
 616 821 616 821 616 874 c 128,-1,116
 616 927 616 927 623 948 c 1,89,-1
EndSplineSet
EndChar

StartChar: Q
Encoding: 81 81 52
Width: 851
Flags: W
LayerCount: 2
Fore
SplineSet
288 1120 m 2,0,-1
 290 1126 l 1,1,-1
 461 1126 l 2,2,3
 631 1126 631 1126 633 1124 c 0,4,5
 639 1114 639 1114 641 1065 c 128,-1,6
 643 1016 643 1016 639 988 c 0,7,8
 634 960 634 960 633 958 c 1,9,-1
 640 958 l 1,10,11
 647 957 647 957 660 956.5 c 128,-1,12
 673 956 673 956 688 956 c 0,13,14
 744 956 744 956 747 953 c 1,15,16
 753 943 753 943 755 894.5 c 128,-1,17
 757 846 757 846 753 818 c 0,18,19
 748 789 748 789 747 787 c 0,20,21
 745 785 745 785 774 785 c 0,22,23
 802 785 802 785 804 783 c 0,24,25
 805 782 805 782 807 771 c 0,26,27
 820 702 820 702 806 627 c 0,28,29
 804 614 804 614 806 602 c 0,30,31
 811 576 811 576 811 529 c 128,-1,32
 811 482 811 482 806 457 c 0,33,34
 804 444 804 444 806 431 c 1,35,36
 813 401 813 401 812 343.5 c 128,-1,37
 811 286 811 286 804 275 c 0,38,39
 802 273 802 273 774 273 c 2,40,-1
 746 273 l 1,41,-1
 748 264 l 1,42,43
 755 239 755 239 754.5 178 c 128,-1,44
 754 117 754 117 747 105 c 1,45,46
 744 102 744 102 688 102 c 0,47,48
 673 102 673 102 660 101.5 c 128,-1,49
 647 101 647 101 640 100 c 1,50,-1
 633 100 l 1,51,52
 641 86 641 86 641 18 c 0,53,54
 641 -52 641 -52 633 -66 c 0,55,56
 631 -68 631 -68 660 -68 c 0,57,58
 687 -68 687 -68 690 -71 c 1,59,60
 696 -81 696 -81 698 -129 c 128,-1,61
 700 -177 700 -177 696 -206 c 0,62,63
 692 -234 692 -234 690 -237 c 0,64,65
 688 -239 688 -239 717 -239 c 0,66,67
 745 -239 745 -239 747 -241 c 0,68,69
 753 -250 753 -250 755.5 -301 c 128,-1,70
 758 -352 758 -352 753 -375 c 0,71,72
 752 -377 752 -377 751 -384.5 c 128,-1,73
 750 -392 750 -392 750 -394 c 0,74,75
 748 -405 748 -405 746 -407 c 128,-1,76
 744 -409 744 -409 687 -409 c 1,77,-1
 631 -408 l 1,78,-1
 629 -400 l 2,79,80
 622 -374 622 -374 622 -320.5 c 128,-1,81
 622 -267 622 -267 629 -247 c 1,82,-1
 631 -239 l 1,83,-1
 603 -238 l 1,84,-1
 574 -238 l 1,85,-1
 572 -230 l 2,86,87
 565 -204 565 -204 565 -150.5 c 128,-1,88
 565 -97 565 -97 572 -76 c 2,89,-1
 575 -68 l 1,90,-1
 432 -68 l 1,91,-1
 289 -67 l 1,92,-1
 287 -59 l 2,93,94
 280 -33 280 -33 280.5 21 c 128,-1,95
 281 75 281 75 288 95 c 1,96,-1
 290 102 l 1,97,-1
 233 103 l 1,98,-1
 176 104 l 1,99,-1
 173 112 l 1,100,101
 166 138 166 138 166.5 191.5 c 128,-1,102
 167 245 167 245 174 265 c 1,103,-1
 176 273 l 1,104,-1
 148 274 l 1,105,-1
 119 274 l 1,106,-1
 117 282 l 2,107,108
 110 308 110 308 110 362 c 128,-1,109
 110 416 110 416 117 436 c 0,110,111
 119 444 119 444 117 453 c 0,112,113
 110 480 110 480 110 532.5 c 128,-1,114
 110 585 110 585 117 606 c 0,115,116
 119 614 119 614 117 624 c 0,117,118
 104 671 104 671 112 746 c 0,119,120
 115 776 115 776 119 780.5 c 128,-1,121
 123 785 123 785 148 785 c 2,122,-1
 176 785 l 1,123,-1
 174 794 l 2,124,125
 167 822 167 822 167 876 c 128,-1,126
 167 930 167 930 174 949 c 1,127,-1
 177 956 l 1,128,-1
 233 956 l 1,129,-1
 290 956 l 1,130,-1
 287 965 l 1,131,132
 280 992 280 992 280.5 1046.5 c 128,-1,133
 281 1101 281 1101 288 1120 c 2,0,-1
572 948 m 2,134,-1
 575 956 l 1,135,-1
 461 956 l 2,136,137
 432 956 432 956 404.5 955.5 c 128,-1,138
 377 955 377 955 362 954.5 c 128,-1,139
 347 954 347 954 348 953 c 0,140,141
 357 937 357 937 357 872 c 0,142,143
 357 803 357 803 348 787 c 0,144,145
 346 785 346 785 319 785 c 0,146,147
 290 785 290 785 292 783 c 0,148,149
 299 772 299 772 299.5 714 c 128,-1,150
 300 656 300 656 294 627 c 0,151,152
 292 614 292 614 294 602 c 0,153,154
 299 576 299 576 299 529 c 128,-1,155
 299 482 299 482 294 457 c 0,156,157
 292 444 292 444 294 431 c 1,158,159
 301 401 301 401 300 343.5 c 128,-1,160
 299 286 299 286 292 275 c 0,161,162
 290 273 290 273 319 273 c 0,163,164
 346 273 346 273 348 271 c 0,165,166
 354 261 354 261 356 212.5 c 128,-1,167
 358 164 358 164 354 135 c 0,168,169
 350 108 350 108 348 105 c 1,170,-1
 350 104 l 1,171,172
 353 104 353 104 358.5 103.5 c 128,-1,173
 364 103 364 103 370.5 102.5 c 128,-1,174
 377 102 377 102 386 102 c 128,-1,175
 395 102 395 102 404 102 c 2,176,-1
 461 102 l 1,177,-1
 458 112 l 1,178,179
 451 139 451 139 451 191.5 c 128,-1,180
 451 244 451 244 458 265 c 2,181,-1
 461 273 l 1,182,-1
 432 274 l 1,183,-1
 403 274 l 1,184,-1
 401 282 l 2,185,186
 394 308 394 308 394.5 363.5 c 128,-1,187
 395 419 395 419 402 437 c 1,188,-1
 404 444 l 1,189,-1
 489 444 l 2,190,191
 573 444 573 444 576 441 c 1,192,193
 582 431 582 431 584 382.5 c 128,-1,194
 586 334 586 334 582 306 c 0,195,196
 577 277 577 277 576 275 c 0,197,198
 574 273 574 273 603 273 c 2,199,-1
 631 273 l 1,200,-1
 629 282 l 2,201,202
 622 309 622 309 622 362 c 128,-1,203
 622 415 622 415 629 436 c 0,204,205
 631 444 631 444 629 453 c 0,206,207
 622 480 622 480 622 532.5 c 128,-1,208
 622 585 622 585 629 606 c 0,209,210
 631 614 631 614 629 624 c 0,211,212
 622 651 622 651 622 703.5 c 128,-1,213
 622 756 622 756 629 777 c 1,214,-1
 631 785 l 1,215,-1
 603 786 l 1,216,-1
 574 786 l 1,217,-1
 572 794 l 2,218,219
 565 820 565 820 565 873.5 c 128,-1,220
 565 927 565 927 572 948 c 2,134,-1
EndSplineSet
EndChar

StartChar: R
Encoding: 82 82 53
Width: 851
Flags: W
LayerCount: 2
Fore
SplineSet
111 1120 m 1,0,-1
 114 1126 l 1,1,-1
 398 1126 l 2,2,3
 682 1126 682 1126 684 1124 c 0,4,5
 690 1114 690 1114 692 1065 c 128,-1,6
 694 1016 694 1016 690 988 c 0,7,8
 685 960 685 960 684 958 c 1,9,-1
 691 958 l 1,10,11
 698 957 698 957 711 956.5 c 128,-1,12
 724 956 724 956 739 956 c 0,13,14
 795 956 795 956 798 953 c 1,15,16
 804 943 804 943 806 894.5 c 128,-1,17
 808 846 808 846 803 818 c 0,18,19
 801 808 801 808 800 800.5 c 128,-1,20
 799 793 799 793 798.5 790.5 c 128,-1,21
 798 788 798 788 798 787 c 0,22,23
 796 785 796 785 768 785 c 0,24,25
 739 785 739 785 741 783 c 0,26,27
 749 769 749 769 749 701 c 0,28,29
 749 631 749 631 741 617 c 1,30,31
 738 614 738 614 682 614 c 0,32,33
 667 614 667 614 654 613.5 c 128,-1,34
 641 613 641 613 634 612 c 1,35,-1
 627 612 l 1,36,37
 635 598 635 598 635 530 c 0,38,39
 635 460 635 460 627 446 c 0,40,41
 625 444 625 444 654 444 c 0,42,43
 679 444 679 444 683 440 c 128,-1,44
 687 436 687 436 690 408 c 0,45,46
 694 374 694 374 691.5 329 c 128,-1,47
 689 284 689 284 684 275 c 0,48,49
 682 273 682 273 711 273 c 0,50,51
 739 273 739 273 741 271 c 0,52,53
 746 262 746 262 748.5 212.5 c 128,-1,54
 751 163 751 163 747 138 c 0,55,56
 746 136 746 136 745 128 c 128,-1,57
 744 120 744 120 744 118 c 0,58,59
 742 106 742 106 741 105 c 1,60,-1
 765 102 l 1,61,-1
 768 102 l 2,62,63
 796 102 796 102 798 100 c 0,64,65
 803 91 803 91 805.5 41.5 c 128,-1,66
 808 -8 808 -8 804 -33 c 0,67,68
 803 -36 803 -36 802 -43.5 c 128,-1,69
 801 -51 801 -51 801 -53 c 0,70,71
 799 -64 799 -64 797 -66 c 128,-1,72
 795 -68 795 -68 710 -68 c 2,73,-1
 625 -67 l 1,74,-1
 623 -59 l 2,75,76
 616 -34 616 -34 616 20 c 128,-1,77
 616 74 616 74 623 94 c 1,78,-1
 625 102 l 1,79,-1
 597 103 l 1,80,-1
 568 104 l 1,81,-1
 566 112 l 2,82,83
 559 138 559 138 559 191.5 c 128,-1,84
 559 245 559 245 566 265 c 2,85,-1
 569 273 l 1,86,-1
 540 274 l 1,87,-1
 511 274 l 1,88,-1
 509 282 l 2,89,90
 502 308 502 308 502 361.5 c 128,-1,91
 502 415 502 415 509 436 c 2,92,-1
 512 444 l 1,93,-1
 398 444 l 1,94,-1
 285 444 l 1,95,-1
 287 435 l 1,96,97
 294 411 294 411 293.5 349.5 c 128,-1,98
 293 288 293 288 286 276 c 0,99,100
 285 275 285 275 285.5 271.5 c 128,-1,101
 286 268 286 268 287 264 c 0,102,103
 294 240 294 240 293.5 178.5 c 128,-1,104
 293 117 293 117 286 105 c 0,105,106
 284 103 284 103 287 94 c 0,107,108
 294 68 294 68 293.5 5 c 128,-1,109
 293 -58 293 -58 285 -66 c 0,110,111
 283 -68 283 -68 198 -68 c 2,112,-1
 113 -67 l 1,113,-1
 111 -59 l 2,114,115
 104 -34 104 -34 104 20 c 128,-1,116
 104 74 104 74 111 94 c 0,117,118
 113 102 113 102 111 112 c 0,119,120
 104 139 104 139 104 191.5 c 128,-1,121
 104 244 104 244 111 265 c 0,122,123
 113 273 113 273 111 282 c 0,124,125
 104 309 104 309 104 362 c 128,-1,126
 104 415 104 415 111 436 c 0,127,128
 113 444 113 444 111 453 c 0,129,130
 104 480 104 480 104 532.5 c 128,-1,131
 104 585 104 585 111 606 c 0,132,133
 113 614 113 614 111 624 c 0,134,135
 104 651 104 651 104 703.5 c 128,-1,136
 104 756 104 756 111 777 c 0,137,138
 113 785 113 785 111 794 c 0,139,140
 104 821 104 821 104 874 c 128,-1,141
 104 927 104 927 111 948 c 0,142,143
 113 956 113 956 111 965 c 0,144,145
 104 993 104 993 104 1047 c 128,-1,146
 104 1101 104 1101 111 1120 c 1,0,-1
566 948 m 2,147,-1
 569 956 l 1,148,-1
 426 956 l 2,149,150
 390 956 390 956 356 955.5 c 128,-1,151
 322 955 322 955 303.5 954.5 c 128,-1,152
 285 954 285 954 286 953 c 0,153,154
 293 942 293 942 293.5 884.5 c 128,-1,155
 294 827 294 827 288 798 c 0,156,157
 286 785 286 785 288 772 c 1,158,159
 295 742 295 742 294 685 c 128,-1,160
 293 628 293 628 286 617 c 0,161,162
 285 616 285 616 303.5 615.5 c 128,-1,163
 322 615 322 615 356 614.5 c 128,-1,164
 390 614 390 614 426 614 c 2,165,-1
 568 614 l 1,166,-1
 566 624 l 1,167,168
 559 651 559 651 559 703.5 c 128,-1,169
 559 756 559 756 566 777 c 0,170,171
 568 785 568 785 566 794 c 0,172,173
 559 821 559 821 559 874 c 128,-1,174
 559 927 559 927 566 948 c 2,147,-1
EndSplineSet
EndChar

StartChar: S
Encoding: 83 83 54
Width: 851
Flags: W
LayerCount: 2
Fore
SplineSet
225 1120 m 1,0,-1
 228 1126 l 1,1,-1
 455 1126 l 2,2,3
 682 1126 682 1126 684 1124 c 0,4,5
 690 1114 690 1114 692 1065 c 128,-1,6
 694 1016 694 1016 690 988 c 0,7,8
 685 960 685 960 684 958 c 1,9,-1
 691 958 l 1,10,11
 698 957 698 957 711 956.5 c 128,-1,12
 724 956 724 956 739 956 c 0,13,14
 795 956 795 956 798 953 c 1,15,16
 804 943 804 943 806 894.5 c 128,-1,17
 808 846 808 846 804 818 c 0,18,19
 799 789 799 789 797 787 c 0,20,21
 796 786 796 786 710 786 c 2,22,-1
 625 786 l 1,23,-1
 623 794 l 2,24,25
 616 820 616 820 616 874 c 128,-1,26
 616 928 616 928 623 948 c 1,27,-1
 625 956 l 1,28,-1
 455 956 l 2,29,30
 411 956 411 956 370 955.5 c 128,-1,31
 329 955 329 955 307 954.5 c 128,-1,32
 285 954 285 954 286 953 c 0,33,34
 293 942 293 942 293.5 884.5 c 128,-1,35
 294 827 294 827 288 798 c 0,36,37
 286 785 286 785 288 772 c 1,38,39
 295 742 295 742 294 685 c 128,-1,40
 293 628 293 628 286 617 c 0,41,42
 285 616 285 616 310.5 615.5 c 128,-1,43
 336 615 336 615 384 614.5 c 128,-1,44
 432 614 432 614 483 614 c 0,45,46
 682 614 682 614 684 612 c 0,47,48
 690 602 690 602 692 553 c 128,-1,49
 694 504 694 504 690 476 c 0,50,51
 685 448 685 448 684 446 c 1,52,-1
 691 446 l 1,53,54
 698 445 698 445 711 444.5 c 128,-1,55
 724 444 724 444 739 444 c 0,56,57
 795 444 795 444 798 441 c 1,58,59
 803 432 803 432 805.5 382.5 c 128,-1,60
 808 333 808 333 804 308 c 0,61,62
 804 307 804 307 802.5 299.5 c 128,-1,63
 801 292 801 292 800 289 c 0,64,65
 798 273 798 273 800 260 c 1,66,67
 807 230 807 230 806 173 c 128,-1,68
 805 116 805 116 798 105 c 0,69,70
 795 102 795 102 739 102 c 0,71,72
 724 102 724 102 711 101.5 c 128,-1,73
 698 101 698 101 691 100 c 1,74,-1
 684 100 l 1,75,76
 692 86 692 86 691.5 14 c 128,-1,77
 691 -58 691 -58 683 -66 c 0,78,79
 681 -68 681 -68 454 -68 c 2,80,-1
 226 -67 l 1,81,-1
 224 -59 l 2,82,83
 217 -33 217 -33 217.5 21 c 128,-1,84
 218 75 218 75 225 95 c 1,85,-1
 227 102 l 1,86,-1
 170 103 l 1,87,-1
 113 104 l 1,88,-1
 111 112 l 2,89,90
 104 138 104 138 104 193.5 c 128,-1,91
 104 249 104 249 111 267 c 1,92,-1
 114 273 l 1,93,-1
 199 273 l 2,94,95
 284 273 284 273 286 271 c 0,96,97
 292 261 292 261 294 212 c 128,-1,98
 296 163 296 163 291 135 c 0,99,100
 290 130 290 130 289.5 126 c 128,-1,101
 289 122 289 122 288.5 119.5 c 128,-1,102
 288 117 288 117 287.5 114.5 c 128,-1,103
 287 112 287 112 287 110.5 c 128,-1,104
 287 109 287 109 287 108 c 128,-1,105
 287 107 287 107 286 106 c 1,106,-1
 286 105 l 1,107,108
 285 104 285 104 307 103.5 c 128,-1,109
 329 103 329 103 370 102.5 c 128,-1,110
 411 102 411 102 455 102 c 2,111,-1
 625 102 l 1,112,-1
 623 112 l 1,113,114
 616 139 616 139 616 191.5 c 128,-1,115
 616 244 616 244 623 265 c 0,116,117
 625 273 625 273 623 282 c 0,118,119
 616 309 616 309 616 362 c 128,-1,120
 616 415 616 415 623 436 c 1,121,-1
 625 444 l 1,122,-1
 426 444 l 1,123,-1
 226 445 l 1,124,-1
 224 453 l 2,125,126
 217 479 217 479 217.5 533 c 128,-1,127
 218 587 218 587 225 607 c 1,128,-1
 227 614 l 1,129,-1
 170 615 l 1,130,-1
 113 616 l 1,131,-1
 111 624 l 2,132,133
 104 650 104 650 104 703.5 c 128,-1,134
 104 757 104 757 111 777 c 0,135,136
 113 785 113 785 111 794 c 0,137,138
 104 822 104 822 104 876 c 128,-1,139
 104 930 104 930 111 949 c 1,140,-1
 114 956 l 1,141,-1
 170 956 l 1,142,-1
 227 956 l 1,143,-1
 225 965 l 2,144,145
 218 993 218 993 218 1047 c 128,-1,146
 218 1101 218 1101 225 1120 c 1,0,-1
EndSplineSet
EndChar

StartChar: T
Encoding: 84 84 55
Width: 851
Flags: W
LayerCount: 2
Fore
SplineSet
168 1120 m 1,0,-1
 171 1126 l 1,1,-1
 483 1126 l 2,2,3
 796 1126 796 1126 798 1124 c 0,4,5
 804 1114 804 1114 806 1065 c 128,-1,6
 808 1016 808 1016 803 988 c 0,7,8
 802 983 802 983 801.5 979 c 128,-1,9
 801 975 801 975 800.5 972.5 c 128,-1,10
 800 970 800 970 799.5 967.5 c 128,-1,11
 799 965 799 965 799 963.5 c 128,-1,12
 799 962 799 962 799 961 c 128,-1,13
 799 960 799 960 798 959 c 1,14,-1
 798 958 l 1,15,16
 796 956 796 956 682 956 c 0,17,18
 653 956 653 956 625.5 955.5 c 128,-1,19
 598 955 598 955 583.5 954.5 c 128,-1,20
 569 954 569 954 570 953 c 0,21,22
 577 942 577 942 578 884.5 c 128,-1,23
 579 827 579 827 573 798 c 0,24,25
 571 785 571 785 573 772 c 0,26,27
 579 743 579 743 578 685.5 c 128,-1,28
 577 628 577 628 570 617 c 0,29,30
 568 615 568 615 572 606 c 1,31,32
 579 582 579 582 578 520.5 c 128,-1,33
 577 459 577 459 570 447 c 0,34,35
 568 445 568 445 572 435 c 1,36,37
 579 411 579 411 578 349.5 c 128,-1,38
 577 288 577 288 570 276 c 0,39,40
 568 274 568 274 572 264 c 1,41,42
 579 240 579 240 578 178.5 c 128,-1,43
 577 117 577 117 570 105 c 0,44,45
 568 103 568 103 572 94 c 1,46,47
 579 68 579 68 578 5 c 128,-1,48
 577 -58 577 -58 569 -66 c 0,49,50
 567 -68 567 -68 482 -68 c 2,51,-1
 397 -67 l 1,52,-1
 395 -59 l 2,53,54
 388 -34 388 -34 388 20 c 128,-1,55
 388 74 388 74 395 94 c 0,56,57
 397 102 397 102 395 112 c 0,58,59
 388 139 388 139 388 191.5 c 128,-1,60
 388 244 388 244 395 265 c 0,61,62
 397 273 397 273 395 282 c 0,63,64
 388 309 388 309 388 362 c 128,-1,65
 388 415 388 415 395 436 c 0,66,67
 397 444 397 444 395 453 c 0,68,69
 388 480 388 480 388 532.5 c 128,-1,70
 388 585 388 585 395 606 c 0,71,72
 397 614 397 614 395 624 c 0,73,74
 388 651 388 651 388 703.5 c 128,-1,75
 388 756 388 756 395 777 c 0,76,77
 397 785 397 785 395 794 c 0,78,79
 388 821 388 821 388 874 c 128,-1,80
 388 927 388 927 395 948 c 2,81,-1
 398 956 l 1,82,-1
 284 956 l 1,83,-1
 170 957 l 1,84,-1
 167 965 l 1,85,86
 160 991 160 991 160.5 1046.5 c 128,-1,87
 161 1102 161 1102 168 1120 c 1,0,-1
EndSplineSet
EndChar

StartChar: U
Encoding: 85 85 56
Width: 851
Flags: W
LayerCount: 2
Fore
SplineSet
111 1120 m 1,0,-1
 114 1126 l 1,1,-1
 199 1126 l 2,2,3
 284 1126 284 1126 286 1124 c 0,4,5
 287 1123 287 1123 289 1112 c 0,6,7
 302 1043 302 1043 288 969 c 0,8,9
 286 955 286 955 288 943 c 0,10,11
 293 917 293 917 293 870.5 c 128,-1,12
 293 824 293 824 288 798 c 0,13,14
 286 785 286 785 288 772 c 0,15,16
 293 746 293 746 293 699 c 128,-1,17
 293 652 293 652 288 627 c 0,18,19
 286 614 286 614 288 602 c 0,20,21
 294 573 294 573 293.5 515.5 c 128,-1,22
 293 458 293 458 286 447 c 0,23,24
 285 446 285 446 285.5 442.5 c 128,-1,25
 286 439 286 439 287 435 c 0,26,27
 294 411 294 411 293.5 349.5 c 128,-1,28
 293 288 293 288 286 276 c 0,29,30
 285 275 285 275 285.5 271.5 c 128,-1,31
 286 268 286 268 287 264 c 0,32,33
 294 239 294 239 293.5 178 c 128,-1,34
 293 117 293 117 286 105 c 0,35,36
 285 104 285 104 307 103.5 c 128,-1,37
 329 103 329 103 370 102.5 c 128,-1,38
 411 102 411 102 455 102 c 2,39,-1
 625 102 l 1,40,-1
 623 112 l 1,41,42
 616 139 616 139 616 191.5 c 128,-1,43
 616 244 616 244 623 265 c 0,44,45
 625 273 625 273 623 282 c 0,46,47
 616 309 616 309 616 362 c 128,-1,48
 616 415 616 415 623 436 c 0,49,50
 625 444 625 444 623 453 c 0,51,52
 616 480 616 480 616 532.5 c 128,-1,53
 616 585 616 585 623 606 c 0,54,55
 625 614 625 614 623 624 c 0,56,57
 616 651 616 651 616 703.5 c 128,-1,58
 616 756 616 756 623 777 c 0,59,60
 625 785 625 785 623 794 c 0,61,62
 616 821 616 821 616 874 c 128,-1,63
 616 927 616 927 623 948 c 0,64,65
 625 956 625 956 623 965 c 0,66,67
 616 993 616 993 616 1047 c 128,-1,68
 616 1101 616 1101 623 1120 c 1,69,-1
 626 1126 l 1,70,-1
 711 1126 l 2,71,72
 796 1126 796 1126 798 1124 c 0,73,74
 799 1123 799 1123 801 1112 c 0,75,76
 814 1043 814 1043 800 969 c 0,77,78
 798 955 798 955 800 943 c 0,79,80
 805 917 805 917 805 870.5 c 128,-1,81
 805 824 805 824 800 798 c 0,82,83
 798 785 798 785 800 772 c 0,84,85
 805 746 805 746 805 699 c 128,-1,86
 805 652 805 652 800 627 c 0,87,88
 798 614 798 614 800 602 c 0,89,90
 806 573 806 573 805.5 515.5 c 128,-1,91
 805 458 805 458 798 447 c 0,92,93
 797 446 797 446 797.5 442.5 c 128,-1,94
 798 439 798 439 799 435 c 0,95,96
 806 411 806 411 805.5 349.5 c 128,-1,97
 805 288 805 288 798 276 c 0,98,99
 797 275 797 275 797.5 271.5 c 128,-1,100
 798 268 798 268 799 264 c 0,101,102
 806 239 806 239 805.5 178 c 128,-1,103
 805 117 805 117 798 105 c 1,104,105
 795 102 795 102 739 102 c 0,106,107
 724 102 724 102 711 101.5 c 128,-1,108
 698 101 698 101 691 100 c 1,109,-1
 684 100 l 1,110,111
 692 86 692 86 691.5 14 c 128,-1,112
 691 -58 691 -58 683 -66 c 0,113,114
 681 -68 681 -68 454 -68 c 2,115,-1
 226 -67 l 1,116,-1
 224 -59 l 2,117,118
 217 -33 217 -33 217.5 21 c 128,-1,119
 218 75 218 75 225 95 c 1,120,-1
 227 102 l 1,121,-1
 170 103 l 1,122,-1
 113 104 l 1,123,-1
 111 112 l 2,124,125
 104 138 104 138 104 191.5 c 128,-1,126
 104 245 104 245 111 265 c 0,127,128
 113 273 113 273 111 282 c 0,129,130
 104 309 104 309 104 362 c 128,-1,131
 104 415 104 415 111 436 c 0,132,133
 113 444 113 444 111 453 c 0,134,135
 104 480 104 480 104 532.5 c 128,-1,136
 104 585 104 585 111 606 c 0,137,138
 113 614 113 614 111 624 c 0,139,140
 104 651 104 651 104 703.5 c 128,-1,141
 104 756 104 756 111 777 c 0,142,143
 113 785 113 785 111 794 c 0,144,145
 104 821 104 821 104 874 c 128,-1,146
 104 927 104 927 111 948 c 0,147,148
 113 956 113 956 111 965 c 0,149,150
 104 993 104 993 104 1047 c 128,-1,151
 104 1101 104 1101 111 1120 c 1,0,-1
EndSplineSet
EndChar

StartChar: V
Encoding: 86 86 57
Width: 851
Flags: W
LayerCount: 2
Fore
SplineSet
168 1120 m 1,0,-1
 171 1126 l 1,1,-1
 256 1126 l 2,2,3
 340 1126 340 1126 342 1124 c 128,-1,4
 344 1122 344 1122 346 1112 c 0,5,6
 359 1043 359 1043 345 969 c 0,7,8
 343 955 343 955 345 943 c 0,9,10
 350 917 350 917 350 870.5 c 128,-1,11
 350 824 350 824 345 798 c 0,12,13
 343 785 343 785 345 772 c 1,14,15
 352 742 352 742 351 685 c 128,-1,16
 350 628 350 628 342 617 c 1,17,-1
 366 614 l 1,18,-1
 369 614 l 2,19,20
 397 614 397 614 399 612 c 0,21,22
 405 602 405 602 407 554 c 128,-1,23
 409 506 409 506 405 477 c 0,24,25
 401 449 401 449 399 446 c 0,26,27
 397 444 397 444 426 444 c 0,28,29
 453 444 453 444 456 441 c 0,30,31
 462 432 462 432 464.5 381 c 128,-1,32
 467 330 467 330 462 307 c 0,33,34
 461 305 461 305 460.5 298.5 c 128,-1,35
 460 292 460 292 460 289 c 0,36,37
 458 278 458 278 456 276 c 1,38,-1
 480 273 l 1,39,-1
 483 273 l 1,40,-1
 511 273 l 1,41,-1
 509 282 l 1,42,43
 496 329 496 329 504 405 c 0,44,45
 507 435 507 435 511 439.5 c 128,-1,46
 515 444 515 444 540 444 c 2,47,-1
 568 444 l 1,48,-1
 566 453 l 1,49,50
 553 500 553 500 561 576 c 0,51,52
 564 606 564 606 568 610 c 128,-1,53
 572 614 572 614 597 614 c 2,54,-1
 625 614 l 1,55,-1
 623 624 l 1,56,57
 616 651 616 651 616 703.5 c 128,-1,58
 616 756 616 756 623 777 c 0,59,60
 625 785 625 785 623 794 c 0,61,62
 616 821 616 821 616 874 c 128,-1,63
 616 927 616 927 623 948 c 0,64,65
 625 956 625 956 623 965 c 0,66,67
 616 993 616 993 616 1047 c 128,-1,68
 616 1101 616 1101 623 1120 c 1,69,-1
 626 1126 l 1,70,-1
 711 1126 l 2,71,72
 796 1126 796 1126 798 1124 c 0,73,74
 799 1123 799 1123 801 1112 c 0,75,76
 814 1043 814 1043 800 969 c 0,77,78
 798 955 798 955 800 943 c 0,79,80
 805 917 805 917 805 870.5 c 128,-1,81
 805 824 805 824 800 798 c 0,82,83
 798 785 798 785 800 772 c 1,84,85
 807 742 807 742 806 685 c 128,-1,86
 805 628 805 628 798 617 c 0,87,88
 795 614 795 614 768 614 c 2,89,-1
 740 614 l 1,90,-1
 742 605 l 1,91,92
 749 580 749 580 748.5 519 c 128,-1,93
 748 458 748 458 741 446 c 0,94,95
 739 444 739 444 711 444 c 0,96,97
 684 444 684 444 684 441 c 1,98,99
 692 427 692 427 692 360 c 0,100,101
 692 289 692 289 684 275 c 0,102,103
 682 273 682 273 654 273 c 0,104,105
 625 273 625 273 627 271 c 0,106,107
 635 257 635 257 635 189 c 0,108,109
 635 119 635 119 627 105 c 1,110,111
 624 102 624 102 597 102 c 0,112,113
 568 102 568 102 570 100 c 0,114,115
 578 86 578 86 577.5 14 c 128,-1,116
 577 -58 577 -58 569 -66 c 0,117,118
 567 -68 567 -68 482 -68 c 2,119,-1
 397 -67 l 1,120,-1
 395 -59 l 2,121,122
 388 -34 388 -34 388 20 c 128,-1,123
 388 74 388 74 395 94 c 2,124,-1
 398 102 l 1,125,-1
 369 103 l 1,126,-1
 340 104 l 1,127,-1
 338 112 l 2,128,129
 331 138 331 138 331 191.5 c 128,-1,130
 331 245 331 245 338 265 c 2,131,-1
 341 273 l 1,132,-1
 312 274 l 1,133,-1
 283 274 l 1,134,-1
 281 282 l 2,135,136
 274 308 274 308 274.5 362 c 128,-1,137
 275 416 275 416 282 436 c 1,138,-1
 284 443 l 1,139,-1
 255 444 l 1,140,-1
 226 445 l 1,141,-1
 224 453 l 2,142,143
 217 479 217 479 217.5 532.5 c 128,-1,144
 218 586 218 586 225 606 c 1,145,-1
 227 614 l 1,146,-1
 198 615 l 1,147,-1
 170 616 l 1,148,-1
 167 624 l 1,149,150
 160 650 160 650 160.5 703.5 c 128,-1,151
 161 757 161 757 168 777 c 0,152,153
 170 785 170 785 168 794 c 0,154,155
 161 821 161 821 161 874 c 128,-1,156
 161 927 161 927 168 948 c 0,157,158
 170 956 170 956 168 965 c 0,159,160
 161 993 161 993 161 1047 c 128,-1,161
 161 1101 161 1101 168 1120 c 1,0,-1
EndSplineSet
EndChar

StartChar: W
Encoding: 87 87 58
Width: 851
Flags: W
LayerCount: 2
Fore
SplineSet
111 1120 m 1,0,-1
 114 1126 l 1,1,-1
 199 1126 l 2,2,3
 284 1126 284 1126 286 1124 c 0,4,5
 287 1123 287 1123 289 1112 c 0,6,7
 302 1043 302 1043 288 969 c 0,8,9
 286 955 286 955 288 943 c 0,10,11
 293 917 293 917 293 870.5 c 128,-1,12
 293 824 293 824 288 798 c 0,13,14
 286 785 286 785 288 772 c 0,15,16
 293 746 293 746 293 699 c 128,-1,17
 293 652 293 652 288 627 c 0,18,19
 286 614 286 614 288 602 c 0,20,21
 294 573 294 573 293.5 515.5 c 128,-1,22
 293 458 293 458 286 447 c 0,23,24
 285 446 285 446 285.5 442.5 c 128,-1,25
 286 439 286 439 287 435 c 0,26,27
 294 410 294 410 293.5 348.5 c 128,-1,28
 293 287 293 287 286 275 c 0,29,30
 284 273 284 273 312 273 c 2,31,-1
 341 273 l 1,32,-1
 338 282 l 1,33,34
 325 329 325 329 333 405 c 0,35,36
 336 435 336 435 340 439.5 c 128,-1,37
 344 444 344 444 369 444 c 2,38,-1
 398 444 l 1,39,-1
 395 453 l 1,40,41
 388 480 388 480 388 532.5 c 128,-1,42
 388 585 388 585 395 606 c 0,43,44
 397 614 397 614 395 624 c 0,45,46
 388 651 388 651 388 703.5 c 128,-1,47
 388 756 388 756 395 777 c 0,48,49
 397 785 397 785 395 794 c 0,50,51
 388 821 388 821 388 874 c 128,-1,52
 388 927 388 927 395 948 c 0,53,54
 397 956 397 956 395 965 c 0,55,56
 388 992 388 992 388.5 1046.5 c 128,-1,57
 389 1101 389 1101 396 1120 c 2,58,-1
 398 1126 l 1,59,-1
 455 1126 l 2,60,61
 511 1126 511 1126 513 1124 c 0,62,63
 514 1123 514 1123 516 1112 c 0,64,65
 529 1040 529 1040 516 969 c 0,66,67
 514 955 514 955 516 943 c 0,68,69
 521 917 521 917 521 870.5 c 128,-1,70
 521 824 521 824 516 798 c 0,71,72
 514 785 514 785 516 772 c 0,73,74
 521 746 521 746 521 699 c 128,-1,75
 521 652 521 652 516 627 c 0,76,77
 514 614 514 614 516 602 c 0,78,79
 523 572 523 572 522 514.5 c 128,-1,80
 521 457 521 457 513 446 c 0,81,82
 511 444 511 444 540 444 c 0,83,84
 567 444 567 444 570 441 c 1,85,86
 576 431 576 431 578 383 c 128,-1,87
 580 335 580 335 576 306 c 0,88,89
 572 278 572 278 570 275 c 0,90,91
 568 273 568 273 597 273 c 2,92,-1
 625 273 l 1,93,-1
 623 282 l 2,94,95
 616 309 616 309 616 362 c 128,-1,96
 616 415 616 415 623 436 c 0,97,98
 625 444 625 444 623 453 c 0,99,100
 616 480 616 480 616 532.5 c 128,-1,101
 616 585 616 585 623 606 c 0,102,103
 625 614 625 614 623 624 c 0,104,105
 616 651 616 651 616 703.5 c 128,-1,106
 616 756 616 756 623 777 c 0,107,108
 625 785 625 785 623 794 c 0,109,110
 616 821 616 821 616 874 c 128,-1,111
 616 927 616 927 623 948 c 0,112,113
 625 956 625 956 623 965 c 0,114,115
 616 993 616 993 616 1047 c 128,-1,116
 616 1101 616 1101 623 1120 c 1,117,-1
 626 1126 l 1,118,-1
 711 1126 l 2,119,120
 796 1126 796 1126 798 1124 c 0,121,122
 799 1123 799 1123 801 1112 c 0,123,124
 814 1043 814 1043 800 969 c 0,125,126
 798 955 798 955 800 943 c 0,127,128
 805 917 805 917 805 870.5 c 128,-1,129
 805 824 805 824 800 798 c 0,130,131
 798 785 798 785 800 772 c 0,132,133
 805 746 805 746 805 699 c 128,-1,134
 805 652 805 652 800 627 c 0,135,136
 798 614 798 614 800 602 c 0,137,138
 807 572 807 572 806 514.5 c 128,-1,139
 805 457 805 457 798 446 c 0,140,141
 796 444 796 444 768 444 c 2,142,-1
 740 444 l 1,143,-1
 742 435 l 1,144,145
 748 413 748 413 748.5 363 c 128,-1,146
 749 313 749 313 743 286 c 0,147,148
 741 273 741 273 743 260 c 1,149,150
 750 230 750 230 749 173 c 128,-1,151
 748 116 748 116 741 105 c 0,152,153
 738 102 738 102 711 102 c 0,154,155
 682 102 682 102 684 100 c 0,156,157
 692 86 692 86 691.5 14 c 128,-1,158
 691 -58 691 -58 683 -66 c 0,159,160
 681 -68 681 -68 624 -68 c 1,161,-1
 568 -67 l 1,162,-1
 566 -59 l 2,163,164
 559 -34 559 -34 559 20 c 128,-1,165
 559 74 559 74 566 94 c 2,166,-1
 569 102 l 1,167,-1
 540 103 l 1,168,-1
 511 104 l 1,169,-1
 509 112 l 2,170,171
 502 138 502 138 502 191 c 128,-1,172
 502 244 502 244 509 265 c 2,173,-1
 512 273 l 1,174,-1
 455 273 l 2,175,176
 446 273 446 273 437.5 273 c 128,-1,177
 429 273 429 273 422 272.5 c 128,-1,178
 415 272 415 272 409.5 272 c 128,-1,179
 404 272 404 272 402 272 c 2,180,-1
 399 271 l 1,181,182
 407 258 407 258 407 188 c 128,-1,183
 407 118 407 118 399 105 c 0,184,185
 396 102 396 102 369 102 c 0,186,187
 340 102 340 102 342 100 c 0,188,189
 350 86 350 86 350 14 c 128,-1,190
 350 -58 350 -58 342 -66 c 0,191,192
 340 -68 340 -68 283 -68 c 2,193,-1
 226 -67 l 1,194,-1
 224 -59 l 2,195,196
 217 -33 217 -33 217.5 20.5 c 128,-1,197
 218 74 218 74 225 94 c 1,198,-1
 227 102 l 1,199,-1
 198 103 l 1,200,-1
 170 104 l 1,201,-1
 167 112 l 1,202,203
 160 138 160 138 160.5 191.5 c 128,-1,204
 161 245 161 245 168 265 c 0,205,206
 170 273 170 273 168 282 c 0,207,208
 161 309 161 309 161 362 c 128,-1,209
 161 415 161 415 168 436 c 2,210,-1
 170 443 l 1,211,-1
 142 444 l 1,212,-1
 113 445 l 1,213,-1
 111 453 l 2,214,215
 104 478 104 478 104 532 c 128,-1,216
 104 586 104 586 111 606 c 0,217,218
 113 614 113 614 111 624 c 0,219,220
 104 651 104 651 104 703.5 c 128,-1,221
 104 756 104 756 111 777 c 0,222,223
 113 785 113 785 111 794 c 0,224,225
 104 821 104 821 104 874 c 128,-1,226
 104 927 104 927 111 948 c 0,227,228
 113 956 113 956 111 965 c 0,229,230
 104 993 104 993 104 1047 c 128,-1,231
 104 1101 104 1101 111 1120 c 1,0,-1
EndSplineSet
EndChar

StartChar: X
Encoding: 88 88 59
Width: 851
Flags: W
LayerCount: 2
Fore
SplineSet
117 1120 m 1,0,-1
 120 1126 l 1,1,-1
 205 1126 l 2,2,3
 290 1126 290 1126 292 1124 c 0,4,5
 298 1114 298 1114 300 1065 c 128,-1,6
 302 1016 302 1016 297 988 c 0,7,8
 296 983 296 983 295.5 979 c 128,-1,9
 295 975 295 975 294.5 972.5 c 128,-1,10
 294 970 294 970 293.5 967.5 c 128,-1,11
 293 965 293 965 293 963.5 c 128,-1,12
 293 962 293 962 293 961 c 128,-1,13
 293 960 293 960 292 959 c 1,14,-1
 292 958 l 1,15,16
 290 956 290 956 319 956 c 0,17,18
 345 956 345 956 348 953 c 1,19,20
 354 943 354 943 356 894.5 c 128,-1,21
 358 846 358 846 354 818 c 0,22,23
 349 789 349 789 348 787 c 0,24,25
 346 785 346 785 375 785 c 0,26,27
 403 785 403 785 405 783 c 0,28,29
 411 773 411 773 413 724 c 128,-1,30
 415 675 415 675 411 647 c 0,31,32
 406 619 406 619 405 617 c 1,33,-1
 408 616 l 2,34,35
 410 616 410 616 415.5 615.5 c 128,-1,36
 421 615 421 615 427.5 614.5 c 128,-1,37
 434 614 434 614 443 614 c 128,-1,38
 452 614 452 614 461 614 c 2,39,-1
 517 614 l 1,40,-1
 515 624 l 1,41,42
 502 671 502 671 510 746 c 0,43,44
 513 776 513 776 517 780.5 c 128,-1,45
 521 785 521 785 546 785 c 2,46,-1
 574 785 l 1,47,-1
 572 794 l 1,48,49
 559 841 559 841 567 917 c 0,50,51
 570 947 570 947 574 951.5 c 128,-1,52
 578 956 578 956 603 956 c 2,53,-1
 631 956 l 1,54,-1
 629 965 l 2,55,56
 622 993 622 993 622 1047 c 128,-1,57
 622 1101 622 1101 629 1120 c 1,58,-1
 632 1126 l 1,59,-1
 717 1126 l 2,60,61
 802 1126 802 1126 804 1124 c 0,62,63
 810 1114 810 1114 812 1065 c 128,-1,64
 814 1016 814 1016 809 988 c 0,65,66
 808 983 808 983 807.5 979 c 128,-1,67
 807 975 807 975 806.5 972.5 c 128,-1,68
 806 970 806 970 805.5 967.5 c 128,-1,69
 805 965 805 965 805 963.5 c 128,-1,70
 805 962 805 962 805 961 c 128,-1,71
 805 960 805 960 804 959 c 1,72,-1
 804 958 l 1,73,74
 802 956 802 956 774 956 c 0,75,76
 747 956 747 956 747 953 c 1,77,78
 755 939 755 939 755 872 c 0,79,80
 755 801 755 801 747 787 c 0,81,82
 745 785 745 785 688 785 c 0,83,84
 673 785 673 785 660 784.5 c 128,-1,85
 647 784 647 784 640 784 c 2,86,-1
 633 783 l 1,87,88
 641 769 641 769 641 701 c 0,89,90
 641 631 641 631 633 617 c 1,91,92
 630 614 630 614 603 614 c 0,93,94
 574 614 574 614 576 612 c 0,95,96
 585 596 585 596 585 530 c 0,97,98
 585 462 585 462 576 446 c 0,99,100
 574 444 574 444 603 444 c 0,101,102
 628 444 628 444 632 440 c 128,-1,103
 636 436 636 436 639 408 c 0,104,105
 643 374 643 374 640.5 329 c 128,-1,106
 638 284 638 284 633 275 c 1,107,-1
 640 274 l 2,108,109
 647 274 647 274 660 273.5 c 128,-1,110
 673 273 673 273 688 273 c 0,111,112
 745 273 745 273 747 271 c 0,113,114
 753 261 753 261 755 212 c 128,-1,115
 757 163 757 163 753 135 c 0,116,117
 748 107 748 107 747 105 c 1,118,-1
 771 102 l 1,119,-1
 774 102 l 2,120,121
 802 102 802 102 804 100 c 0,122,123
 809 91 809 91 811.5 41.5 c 128,-1,124
 814 -8 814 -8 810 -33 c 0,125,126
 809 -36 809 -36 808 -43.5 c 128,-1,127
 807 -51 807 -51 807 -53 c 0,128,129
 805 -64 805 -64 803 -66 c 128,-1,130
 801 -68 801 -68 716 -68 c 2,131,-1
 631 -67 l 1,132,-1
 629 -59 l 2,133,134
 622 -34 622 -34 622 20 c 128,-1,135
 622 74 622 74 629 94 c 1,136,-1
 631 102 l 1,137,-1
 603 103 l 1,138,-1
 574 104 l 1,139,-1
 572 112 l 2,140,141
 565 138 565 138 565 191.5 c 128,-1,142
 565 245 565 245 572 265 c 2,143,-1
 575 273 l 1,144,-1
 546 274 l 1,145,-1
 517 274 l 1,146,-1
 515 282 l 2,147,148
 508 308 508 308 508 361.5 c 128,-1,149
 508 415 508 415 515 436 c 2,150,-1
 518 444 l 1,151,-1
 461 444 l 2,152,153
 452 444 452 444 443 444 c 128,-1,154
 434 444 434 444 427.5 443.5 c 128,-1,155
 421 443 421 443 415.5 442.5 c 128,-1,156
 410 442 410 442 408 442 c 2,157,-1
 405 441 l 1,158,159
 414 425 414 425 414 360 c 0,160,161
 414 291 414 291 405 275 c 0,162,163
 403 273 403 273 375 273 c 0,164,165
 346 273 346 273 348 271 c 0,166,167
 357 255 357 255 357 189 c 0,168,169
 357 121 357 121 348 105 c 1,170,171
 345 102 345 102 319 102 c 0,172,173
 290 102 290 102 292 100 c 0,174,175
 300 86 300 86 299.5 14 c 128,-1,176
 299 -58 299 -58 291 -66 c 0,177,178
 289 -68 289 -68 204 -68 c 2,179,-1
 119 -67 l 1,180,-1
 117 -59 l 1,181,182
 104 -13 104 -13 112 64 c 0,183,184
 115 94 115 94 119 98 c 128,-1,185
 123 102 123 102 148 102 c 2,186,-1
 176 102 l 1,187,-1
 174 112 l 1,188,189
 167 140 167 140 167 194 c 128,-1,190
 167 248 167 248 174 267 c 1,191,-1
 177 273 l 1,192,-1
 233 273 l 1,193,-1
 290 273 l 1,194,-1
 287 282 l 1,195,196
 275 326 275 326 283 405 c 0,197,198
 286 435 286 435 290 439.5 c 128,-1,199
 294 444 294 444 319 444 c 2,200,-1
 347 444 l 1,201,-1
 344 453 l 1,202,203
 337 480 337 480 337 532.5 c 128,-1,204
 337 585 337 585 344 606 c 2,205,-1
 347 614 l 1,206,-1
 318 615 l 1,207,-1
 289 616 l 1,208,-1
 287 624 l 2,209,210
 280 650 280 650 280.5 703 c 128,-1,211
 281 756 281 756 288 777 c 1,212,-1
 290 785 l 1,213,-1
 233 786 l 1,214,-1
 176 786 l 1,215,-1
 173 794 l 1,216,217
 166 820 166 820 166.5 874 c 128,-1,218
 167 928 167 928 174 948 c 1,219,-1
 176 955 l 1,220,-1
 148 956 l 1,221,-1
 119 957 l 1,222,-1
 117 965 l 2,223,224
 110 990 110 990 110 1046 c 128,-1,225
 110 1102 110 1102 117 1120 c 1,0,-1
EndSplineSet
EndChar

StartChar: Y
Encoding: 89 89 60
Width: 851
Flags: W
LayerCount: 2
Fore
SplineSet
168 1120 m 1,0,-1
 171 1126 l 1,1,-1
 256 1126 l 2,2,3
 340 1126 340 1126 342 1124 c 128,-1,4
 344 1122 344 1122 346 1112 c 0,5,6
 359 1043 359 1043 345 969 c 0,7,8
 343 955 343 955 345 943 c 0,9,10
 352 913 352 913 351 855.5 c 128,-1,11
 350 798 350 798 342 787 c 0,12,13
 340 785 340 785 369 785 c 0,14,15
 397 785 397 785 399 783 c 0,16,17
 405 774 405 774 407.5 723 c 128,-1,18
 410 672 410 672 405 649 c 0,19,20
 404 647 404 647 403.5 640 c 128,-1,21
 403 633 403 633 403 630 c 0,22,23
 401 618 401 618 400 617 c 1,24,-1
 404 616 l 2,25,26
 407 616 407 616 414.5 615.5 c 128,-1,27
 422 615 422 615 432 614.5 c 128,-1,28
 442 614 442 614 455.5 614 c 128,-1,29
 469 614 469 614 483 614 c 2,30,-1
 568 614 l 1,31,-1
 566 624 l 1,32,33
 553 671 553 671 561 746 c 0,34,35
 564 776 564 776 568 780.5 c 128,-1,36
 572 785 572 785 597 785 c 2,37,-1
 625 785 l 1,38,-1
 623 794 l 2,39,40
 616 821 616 821 616 874 c 128,-1,41
 616 927 616 927 623 948 c 0,42,43
 625 956 625 956 623 965 c 0,44,45
 616 993 616 993 616 1047 c 128,-1,46
 616 1101 616 1101 623 1120 c 1,47,-1
 626 1126 l 1,48,-1
 711 1126 l 2,49,50
 796 1126 796 1126 798 1124 c 0,51,52
 799 1123 799 1123 801 1112 c 0,53,54
 814 1043 814 1043 800 969 c 0,55,56
 798 955 798 955 800 943 c 0,57,58
 807 913 807 913 806 855.5 c 128,-1,59
 805 798 805 798 798 787 c 0,60,61
 796 785 796 785 768 785 c 0,62,63
 739 785 739 785 741 783 c 0,64,65
 749 769 749 769 749 701 c 0,66,67
 749 631 749 631 741 617 c 1,68,69
 738 614 738 614 711 614 c 0,70,71
 682 614 682 614 684 612 c 0,72,73
 692 598 692 598 692 530 c 0,74,75
 692 460 692 460 684 446 c 0,76,77
 682 444 682 444 625 444 c 0,78,79
 619 444 619 444 612.5 444 c 128,-1,80
 606 444 606 444 600.5 443.5 c 128,-1,81
 595 443 595 443 590 443 c 128,-1,82
 585 443 585 443 581.5 442.5 c 128,-1,83
 578 442 578 442 575 442 c 128,-1,84
 572 442 572 442 571 442 c 2,85,-1
 570 441 l 1,86,87
 577 430 577 430 578 372.5 c 128,-1,88
 579 315 579 315 573 286 c 0,89,90
 571 273 571 273 573 260 c 0,91,92
 579 231 579 231 578 173.5 c 128,-1,93
 577 116 577 116 570 105 c 0,94,95
 568 103 568 103 572 94 c 1,96,97
 579 68 579 68 578 5 c 128,-1,98
 577 -58 577 -58 569 -66 c 0,99,100
 567 -68 567 -68 482 -68 c 2,101,-1
 397 -67 l 1,102,-1
 395 -59 l 2,103,104
 388 -34 388 -34 388 20 c 128,-1,105
 388 74 388 74 395 94 c 0,106,107
 397 102 397 102 395 112 c 0,108,109
 388 139 388 139 388 191.5 c 128,-1,110
 388 244 388 244 395 265 c 0,111,112
 397 273 397 273 395 282 c 0,113,114
 388 309 388 309 388 362 c 128,-1,115
 388 415 388 415 395 436 c 2,116,-1
 398 444 l 1,117,-1
 341 444 l 1,118,-1
 283 445 l 1,119,-1
 281 453 l 2,120,121
 274 479 274 479 274.5 532.5 c 128,-1,122
 275 586 275 586 282 606 c 1,123,-1
 284 614 l 1,124,-1
 255 615 l 1,125,-1
 226 616 l 1,126,-1
 224 624 l 2,127,128
 217 650 217 650 217.5 703.5 c 128,-1,129
 218 757 218 757 225 777 c 1,130,-1
 227 785 l 1,131,-1
 198 786 l 1,132,-1
 170 786 l 1,133,-1
 167 794 l 1,134,135
 160 820 160 820 160.5 874 c 128,-1,136
 161 928 161 928 168 948 c 0,137,138
 170 956 170 956 168 965 c 0,139,140
 161 993 161 993 161 1047 c 128,-1,141
 161 1101 161 1101 168 1120 c 1,0,-1
EndSplineSet
EndChar

StartChar: Z
Encoding: 90 90 61
Width: 851
Flags: W
LayerCount: 2
Fore
SplineSet
168 1120 m 1,0,-1
 171 1126 l 1,1,-1
 455 1126 l 2,2,3
 739 1126 739 1126 741 1124 c 0,4,5
 742 1123 742 1123 744 1112 c 0,6,7
 757 1043 757 1043 743 969 c 0,8,9
 741 955 741 955 743 943 c 0,10,11
 750 913 750 913 749 855.5 c 128,-1,12
 748 798 748 798 741 787 c 0,13,14
 739 785 739 785 711 785 c 0,15,16
 682 785 682 785 684 783 c 0,17,18
 692 769 692 769 692 701 c 0,19,20
 692 631 692 631 684 617 c 1,21,22
 681 614 681 614 625 614 c 0,23,24
 610 614 610 614 597 613.5 c 128,-1,25
 584 613 584 613 577 612 c 1,26,-1
 570 612 l 1,27,28
 579 596 579 596 579 530 c 0,29,30
 579 462 579 462 570 446 c 0,31,32
 568 444 568 444 512 444 c 0,33,34
 503 444 503 444 494 444 c 128,-1,35
 485 444 485 444 478.5 443.5 c 128,-1,36
 472 443 472 443 466.5 442.5 c 128,-1,37
 461 442 461 442 458 442 c 1,38,-1
 456 441 l 1,39,40
 465 425 465 425 465 360 c 0,41,42
 465 291 465 291 456 275 c 0,43,44
 454 273 454 273 398 273 c 0,45,46
 389 273 389 273 380.5 273 c 128,-1,47
 372 273 372 273 365 272.5 c 128,-1,48
 358 272 358 272 352.5 272 c 128,-1,49
 347 272 347 272 344 272 c 1,50,-1
 342 271 l 1,51,52
 351 255 351 255 351 189 c 0,53,54
 351 121 351 121 342 105 c 0,55,56
 341 104 341 104 367 103.5 c 128,-1,57
 393 103 393 103 441 102.5 c 128,-1,58
 489 102 489 102 540 102 c 0,59,60
 739 102 739 102 741 100 c 0,61,62
 746 91 746 91 748.5 41.5 c 128,-1,63
 751 -8 751 -8 747 -33 c 0,64,65
 746 -36 746 -36 745 -43.5 c 128,-1,66
 744 -51 744 -51 744 -53 c 0,67,68
 742 -64 742 -64 740 -66 c 128,-1,69
 738 -68 738 -68 454 -68 c 2,70,-1
 170 -67 l 1,71,-1
 167 -59 l 1,72,73
 160 -33 160 -33 160.5 20.5 c 128,-1,74
 161 74 161 74 168 94 c 0,75,76
 170 102 170 102 168 112 c 0,77,78
 161 140 161 140 161 194 c 128,-1,79
 161 248 161 248 168 267 c 1,80,-1
 171 273 l 1,81,-1
 227 273 l 1,82,-1
 284 273 l 1,83,-1
 281 282 l 1,84,85
 274 309 274 309 274.5 363.5 c 128,-1,86
 275 418 275 418 282 437 c 1,87,-1
 284 444 l 1,88,-1
 341 444 l 1,89,-1
 398 444 l 1,90,-1
 395 453 l 1,91,92
 388 480 388 480 388.5 534.5 c 128,-1,93
 389 589 389 589 396 608 c 2,94,-1
 398 614 l 1,95,-1
 455 614 l 1,96,-1
 511 614 l 1,97,-1
 509 624 l 1,98,99
 496 671 496 671 504 746 c 0,100,101
 507 776 507 776 511 780.5 c 128,-1,102
 515 785 515 785 540 785 c 2,103,-1
 568 785 l 1,104,-1
 566 794 l 2,105,106
 559 821 559 821 559 874 c 128,-1,107
 559 927 559 927 566 948 c 2,108,-1
 569 956 l 1,109,-1
 369 956 l 1,110,-1
 170 957 l 1,111,-1
 167 965 l 1,112,113
 160 991 160 991 160.5 1046.5 c 128,-1,114
 161 1102 161 1102 168 1120 c 1,0,-1
EndSplineSet
EndChar

StartChar: bracketleft
Encoding: 91 91 62
Width: 851
Flags: W
LayerCount: 2
Fore
SplineSet
339 1291 m 2,0,-1
 341 1297 l 1,1,-1
 483 1297 l 2,2,3
 625 1297 625 1297 627 1295 c 0,4,5
 633 1285 633 1285 635 1236 c 128,-1,6
 637 1187 637 1187 633 1159 c 0,7,8
 628 1131 628 1131 627 1129 c 0,9,10
 624 1126 624 1126 569 1126 c 0,11,12
 560 1126 560 1126 551.5 1126 c 128,-1,13
 543 1126 543 1126 536 1125.5 c 128,-1,14
 529 1125 529 1125 523.5 1125 c 128,-1,15
 518 1125 518 1125 516 1124 c 1,16,-1
 513 1124 l 1,17,18
 520 1113 520 1113 521 1055.5 c 128,-1,19
 522 998 522 998 516 969 c 0,20,21
 514 956 514 956 516 943 c 0,22,23
 522 914 522 914 521.5 856.5 c 128,-1,24
 521 799 521 799 514 788 c 0,25,26
 513 787 513 787 513.5 783.5 c 128,-1,27
 514 780 514 780 515 776 c 0,28,29
 522 752 522 752 521.5 690.5 c 128,-1,30
 521 629 521 629 514 617 c 0,31,32
 512 615 512 615 515 606 c 0,33,34
 522 582 522 582 521.5 520.5 c 128,-1,35
 521 459 521 459 514 447 c 0,36,37
 513 446 513 446 513.5 442.5 c 128,-1,38
 514 439 514 439 515 435 c 0,39,40
 522 411 522 411 521.5 349.5 c 128,-1,41
 521 288 521 288 514 276 c 0,42,43
 513 275 513 275 513.5 271.5 c 128,-1,44
 514 268 514 268 515 264 c 0,45,46
 522 240 522 240 521.5 178.5 c 128,-1,47
 521 117 521 117 514 105 c 0,48,49
 512 103 512 103 515 94 c 0,50,51
 522 69 522 69 521 7.5 c 128,-1,52
 520 -54 520 -54 513 -66 c 1,53,-1
 520 -66 l 1,54,55
 527 -67 527 -67 540.5 -67.5 c 128,-1,56
 554 -68 554 -68 569 -68 c 0,57,58
 624 -68 624 -68 627 -71 c 1,59,60
 633 -81 633 -81 635 -129.5 c 128,-1,61
 637 -178 637 -178 633 -206 c 0,62,63
 628 -235 628 -235 626 -237 c 0,64,65
 625 -238 625 -238 482 -238 c 2,66,-1
 340 -238 l 1,67,-1
 338 -230 l 2,68,69
 331 -204 331 -204 331 -150 c 128,-1,70
 331 -96 331 -96 338 -76 c 1,71,72
 340 -66 340 -66 339 -59 c 0,73,74
 332 -32 332 -32 331.5 20.5 c 128,-1,75
 331 73 331 73 338 94 c 0,76,77
 341 104 341 104 339 112 c 0,78,79
 332 139 332 139 331.5 191.5 c 128,-1,80
 331 244 331 244 338 265 c 1,81,82
 340 275 340 275 339 282 c 0,83,84
 332 309 332 309 331.5 362 c 128,-1,85
 331 415 331 415 338 436 c 1,86,87
 340 446 340 446 339 453 c 0,88,89
 332 480 332 480 331.5 532.5 c 128,-1,90
 331 585 331 585 338 606 c 0,91,92
 341 616 341 616 339 624 c 0,93,94
 332 651 332 651 331.5 703.5 c 128,-1,95
 331 756 331 756 338 777 c 1,96,97
 340 787 340 787 339 794 c 0,98,99
 332 821 332 821 331.5 874 c 128,-1,100
 331 927 331 927 338 948 c 1,101,102
 340 958 340 958 339 965 c 0,103,104
 332 992 332 992 331.5 1044.5 c 128,-1,105
 331 1097 331 1097 338 1118 c 0,106,107
 341 1128 341 1128 339 1136 c 0,108,109
 332 1164 332 1164 332 1218 c 128,-1,110
 332 1272 332 1272 339 1291 c 2,0,-1
EndSplineSet
EndChar

StartChar: backslash
Encoding: 92 92 63
Width: 851
Flags: W
LayerCount: 2
Fore
SplineSet
111 1291 m 1,0,-1
 114 1297 l 1,1,-1
 199 1297 l 2,2,3
 284 1297 284 1297 286 1295 c 0,4,5
 292 1285 292 1285 294 1236 c 128,-1,6
 296 1187 296 1187 291 1159 c 0,7,8
 290 1154 290 1154 289.5 1150 c 128,-1,9
 289 1146 289 1146 288.5 1143.5 c 128,-1,10
 288 1141 288 1141 287.5 1138.5 c 128,-1,11
 287 1136 287 1136 287 1134.5 c 128,-1,12
 287 1133 287 1133 287 1132 c 128,-1,13
 287 1131 287 1131 286 1130 c 1,14,-1
 286 1129 l 1,15,-1
 310 1126 l 1,16,-1
 313 1126 l 2,17,18
 340 1126 340 1126 342 1124 c 0,19,20
 348 1114 348 1114 350 1065 c 128,-1,21
 352 1016 352 1016 348 988 c 0,22,23
 343 960 343 960 342 958 c 0,24,25
 340 956 340 956 369 956 c 0,26,27
 396 956 396 956 399 953 c 1,28,29
 405 943 405 943 407 894.5 c 128,-1,30
 409 846 409 846 405 818 c 0,31,32
 400 789 400 789 399 787 c 0,33,34
 397 785 397 785 426 785 c 0,35,36
 454 785 454 785 456 783 c 0,37,38
 462 773 462 773 464 724 c 128,-1,39
 466 675 466 675 462 647 c 0,40,41
 457 619 457 619 456 617 c 1,42,-1
 480 614 l 1,43,-1
 483 614 l 2,44,45
 511 614 511 614 513 612 c 0,46,47
 519 602 519 602 521 553 c 128,-1,48
 523 504 523 504 519 476 c 0,49,50
 514 448 514 448 513 446 c 0,51,52
 511 444 511 444 540 444 c 0,53,54
 567 444 567 444 570 441 c 1,55,56
 576 431 576 431 578 382.5 c 128,-1,57
 580 334 580 334 576 306 c 0,58,59
 571 277 571 277 570 275 c 0,60,61
 568 273 568 273 597 273 c 0,62,63
 625 273 625 273 627 271 c 0,64,65
 632 262 632 262 634.5 212.5 c 128,-1,66
 637 163 637 163 633 138 c 0,67,68
 632 136 632 136 631 128 c 128,-1,69
 630 120 630 120 630 118 c 0,70,71
 628 106 628 106 627 105 c 1,72,-1
 651 102 l 1,73,-1
 654 102 l 2,74,75
 682 102 682 102 684 100 c 0,76,77
 689 91 689 91 691.5 41.5 c 128,-1,78
 694 -8 694 -8 690 -33 c 0,79,80
 689 -35 689 -35 688 -43 c 128,-1,81
 687 -51 687 -51 687 -52 c 0,82,83
 685 -65 685 -65 684 -66 c 0,84,85
 682 -68 682 -68 711 -68 c 0,86,87
 738 -68 738 -68 741 -71 c 1,88,89
 746 -80 746 -80 748.5 -129.5 c 128,-1,90
 751 -179 751 -179 747 -204 c 0,91,92
 746 -207 746 -207 745 -214 c 128,-1,93
 744 -221 744 -221 744 -223 c 0,94,95
 742 -235 742 -235 740 -237 c 0,96,97
 739 -238 739 -238 653 -238 c 2,98,-1
 568 -238 l 1,99,-1
 566 -230 l 2,100,101
 559 -204 559 -204 559 -150 c 128,-1,102
 559 -96 559 -96 566 -76 c 1,103,-1
 569 -69 l 1,104,-1
 540 -68 l 1,105,-1
 511 -67 l 1,106,-1
 509 -59 l 2,107,108
 502 -34 502 -34 502 20 c 128,-1,109
 502 74 502 74 509 94 c 2,110,-1
 512 102 l 1,111,-1
 483 103 l 1,112,-1
 454 104 l 1,113,-1
 452 112 l 2,114,115
 445 138 445 138 445 191.5 c 128,-1,116
 445 245 445 245 452 265 c 2,117,-1
 455 273 l 1,118,-1
 426 274 l 1,119,-1
 397 274 l 1,120,-1
 395 282 l 2,121,122
 388 308 388 308 388 362 c 128,-1,123
 388 416 388 416 395 436 c 1,124,-1
 398 443 l 1,125,-1
 369 444 l 1,126,-1
 340 445 l 1,127,-1
 338 453 l 2,128,129
 331 478 331 478 331 532 c 128,-1,130
 331 586 331 586 338 606 c 2,131,-1
 341 614 l 1,132,-1
 312 615 l 1,133,-1
 283 616 l 1,134,-1
 281 624 l 2,135,136
 274 650 274 650 274.5 703.5 c 128,-1,137
 275 757 275 757 282 777 c 1,138,-1
 284 785 l 1,139,-1
 255 786 l 1,140,-1
 226 786 l 1,141,-1
 224 794 l 2,142,143
 217 820 217 820 217.5 874 c 128,-1,144
 218 928 218 928 225 948 c 1,145,-1
 227 955 l 1,146,-1
 198 956 l 1,147,-1
 170 957 l 1,148,-1
 167 965 l 1,149,150
 160 991 160 991 160.5 1044.5 c 128,-1,151
 161 1098 161 1098 168 1118 c 1,152,-1
 170 1126 l 1,153,-1
 142 1127 l 1,154,-1
 113 1128 l 1,155,-1
 111 1136 l 2,156,157
 104 1162 104 1162 104 1217.5 c 128,-1,158
 104 1273 104 1273 111 1291 c 1,0,-1
EndSplineSet
EndChar

StartChar: bracketright
Encoding: 93 93 64
Width: 851
Flags: W
LayerCount: 2
Fore
SplineSet
339 1291 m 2,0,-1
 341 1297 l 1,1,-1
 483 1297 l 2,2,3
 625 1297 625 1297 627 1295 c 0,4,5
 628 1294 628 1294 630 1283 c 0,6,7
 643 1214 643 1214 629 1139 c 0,8,9
 627 1129 627 1129 630 1114 c 0,10,11
 635 1088 635 1088 635 1041 c 128,-1,12
 635 994 635 994 630 969 c 0,13,14
 628 956 628 956 630 943 c 0,15,16
 635 917 635 917 635 870.5 c 128,-1,17
 635 824 635 824 630 798 c 0,18,19
 628 785 628 785 630 772 c 0,20,21
 636 743 636 743 635 685.5 c 128,-1,22
 634 628 634 628 627 617 c 0,23,24
 625 615 625 615 629 606 c 1,25,26
 636 582 636 582 635 520.5 c 128,-1,27
 634 459 634 459 627 447 c 0,28,29
 625 445 625 445 629 435 c 1,30,31
 636 411 636 411 635 349.5 c 128,-1,32
 634 288 634 288 627 276 c 0,33,34
 625 274 625 274 629 264 c 1,35,36
 636 240 636 240 635 178.5 c 128,-1,37
 634 117 634 117 627 105 c 0,38,39
 625 103 625 103 629 94 c 1,40,41
 636 70 636 70 635 8.5 c 128,-1,42
 634 -53 634 -53 627 -65 c 0,43,44
 625 -67 625 -67 629 -77 c 1,45,46
 636 -103 636 -103 635 -166 c 128,-1,47
 634 -229 634 -229 626 -237 c 0,48,49
 625 -238 625 -238 482 -238 c 2,50,-1
 340 -238 l 1,51,-1
 338 -230 l 2,52,53
 331 -204 331 -204 331.5 -148.5 c 128,-1,54
 332 -93 332 -93 339 -75 c 1,55,-1
 341 -68 l 1,56,-1
 398 -68 l 1,57,-1
 455 -68 l 1,58,-1
 452 -59 l 1,59,60
 445 -32 445 -32 445 20.5 c 128,-1,61
 445 73 445 73 452 94 c 0,62,63
 454 102 454 102 452 112 c 0,64,65
 445 139 445 139 445 191.5 c 128,-1,66
 445 244 445 244 452 265 c 0,67,68
 454 273 454 273 452 282 c 0,69,70
 445 309 445 309 445 362 c 128,-1,71
 445 415 445 415 452 436 c 0,72,73
 454 444 454 444 452 453 c 0,74,75
 445 480 445 480 445 532.5 c 128,-1,76
 445 585 445 585 452 606 c 0,77,78
 454 614 454 614 452 624 c 0,79,80
 445 651 445 651 445 703.5 c 128,-1,81
 445 756 445 756 452 777 c 0,82,83
 454 785 454 785 452 794 c 0,84,85
 445 821 445 821 445 874 c 128,-1,86
 445 927 445 927 452 948 c 0,87,88
 454 956 454 956 452 965 c 0,89,90
 445 992 445 992 445 1045 c 128,-1,91
 445 1098 445 1098 452 1119 c 1,92,-1
 455 1126 l 1,93,-1
 398 1127 l 1,94,-1
 340 1128 l 1,95,-1
 338 1136 l 2,96,97
 331 1162 331 1162 331.5 1217.5 c 128,-1,98
 332 1273 332 1273 339 1291 c 2,0,-1
EndSplineSet
EndChar

StartChar: asciicircum
Encoding: 94 94 65
Width: 851
Flags: W
LayerCount: 2
Fore
SplineSet
347 1120 m 2,0,-1
 349 1126 l 1,1,-1
 491 1126 l 2,2,3
 633 1126 633 1126 635 1124 c 0,4,5
 641 1114 641 1114 643 1065 c 128,-1,6
 645 1016 645 1016 641 988 c 0,7,8
 636 960 636 960 635 958 c 0,9,10
 633 956 633 956 662 956 c 0,11,12
 689 956 689 956 692 953 c 1,13,14
 698 943 698 943 700 894.5 c 128,-1,15
 702 846 702 846 698 818 c 0,16,17
 693 789 693 789 692 787 c 0,18,19
 690 785 690 785 719 785 c 0,20,21
 747 785 747 785 749 783 c 0,22,23
 755 773 755 773 757 724 c 128,-1,24
 759 675 759 675 755 647 c 0,25,26
 750 619 750 619 748 617 c 128,-1,27
 746 615 746 615 661 615 c 2,28,-1
 576 616 l 1,29,-1
 574 624 l 2,30,31
 567 650 567 650 567 703.5 c 128,-1,32
 567 757 567 757 574 777 c 2,33,-1
 577 785 l 1,34,-1
 548 786 l 1,35,-1
 519 786 l 1,36,-1
 517 794 l 2,37,38
 510 820 510 820 510 873.5 c 128,-1,39
 510 927 510 927 517 948 c 2,40,-1
 520 956 l 1,41,-1
 491 956 l 2,42,43
 464 956 464 956 464 953 c 1,44,45
 473 937 473 937 473 872 c 0,46,47
 473 803 473 803 464 787 c 0,48,49
 462 785 462 785 434 785 c 0,50,51
 405 785 405 785 407 783 c 0,52,53
 415 770 415 770 415 697.5 c 128,-1,54
 415 625 415 625 407 617 c 0,55,56
 405 615 405 615 319 615 c 1,57,-1
 234 616 l 1,58,-1
 232 624 l 1,59,60
 220 667 220 667 228 746 c 0,61,62
 231 776 231 776 235 780.5 c 128,-1,63
 239 785 239 785 264 785 c 2,64,-1
 292 785 l 1,65,-1
 289 794 l 1,66,67
 277 838 277 838 285 917 c 0,68,69
 288 947 288 947 292 951.5 c 128,-1,70
 296 956 296 956 321 956 c 2,71,-1
 349 956 l 1,72,-1
 346 965 l 1,73,74
 339 992 339 992 339.5 1046.5 c 128,-1,75
 340 1101 340 1101 347 1120 c 2,0,-1
EndSplineSet
EndChar

StartChar: underscore
Encoding: 95 95 66
Width: 851
Flags: W
LayerCount: 2
Fore
SplineSet
111 96 m 1,0,-1
 114 102 l 1,1,-1
 455 102 l 2,2,3
 796 102 796 102 798 100 c 0,4,5
 803 91 803 91 805.5 41.5 c 128,-1,6
 808 -8 808 -8 804 -33 c 0,7,8
 803 -36 803 -36 802 -43.5 c 128,-1,9
 801 -51 801 -51 801 -53 c 0,10,11
 799 -64 799 -64 797 -66 c 128,-1,12
 795 -68 795 -68 454 -68 c 2,13,-1
 113 -67 l 1,14,-1
 111 -59 l 2,15,16
 104 -34 104 -34 104 22 c 128,-1,17
 104 78 104 78 111 96 c 1,0,-1
EndSplineSet
EndChar

StartChar: grave
Encoding: 96 96 67
Width: 851
Flags: W
LayerCount: 2
Fore
SplineSet
282 1291 m 2,0,-1
 284 1297 l 1,1,-1
 370 1297 l 2,2,3
 454 1297 454 1297 456 1295 c 0,4,5
 461 1286 461 1286 463.5 1236.5 c 128,-1,6
 466 1187 466 1187 462 1162 c 0,7,8
 461 1160 461 1160 460.5 1152.5 c 128,-1,9
 460 1145 460 1145 460 1142 c 0,10,11
 458 1131 458 1131 456 1129 c 1,12,-1
 458 1128 l 1,13,14
 461 1128 461 1128 466 1127.5 c 128,-1,15
 471 1127 471 1127 478 1126.5 c 128,-1,16
 485 1126 485 1126 494 1126 c 128,-1,17
 503 1126 503 1126 512 1126 c 0,18,19
 568 1126 568 1126 570 1124 c 0,20,21
 575 1115 575 1115 577.5 1065.5 c 128,-1,22
 580 1016 580 1016 576 991 c 0,23,24
 575 988 575 988 574 980.5 c 128,-1,25
 573 973 573 973 573 971 c 0,26,27
 571 960 571 960 569 958 c 128,-1,28
 567 956 567 956 482 956 c 2,29,-1
 397 957 l 1,30,-1
 395 965 l 2,31,32
 388 990 388 990 388 1044.5 c 128,-1,33
 388 1099 388 1099 395 1119 c 1,34,-1
 398 1126 l 1,35,-1
 341 1127 l 1,36,-1
 283 1128 l 1,37,-1
 281 1136 l 2,38,39
 274 1162 274 1162 274.5 1217.5 c 128,-1,40
 275 1273 275 1273 282 1291 c 2,0,-1
EndSplineSet
EndChar

StartChar: a
Encoding: 97 97 68
Width: 851
Flags: W
LayerCount: 2
Fore
SplineSet
290 779 m 2,0,-1
 292 785 l 1,1,-1
 463 785 l 2,2,3
 633 785 633 785 635 783 c 0,4,5
 641 773 641 773 643 724 c 128,-1,6
 645 675 645 675 641 647 c 0,7,8
 636 619 636 619 635 617 c 1,9,-1
 638 616 l 2,10,11
 640 616 640 616 645 615.5 c 128,-1,12
 650 615 650 615 657 614.5 c 128,-1,13
 664 614 664 614 672.5 614 c 128,-1,14
 681 614 681 614 690 614 c 0,15,16
 747 614 747 614 749 612 c 0,17,18
 754 603 754 603 756.5 553.5 c 128,-1,19
 759 504 759 504 755 479 c 0,20,21
 754 476 754 476 753 468.5 c 128,-1,22
 752 461 752 461 752 459 c 0,23,24
 749 440 749 440 751 431 c 0,25,26
 757 404 757 404 756.5 358 c 128,-1,27
 756 312 756 312 751 286 c 0,28,29
 749 273 749 273 751 260 c 1,30,31
 758 230 758 230 757 173 c 128,-1,32
 756 116 756 116 749 105 c 1,33,-1
 773 102 l 1,34,-1
 776 102 l 2,35,36
 804 102 804 102 806 100 c 0,37,38
 816 84 816 84 814 6 c 0,39,40
 812 -59 812 -59 805 -66 c 0,41,42
 803 -68 803 -68 718 -68 c 2,43,-1
 633 -67 l 1,44,-1
 631 -59 l 2,45,46
 624 -34 624 -34 624 20 c 128,-1,47
 624 74 624 74 631 94 c 1,48,-1
 633 102 l 1,49,-1
 605 103 l 1,50,-1
 576 104 l 1,51,-1
 574 112 l 2,52,53
 567 138 567 138 567 191 c 128,-1,54
 567 244 567 244 574 265 c 2,55,-1
 577 273 l 1,56,-1
 463 273 l 2,57,58
 450 273 450 273 437 273 c 128,-1,59
 424 273 424 273 413 273 c 128,-1,60
 402 273 402 273 392 272.5 c 128,-1,61
 382 272 382 272 374.5 272 c 128,-1,62
 367 272 367 272 361 272 c 128,-1,63
 355 272 355 272 352 272 c 1,64,-1
 350 271 l 1,65,66
 359 255 359 255 359 189 c 0,67,68
 359 121 359 121 350 105 c 0,69,70
 349 104 349 104 364 103.5 c 128,-1,71
 379 103 379 103 406.5 102.5 c 128,-1,72
 434 102 434 102 463 102 c 2,73,-1
 577 102 l 1,74,-1
 579 96 l 1,75,76
 587 76 587 76 586 9 c 128,-1,77
 585 -58 585 -58 577 -66 c 0,78,79
 575 -68 575 -68 405 -68 c 2,80,-1
 234 -67 l 1,81,-1
 232 -59 l 2,82,83
 225 -33 225 -33 225.5 20.5 c 128,-1,84
 226 74 226 74 233 94 c 1,85,-1
 235 102 l 1,86,-1
 206 103 l 1,87,-1
 178 104 l 1,88,-1
 175 112 l 1,89,90
 163 155 163 155 171 234 c 0,91,92
 174 264 174 264 178 268.5 c 128,-1,93
 182 273 182 273 207 273 c 2,94,-1
 235 273 l 1,95,-1
 233 282 l 2,96,97
 226 310 226 310 226 364 c 128,-1,98
 226 418 226 418 233 437 c 1,99,-1
 236 444 l 1,100,-1
 406 444 l 1,101,-1
 576 444 l 1,102,-1
 574 453 l 2,103,104
 567 480 567 480 567 533 c 128,-1,105
 567 586 567 586 574 607 c 1,106,-1
 577 614 l 1,107,-1
 434 615 l 1,108,-1
 291 616 l 1,109,-1
 289 624 l 2,110,111
 282 650 282 650 282.5 705.5 c 128,-1,112
 283 761 283 761 290 779 c 2,0,-1
EndSplineSet
EndChar

StartChar: b
Encoding: 98 98 69
Width: 851
Flags: W
LayerCount: 2
Fore
SplineSet
282 96 m 2,0,-1
 284 102 l 1,1,-1
 427 102 l 1,2,-1
 569 102 l 1,3,-1
 571 96 l 1,4,5
 579 76 579 76 578 9 c 128,-1,6
 577 -58 577 -58 569 -66 c 0,7,8
 567 -68 567 -68 425 -68 c 2,9,-1
 283 -67 l 1,10,-1
 281 -59 l 2,11,12
 274 -33 274 -33 274.5 22.5 c 128,-1,13
 275 78 275 78 282 96 c 2,0,-1
339 779 m 2,14,-1
 341 785 l 1,15,-1
 483 785 l 2,16,17
 625 785 625 785 627 783 c 0,18,19
 633 773 633 773 635 724 c 128,-1,20
 637 675 637 675 633 647 c 0,21,22
 628 619 628 619 627 617 c 1,23,-1
 630 616 l 2,24,25
 632 616 632 616 637 615.5 c 128,-1,26
 642 615 642 615 649 614.5 c 128,-1,27
 656 614 656 614 664.5 614 c 128,-1,28
 673 614 673 614 682 614 c 0,29,30
 739 614 739 614 741 612 c 0,31,32
 746 603 746 603 748.5 553.5 c 128,-1,33
 751 504 751 504 747 479 c 0,34,35
 746 477 746 477 745 469.5 c 128,-1,36
 744 462 744 462 744 460 c 0,37,38
 742 447 742 447 741 446 c 0,39,40
 739 444 739 444 768 444 c 0,41,42
 795 444 795 444 798 441 c 1,43,44
 803 432 803 432 805.5 382.5 c 128,-1,45
 808 333 808 333 804 308 c 0,46,47
 803 306 803 306 802 298 c 128,-1,48
 801 290 801 290 801 289 c 0,49,50
 799 277 799 277 798 276 c 0,51,52
 795 273 795 273 768 273 c 0,53,54
 739 273 739 273 741 271 c 0,55,56
 749 257 749 257 748.5 185 c 128,-1,57
 748 113 748 113 740 105 c 0,58,59
 738 103 738 103 653 103 c 2,60,-1
 568 104 l 1,61,-1
 566 112 l 1,62,63
 553 158 553 158 561 234 c 0,64,65
 564 264 564 264 568 268.5 c 128,-1,66
 572 273 572 273 597 273 c 2,67,-1
 625 273 l 1,68,-1
 623 282 l 2,69,70
 616 309 616 309 616 362 c 128,-1,71
 616 415 616 415 623 436 c 2,72,-1
 625 443 l 1,73,-1
 597 444 l 1,74,-1
 568 445 l 1,75,-1
 566 453 l 2,76,77
 559 478 559 478 559 532 c 128,-1,78
 559 586 559 586 566 607 c 1,79,-1
 569 614 l 1,80,-1
 454 615 l 1,81,-1
 340 616 l 1,82,-1
 338 624 l 2,83,84
 331 650 331 650 331.5 705.5 c 128,-1,85
 332 761 332 761 339 779 c 2,14,-1
111 1120 m 1,86,-1
 114 1126 l 1,87,-1
 199 1126 l 2,88,89
 284 1126 284 1126 286 1124 c 0,90,91
 287 1123 287 1123 289 1112 c 0,92,93
 302 1043 302 1043 288 969 c 0,94,95
 286 955 286 955 288 943 c 0,96,97
 293 917 293 917 293 870.5 c 128,-1,98
 293 824 293 824 288 798 c 0,99,100
 286 785 286 785 288 772 c 1,101,102
 295 742 295 742 294 685 c 128,-1,103
 293 628 293 628 286 617 c 1,104,-1
 310 614 l 1,105,-1
 313 614 l 2,106,107
 316 614 316 614 322 614 c 0,108,109
 336 614 336 614 339 613.5 c 128,-1,110
 342 613 342 613 344 608 c 0,111,112
 349 595 349 595 350.5 549.5 c 128,-1,113
 352 504 352 504 348 477 c 0,114,115
 344 449 344 449 342 446 c 0,116,117
 340 444 340 444 313 444 c 2,118,-1
 285 444 l 1,119,-1
 287 435 l 1,120,121
 294 411 294 411 293.5 349.5 c 128,-1,122
 293 288 293 288 286 276 c 0,123,124
 285 275 285 275 285.5 271.5 c 128,-1,125
 286 268 286 268 287 264 c 0,126,127
 294 239 294 239 293.5 178 c 128,-1,128
 293 117 293 117 286 105 c 1,129,130
 283 102 283 102 256 102 c 2,131,-1
 228 102 l 1,132,-1
 230 93 l 1,133,134
 237 67 237 67 236.5 4.5 c 128,-1,135
 236 -58 236 -58 228 -66 c 0,136,137
 226 -68 226 -68 169 -68 c 1,138,-1
 113 -67 l 1,139,-1
 111 -59 l 2,140,141
 104 -34 104 -34 104 20 c 128,-1,142
 104 74 104 74 111 94 c 0,143,144
 113 102 113 102 111 112 c 0,145,146
 104 139 104 139 104 191.5 c 128,-1,147
 104 244 104 244 111 265 c 0,148,149
 113 273 113 273 111 282 c 0,150,151
 104 309 104 309 104 362 c 128,-1,152
 104 415 104 415 111 436 c 0,153,154
 113 444 113 444 111 453 c 0,155,156
 104 480 104 480 104 532.5 c 128,-1,157
 104 585 104 585 111 606 c 0,158,159
 113 614 113 614 111 624 c 0,160,161
 104 651 104 651 104 703.5 c 128,-1,162
 104 756 104 756 111 777 c 0,163,164
 113 785 113 785 111 794 c 0,165,166
 104 821 104 821 104 874 c 128,-1,167
 104 927 104 927 111 948 c 0,168,169
 113 956 113 956 111 965 c 0,170,171
 104 993 104 993 104 1047 c 128,-1,172
 104 1101 104 1101 111 1120 c 1,86,-1
EndSplineSet
EndChar

